0
SECTION
2
HEADER
9
$ACADVER
1
AC1024
9
$INSUNITS
70
4
9
$MEASUREMENT
70
1
0
ENDSEC
0
SECTION
2
TABLES
0
TABLE
2
LAYER
70
5
0
LAYER
100
AcDbSymbolTableRecord
100
AcDbLayerTableRecord
2
LASER_MARK
70
0
62
1
6
CONTINUOUS
0
LAYER
100
AcDbSymbolTableRecord
100
AcDbLayerTableRecord
2
PART_OUTLINE_REFERENCE_DO_NOT_MARK
70
0
62
8
6
CONTINUOUS
0
LAYER
100
AcDbSymbolTableRecord
100
AcDbLayerTableRecord
2
GROOVE_REFERENCE_DO_NOT_MARK
70
0
62
9
6
CONTINUOUS
0
LAYER
100
AcDbSymbolTableRecord
100
AcDbLayerTableRecord
2
HOLES_REFERENCE_DO_NOT_MARK
70
0
62
4
6
CONTINUOUS
0
LAYER
100
AcDbSymbolTableRecord
100
AcDbLayerTableRecord
2
REAR_DATUM_REFERENCE_DO_NOT_MARK
70
0
62
3
6
CONTINUOUS
0
ENDTAB
0
ENDSEC
0
SECTION
2
ENTITIES
0
LWPOLYLINE
100
AcDbEntity
8
LASER_MARK
100
AcDbPolyline
90
258
70
1
10
-17.718750
20
3.602148
10
-17.130176
20
3.415527
10
-17.147796
20
3.354993
10
-17.166817
20
3.296438
10
-17.187241
20
3.239861
10
-17.209067
20
3.185263
10
-17.232294
20
3.132644
10
-17.256924
20
3.082003
10
-17.282955
20
3.033341
10
-17.310388
20
2.986658
10
-17.339223
20
2.941953
10
-17.369460
20
2.899227
10
-17.401099
20
2.858480
10
-17.434140
20
2.819711
10
-17.468583
20
2.782921
10
-17.504427
20
2.748110
10
-17.541674
20
2.715278
10
-17.580322
20
2.684424
10
-17.620333
20
2.655493
10
-17.661665
20
2.628428
10
-17.704318
20
2.603230
10
-17.748294
20
2.579898
10
-17.793591
20
2.558433
10
-17.840211
20
2.538834
10
-17.888152
20
2.521102
10
-17.937415
20
2.505237
10
-17.987999
20
2.491238
10
-18.039906
20
2.479105
10
-18.093134
20
2.468839
10
-18.147684
20
2.460440
10
-18.203555
20
2.453907
10
-18.260749
20
2.449241
10
-18.319264
20
2.446441
10
-18.379102
20
2.445508
10
-18.453122
20
2.447106
10
-18.525476
20
2.451900
10
-18.596164
20
2.459891
10
-18.665186
20
2.471078
10
-18.732541
20
2.485462
10
-18.798230
20
2.503042
10
-18.862253
20
2.523818
10
-18.924609
20
2.547791
10
-18.985300
20
2.574959
10
-19.044324
20
2.605325
10
-19.101682
20
2.638886
10
-19.157373
20
2.675644
10
-19.211398
20
2.715598
10
-19.263757
20
2.758749
10
-19.314450
20
2.805095
10
-19.363477
20
2.854639
10
-19.410164
20
2.906954
10
-19.453839
20
2.961616
10
-19.494502
20
3.018625
10
-19.532153
20
3.077982
10
-19.566792
20
3.139685
10
-19.598419
20
3.203736
10
-19.627034
20
3.270134
10
-19.652637
20
3.338879
10
-19.675227
20
3.409972
10
-19.694806
20
3.483411
10
-19.711372
20
3.559198
10
-19.724927
20
3.637332
10
-19.735469
20
3.717813
10
-19.742999
20
3.800642
10
-19.747517
20
3.885817
10
-19.749023
20
3.973340
10
-19.747509
20
4.065853
10
-19.742967
20
4.155747
10
-19.735397
20
4.243022
10
-19.724799
20
4.327676
10
-19.711172
20
4.409712
10
-19.694518
20
4.489127
10
-19.674835
20
4.565924
10
-19.652124
20
4.640100
10
-19.626385
20
4.711657
10
-19.597618
20
4.780595
10
-19.565823
20
4.846913
10
-19.531000
20
4.910611
10
-19.493148
20
4.971690
10
-19.452269
20
5.030149
10
-19.408361
20
5.085989
10
-19.361426
20
5.139209
10
-19.312023
20
5.189497
10
-19.260713
20
5.236541
10
-19.207497
20
5.280340
10
-19.152374
20
5.320895
10
-19.095345
20
5.358206
10
-19.036409
20
5.392272
10
-18.975566
20
5.423094
10
-18.912817
20
5.450671
10
-18.848162
20
5.475004
10
-18.781599
20
5.496093
10
-18.713131
20
5.513937
10
-18.642755
20
5.528537
10
-18.570473
20
5.539892
10
-18.496284
20
5.548003
10
-18.420189
20
5.552870
10
-18.342188
20
5.554492
10
-18.274039
20
5.553218
10
-18.207509
20
5.549397
10
-18.142597
20
5.543029
10
-18.079303
20
5.534113
10
-18.017627
20
5.522649
10
-17.957570
20
5.508638
10
-17.899131
20
5.492080
10
-17.842310
20
5.472974
10
-17.787107
20
5.451320
10
-17.733522
20
5.427119
10
-17.681556
20
5.400371
10
-17.631207
20
5.371075
10
-17.582477
20
5.339232
10
-17.535365
20
5.304842
10
-17.489872
20
5.267904
10
-17.445996
20
5.228418
10
-17.420762
20
5.203664
10
-17.396329
20
5.177597
10
-17.372697
20
5.150216
10
-17.349866
20
5.121521
10
-17.327836
20
5.091512
10
-17.306607
20
5.060190
10
-17.286179
20
5.027554
10
-17.266553
20
4.993604
10
-17.247727
20
4.958340
10
-17.229703
20
4.921762
10
-17.212479
20
4.883871
10
-17.196057
20
4.844666
10
-17.180436
20
4.804147
10
-17.165616
20
4.762314
10
-17.151597
20
4.719167
10
-17.138379
20
4.674707
10
-17.739258
20
4.531152
10
-17.746375
20
4.559991
10
-17.754398
20
4.588062
10
-17.763326
20
4.615363
10
-17.773160
20
4.641895
10
-17.783898
20
4.667657
10
-17.795542
20
4.692651
10
-17.808091
20
4.716876
10
-17.821545
20
4.740332
10
-17.835905
20
4.763019
10
-17.851170
20
4.784937
10
-17.867340
20
4.806085
10
-17.884415
20
4.826465
10
-17.902395
20
4.846075
10
-17.921281
20
4.864917
10
-17.941072
20
4.882990
10
-17.961768
20
4.900293
10
-17.983201
20
4.916683
10
-18.005202
20
4.932016
10
-18.027773
20
4.946291
10
-18.050912
20
4.959509
10
-18.074621
20
4.971670
10
-18.098898
20
4.982773
10
-18.123743
20
4.992818
10
-18.149158
20
5.001807
10
-18.175141
20
5.009737
10
-18.201693
20
5.016611
10
-18.228814
20
5.022427
10
-18.256503
20
5.027185
10
-18.284762
20
5.030886
10
-18.313589
20
5.033530
10
-18.342985
20
5.035116
10
-18.372949
20
5.035645
10
-18.414241
20
5.034707
10
-18.454548
20
5.031895
10
-18.493869
20
5.027209
10
-18.532205
20
5.020648
10
-18.569556
20
5.012213
10
-18.605921
20
5.001903
10
-18.641301
20
4.989718
10
-18.675696
20
4.975659
10
-18.709105
20
4.959726
10
-18.741529
20
4.941917
10
-18.772968
20
4.922235
10
-18.803421
20
4.900677
10
-18.832889
20
4.877246
10
-18.861372
20
4.851939
10
-18.888869
20
4.824759
10
-18.915381
20
4.795703
10
-18.940587
20
4.764549
10
-18.964167
20
4.731071
10
-18.986121
20
4.695271
10
-19.006448
20
4.657147
10
-19.025150
20
4.616700
10
-19.042225
20
4.573930
10
-19.057674
20
4.528837
10
-19.071497
20
4.481421
10
-19.083693
20
4.431681
10
-19.094263
20
4.379619
10
-19.103208
20
4.325233
10
-19.110526
20
4.268524
10
-19.116217
20
4.209492
10
-19.120283
20
4.148137
10
-19.122722
20
4.084459
10
-19.123535
20
4.018457
10
-19.122734
20
3.948474
10
-19.120331
20
3.881055
10
-19.116325
20
3.816199
10
-19.110718
20
3.753906
10
-19.103508
20
3.694177
10
-19.094696
20
3.637012
10
-19.084282
20
3.582410
10
-19.072266
20
3.530371
10
-19.058647
20
3.480896
10
-19.043427
20
3.433984
10
-19.026604
20
3.389636
10
-19.008179
20
3.347852
10
-18.988152
20
3.308630
10
-18.966522
20
3.271973
10
-18.943291
20
3.237878
10
-18.918457
20
3.206348
10
-18.892342
20
3.177044
10
-18.865265
20
3.149631
10
-18.837227
20
3.124108
10
-18.808228
20
3.100476
10
-18.778267
20
3.078735
10
-18.747345
20
3.058884
10
-18.715462
20
3.040923
10
-18.682617
20
3.024854
10
-18.648811
20
3.010674
10
-18.614044
20
2.998386
10
-18.578316
20
2.987988
10
-18.541626
20
2.979480
10
-18.503975
20
2.972863
10
-18.465363
20
2.968137
10
-18.425789
20
2.965301
10
-18.385254
20
2.964355
10
-18.355269
20
2.964956
10
-18.325813
20
2.966759
10
-18.296886
20
2.969763
10
-18.268488
20
2.973969
10
-18.240618
20
2.979376
10
-18.213277
20
2.985985
10
-18.186464
20
2.993795
10
-18.160181
20
3.002808
10
-18.134426
20
3.013021
10
-18.109200
20
3.024437
10
-18.084502
20
3.037054
10
-18.060333
20
3.050873
10
-18.036693
20
3.065893
10
-18.013582
20
3.082115
10
-17.990999
20
3.099539
10
-17.968945
20
3.118164
10
-17.947540
20
3.138079
10
-17.926904
20
3.159372
10
-17.907037
20
3.182043
10
-17.887939
20
3.206091
10
-17.869611
20
3.231518
10
-17.852051
20
3.258322
10
-17.835260
20
3.286504
10
-17.819238
20
3.316064
10
-17.803986
20
3.347002
10
-17.789502
20
3.379318
10
-17.775787
20
3.413012
10
-17.762842
20
3.448083
10
-17.750665
20
3.484533
10
-17.739258
20
3.522360
10
-17.728619
20
3.561565
0
LWPOLYLINE
100
AcDbEntity
8
LASER_MARK
100
AcDbPolyline
90
160
70
1
10
-16.732324
20
3.981543
10
-16.731787
20
4.038388
10
-16.730177
20
4.094080
10
-16.727494
20
4.148618
10
-16.723737
20
4.202002
10
-16.718906
20
4.254233
10
-16.713002
20
4.305310
10
-16.706025
20
4.355234
10
-16.697974
20
4.404004
10
-16.688849
20
4.451620
10
-16.678651
20
4.498083
10
-16.667380
20
4.543393
10
-16.655035
20
4.587549
10
-16.641617
20
4.630551
10
-16.627126
20
4.672400
10
-16.611560
20
4.713095
10
-16.594922
20
4.752637
10
-16.581812
20
4.781163
10
-16.568118
20
4.809322
10
-16.553838
20
4.837111
10
-16.538974
20
4.864532
10
-16.523525
20
4.891585
10
-16.507491
20
4.918269
10
-16.490873
20
4.944585
10
-16.473669
20
4.970532
10
-16.455881
20
4.996111
10
-16.437508
20
5.021321
10
-16.418551
20
5.046163
10
-16.399008
20
5.070636
10
-16.378881
20
5.094741
10
-16.358169
20
5.118477
10
-16.336872
20
5.141845
10
-16.314990
20
5.164844
10
-16.292684
20
5.187290
10
-16.270113
20
5.209000
10
-16.247278
20
5.229972
10
-16.224179
20
5.250208
10
-16.200815
20
5.269706
10
-16.177187
20
5.288467
10
-16.153295
20
5.306492
10
-16.129138
20
5.323779
10
-16.104717
20
5.340330
10
-16.080032
20
5.356143
10
-16.055082
20
5.371220
10
-16.029868
20
5.385559
10
-16.004389
20
5.399162
10
-15.978646
20
5.412027
10
-15.952639
20
5.424155
10
-15.926367
20
5.435547
10
-15.890911
20
5.449950
10
-15.854782
20
5.463425
10
-15.817980
20
5.475970
10
-15.780505
20
5.487585
10
-15.742358
20
5.498272
10
-15.703537
20
5.508029
10
-15.664043
20
5.516857
10
-15.623877
20
5.524756
10
-15.583038
20
5.531725
10
-15.541525
20
5.537766
10
-15.499340
20
5.542876
10
-15.456482
20
5.547058
10
-15.412951
20
5.550311
10
-15.368747
20
5.552634
10
-15.323870
20
5.554028
10
-15.278320
20
5.554492
10
-15.196301
20
5.552882
10
-15.116357
20
5.548051
10
-15.038487
20
5.540001
10
-14.962692
20
5.528729
10
-14.888972
20
5.514238
10
-14.817327
20
5.496526
10
-14.747757
20
5.475593
10
-14.680261
20
5.451440
10
-14.614841
20
5.424067
10
-14.551495
20
5.393474
10
-14.490224
20
5.359660
10
-14.431027
20
5.322626
10
-14.373906
20
5.282371
10
-14.318859
20
5.238896
10
-14.265887
20
5.192201
10
-14.214990
20
5.142285
10
-14.166689
20
5.089502
10
-14.121503
20
5.034203
10
-14.079434
20
4.976388
10
-14.040482
20
4.916058
10
-14.004645
20
4.853213
10
-13.971925
20
4.787852
10
-13.942320
20
4.719976
10
-13.915833
20
4.649585
10
-13.892461
20
4.576678
10
-13.872205
20
4.501256
10
-13.855066
20
4.423318
10
-13.841043
20
4.342865
10
-13.830136
20
4.259896
10
-13.822346
20
4.174413
10
-13.817671
20
4.086413
10
-13.816113
20
3.995898
10
-13.817659
20
3.906133
10
-13.822298
20
3.818842
10
-13.830028
20
3.734027
10
-13.840851
20
3.651688
10
-13.854766
20
3.571823
10
-13.871773
20
3.494434
10
-13.891872
20
3.419521
10
-13.915063
20
3.347083
10
-13.941347
20
3.277120
10
-13.970723
20
3.209632
10
-14.003191
20
3.144620
10
-14.038751
20
3.082083
10
-14.077404
20
3.022022
10
-14.119148
20
2.964436
10
-14.163985
20
2.909325
10
-14.211914
20
2.856689
10
-14.262431
20
2.806898
10
-14.315030
20
2.760319
10
-14.369712
20
2.716952
10
-14.426477
20
2.676797
10
-14.485325
20
2.639855
10
-14.546255
20
2.606126
10
-14.609269
20
2.575608
10
-14.674365
20
2.548303
10
-14.741544
20
2.524211
10
-14.810806
20
2.503330
10
-14.882151
20
2.485662
10
-14.955579
20
2.471207
10
-15.031089
20
2.459963
10
-15.108682
20
2.451933
10
-15.188358
20
2.447114
10
-15.270117
20
2.445508
10
-15.352869
20
2.447106
10
-15.433475
20
2.451900
10
-15.511933
20
2.459891
10
-15.588245
20
2.471078
10
-15.662409
20
2.485462
10
-15.734427
20
2.503042
10
-15.804298
20
2.523818
10
-15.872021
20
2.547791
10
-15.937598
20
2.574959
10
-16.001028
20
2.605325
10
-16.062312
20
2.638886
10
-16.121448
20
2.675644
10
-16.178437
20
2.715598
10
-16.233279
20
2.758749
10
-16.285975
20
2.805095
10
-16.336523
20
2.854639
10
-16.384452
20
2.906986
10
-16.429289
20
2.961744
10
-16.471034
20
3.018913
10
-16.509686
20
3.078494
10
-16.545247
20
3.140486
10
-16.577715
20
3.204890
10
-16.607090
20
3.271704
10
-16.633374
20
3.340930
10
-16.656565
20
3.412567
10
-16.676665
20
3.486616
10
-16.693672
20
3.563075
10
-16.707587
20
3.641946
10
-16.718409
20
3.723229
10
-16.726140
20
3.806922
10
-16.730778
20
3.893027
0
LWPOLYLINE
100
AcDbEntity
8
LASER_MARK
100
AcDbPolyline
90
128
70
1
10
-16.106836
20
4.002051
10
-16.105915
20
3.939186
10
-16.103151
20
3.878251
10
-16.098545
20
3.819247
10
-16.092096
20
3.762173
10
-16.083805
20
3.707031
10
-16.073671
20
3.653819
10
-16.061695
20
3.602537
10
-16.047876
20
3.553186
10
-16.032215
20
3.505766
10
-16.014711
20
3.460276
10
-15.995365
20
3.416717
10
-15.974176
20
3.375089
10
-15.951145
20
3.335391
10
-15.926271
20
3.297623
10
-15.899555
20
3.261787
10
-15.870996
20
3.227881
10
-15.841019
20
3.195970
10
-15.810049
20
3.166117
10
-15.778086
20
3.138323
10
-15.745129
20
3.112589
10
-15.711179
20
3.088912
10
-15.676236
20
3.067295
10
-15.640299
20
3.047737
10
-15.603369
20
3.030237
10
-15.565446
20
3.014796
10
-15.526529
20
3.001414
10
-15.486619
20
2.990090
10
-15.445715
20
2.980826
10
-15.403819
20
2.973620
10
-15.360928
20
2.968473
10
-15.317045
20
2.965385
10
-15.272168
20
2.964355
10
-15.227303
20
2.965377
10
-15.183456
20
2.968441
10
-15.140626
20
2.973548
10
-15.098813
20
2.980698
10
-15.058018
20
2.989890
10
-15.018240
20
3.001125
10
-14.979479
20
3.014403
10
-14.941736
20
3.029724
10
-14.905010
20
3.047088
10
-14.869302
20
3.066494
10
-14.834611
20
3.087943
10
-14.800937
20
3.111435
10
-14.768281
20
3.136970
10
-14.736642
20
3.164547
10
-14.706020
20
3.194167
10
-14.676416
20
3.225830
10
-14.648230
20
3.259536
10
-14.621862
20
3.295284
10
-14.597313
20
3.333076
10
-14.574582
20
3.372910
10
-14.553670
20
3.414786
10
-14.534576
20
3.458706
10
-14.517300
20
3.504668
10
-14.501843
20
3.552673
10
-14.488205
20
3.602721
10
-14.476385
20
3.654812
10
-14.466383
20
3.708945
10
-14.458200
20
3.765121
10
-14.451835
20
3.823340
10
-14.447289
20
3.883602
10
-14.444562
20
3.945907
10
-14.443652
20
4.010254
10
-14.444538
20
4.073828
10
-14.447193
20
4.135352
10
-14.451619
20
4.194824
10
-14.457816
20
4.252246
10
-14.465782
20
4.307617
10
-14.475520
20
4.360938
10
-14.487027
20
4.412207
10
-14.500305
20
4.461426
10
-14.515354
20
4.508594
10
-14.532172
20
4.553711
10
-14.550762
20
4.596777
10
-14.571121
20
4.637793
10
-14.593251
20
4.676758
10
-14.617152
20
4.713672
10
-14.642822
20
4.748535
10
-14.670264
20
4.781348
10
-14.699171
20
4.812141
10
-14.729240
20
4.840948
10
-14.760470
20
4.867769
10
-14.792862
20
4.892603
10
-14.826415
20
4.915450
10
-14.861131
20
4.936310
10
-14.897007
20
4.955183
10
-14.934045
20
4.972070
10
-14.972245
20
4.986971
10
-15.011607
20
4.999884
10
-15.052130
20
5.010811
10
-15.093814
20
5.019751
10
-15.136660
20
5.026704
10
-15.180668
20
5.031671
10
-15.225837
20
5.034651
10
-15.272168
20
5.035645
10
-15.318511
20
5.034639
10
-15.363716
20
5.031623
10
-15.407784
20
5.026596
10
-15.450714
20
5.019559
10
-15.492507
20
5.010510
10
-15.533162
20
4.999451
10
-15.572680
20
4.986382
10
-15.611060
20
4.971301
10
-15.648302
20
4.954210
10
-15.684407
20
4.935108
10
-15.719374
20
4.913996
10
-15.753204
20
4.890872
10
-15.785897
20
4.865738
10
-15.817451
20
4.838593
10
-15.847869
20
4.809438
10
-15.877148
20
4.778271
10
-15.904962
20
4.745078
10
-15.930981
20
4.709843
10
-15.955206
20
4.672564
10
-15.977637
20
4.633243
10
-15.998273
20
4.591879
10
-16.017114
20
4.548472
10
-16.034161
20
4.503022
10
-16.049414
20
4.455530
10
-16.062872
20
4.405995
10
-16.074536
20
4.354417
10
-16.084406
20
4.300796
10
-16.092480
20
4.245132
10
-16.098761
20
4.187426
10
-16.103247
20
4.127677
10
-16.105939
20
4.065885
0
LWPOLYLINE
100
AcDbEntity
8
LASER_MARK
100
AcDbPolyline
90
131
70
1
10
-13.344434
20
5.503223
10
-12.234961
20
5.503223
10
-12.188746
20
5.502998
10
-12.143925
20
5.502325
10
-12.100499
20
5.501204
10
-12.058466
20
5.499634
10
-12.017826
20
5.497615
10
-11.978581
20
5.495148
10
-11.940730
20
5.492232
10
-11.904272
20
5.488867
10
-11.869209
20
5.485054
10
-11.835539
20
5.480792
10
-11.803263
20
5.476082
10
-11.772382
20
5.470923
10
-11.742894
20
5.465315
10
-11.714799
20
5.459259
10
-11.688099
20
5.452754
10
-11.662793
20
5.445801
10
-11.630021
20
5.435587
10
-11.597841
20
5.424428
10
-11.566254
20
5.412323
10
-11.535260
20
5.399274
10
-11.504859
20
5.385279
10
-11.475050
20
5.370338
10
-11.445835
20
5.354453
10
-11.417212
20
5.337622
10
-11.389182
20
5.319846
10
-11.361745
20
5.301125
10
-11.334900
20
5.281458
10
-11.308649
20
5.260846
10
-11.282990
20
5.239289
10
-11.257924
20
5.216786
10
-11.233451
20
5.193338
10
-11.209570
20
5.168945
10
-11.186339
20
5.143731
10
-11.163812
20
5.117820
10
-11.141991
20
5.091212
10
-11.120874
20
5.063907
10
-11.100462
20
5.035905
10
-11.080756
20
5.007206
10
-11.061754
20
4.977810
10
-11.043457
20
4.947717
10
-11.025865
20
4.916928
10
-11.008978
20
4.885441
10
-10.992796
20
4.853257
10
-10.977319
20
4.820377
10
-10.962547
20
4.786799
10
-10.948480
20
4.752525
10
-10.935118
20
4.717553
10
-10.922461
20
4.681885
10
-10.910541
20
4.645343
10
-10.899390
20
4.607752
10
-10.889008
20
4.569112
10
-10.879395
20
4.529422
10
-10.870551
20
4.488683
10
-10.862476
20
4.446894
10
-10.855170
20
4.404056
10
-10.848633
20
4.360168
10
-10.842865
20
4.315232
10
-10.837866
20
4.269245
10
-10.833636
20
4.222209
10
-10.830176
20
4.174124
10
-10.827484
20
4.124990
10
-10.825562
20
4.074805
10
-10.824408
20
4.023572
10
-10.824023
20
3.971289
10
-10.824384
20
3.925291
10
-10.825465
20
3.880093
10
-10.827268
20
3.835697
10
-10.829791
20
3.792102
10
-10.833036
20
3.749308
10
-10.837001
20
3.707315
10
-10.841687
20
3.666123
10
-10.847095
20
3.625732
10
-10.853223
20
3.586143
10
-10.860072
20
3.547354
10
-10.867643
20
3.509367
10
-10.875934
20
3.472180
10
-10.884946
20
3.435795
10
-10.894679
20
3.400211
10
-10.905133
20
3.365427
10
-10.916309
20
3.331445
10
-10.930784
20
3.290918
10
-10.946013
20
3.251369
10
-10.961995
20
3.212796
10
-10.978729
20
3.175201
10
-10.996217
20
3.138584
10
-11.014458
20
3.102943
10
-11.033451
20
3.068280
10
-11.053198
20
3.034595
10
-11.073698
20
3.001886
10
-11.094951
20
2.970155
10
-11.116957
20
2.939402
10
-11.139716
20
2.909625
10
-11.163227
20
2.880826
10
-11.187492
20
2.853004
10
-11.212510
20
2.826160
10
-11.238281
20
2.800293
10
-11.258453
20
2.781331
10
-11.279489
20
2.762898
10
-11.301391
20
2.744994
10
-11.324158
20
2.727618
10
-11.347790
20
2.710772
10
-11.372287
20
2.694453
10
-11.397649
20
2.678664
10
-11.423877
20
2.663403
10
-11.450970
20
2.648671
10
-11.478928
20
2.634468
10
-11.507751
20
2.620794
10
-11.537439
20
2.607648
10
-11.567992
20
2.595031
10
-11.599411
20
2.582942
10
-11.631695
20
2.571383
10
-11.664844
20
2.560352
10
-11.690495
20
2.552653
10
-11.717203
20
2.545451
10
-11.744968
20
2.538746
10
-11.773792
20
2.532538
10
-11.803672
20
2.526826
10
-11.834610
20
2.521611
10
-11.866605
20
2.516893
10
-11.899658
20
2.512671
10
-11.933768
20
2.508946
10
-11.968936
20
2.505717
10
-12.005161
20
2.502986
10
-12.042444
20
2.500751
10
-12.080784
20
2.499012
10
-12.120181
20
2.497771
10
-12.160636
20
2.497026
10
-12.202148
20
2.496777
10
-13.344434
20
2.496777
0
LWPOLYLINE
100
AcDbEntity
8
LASER_MARK
100
AcDbPolyline
90
131
70
1
10
-12.737402
20
4.994629
10
-12.737402
20
3.003320
10
-12.284180
20
3.003320
10
-12.252945
20
3.003432
10
-12.222816
20
3.003769
10
-12.193793
20
3.004330
10
-12.165875
20
3.005115
10
-12.139063
20
3.006124
10
-12.113356
20
3.007358
10
-12.088755
20
3.008816
10
-12.065259
20
3.010498
10
-12.042868
20
3.012405
10
-12.021584
20
3.014536
10
-12.001404
20
3.016891
10
-11.982330
20
3.019470
10
-11.964362
20
3.022274
10
-11.947499
20
3.025302
10
-11.931742
20
3.028555
10
-11.917090
20
3.032031
10
-11.898829
20
3.036846
10
-11.880961
20
3.042061
10
-11.863485
20
3.047676
10
-11.846402
20
3.053693
10
-11.829711
20
3.060109
10
-11.813413
20
3.066927
10
-11.797508
20
3.074144
10
-11.781995
20
3.081763
10
-11.766874
20
3.089782
10
-11.752146
20
3.098201
10
-11.737811
20
3.107021
10
-11.723868
20
3.116241
10
-11.710317
20
3.125863
10
-11.697160
20
3.135884
10
-11.684394
20
3.146306
10
-11.672021
20
3.157129
10
-11.659985
20
3.168596
10
-11.648229
20
3.180953
10
-11.636754
20
3.194199
10
-11.625558
20
3.208334
10
-11.614644
20
3.223359
10
-11.604009
20
3.239272
10
-11.593655
20
3.256075
10
-11.583582
20
3.273767
10
-11.573788
20
3.292348
10
-11.564275
20
3.311819
10
-11.555043
20
3.332178
10
-11.546091
20
3.353427
10
-11.537419
20
3.375565
10
-11.529028
20
3.398592
10
-11.520917
20
3.422509
10
-11.513086
20
3.447314
10
-11.505636
20
3.473137
10
-11.498666
20
3.500106
10
-11.492178
20
3.528220
10
-11.486169
20
3.557480
10
-11.480642
20
3.587885
10
-11.475595
20
3.619436
10
-11.471029
20
3.652132
10
-11.466943
20
3.685974
10
-11.463338
20
3.720962
10
-11.460214
20
3.757095
10
-11.457571
20
3.794373
10
-11.455408
20
3.832797
10
-11.453725
20
3.872367
10
-11.452524
20
3.913082
10
-11.451803
20
3.954943
10
-11.451563
20
3.997949
10
-11.451803
20
4.040895
10
-11.452524
20
4.082576
10
-11.453725
20
4.122991
10
-11.455408
20
4.162140
10
-11.457571
20
4.200023
10
-11.460214
20
4.236641
10
-11.463338
20
4.271993
10
-11.466943
20
4.306079
10
-11.471029
20
4.338900
10
-11.475595
20
4.370454
10
-11.480642
20
4.400743
10
-11.486169
20
4.429767
10
-11.492178
20
4.457524
10
-11.498666
20
4.484016
10
-11.505636
20
4.509243
10
-11.513086
20
4.533203
10
-11.520969
20
4.556210
10
-11.529236
20
4.578577
10
-11.537888
20
4.600302
10
-11.546924
20
4.621387
10
-11.556345
20
4.641830
10
-11.566150
20
4.661633
10
-11.576340
20
4.680795
10
-11.586914
20
4.699316
10
-11.597873
20
4.717197
10
-11.609216
20
4.734436
10
-11.620944
20
4.751035
10
-11.633057
20
4.766992
10
-11.645554
20
4.782309
10
-11.658435
20
4.796985
10
-11.671701
20
4.811020
10
-11.685352
20
4.824414
10
-11.699427
20
4.837223
10
-11.713966
20
4.849504
10
-11.728971
20
4.861256
10
-11.744440
20
4.872479
10
-11.760373
20
4.883174
10
-11.776772
20
4.893340
10
-11.793634
20
4.902977
10
-11.810962
20
4.912085
10
-11.828754
20
4.920665
10
-11.847011
20
4.928716
10
-11.865732
20
4.936238
10
-11.884918
20
4.943231
10
-11.904569
20
4.949696
10
-11.924684
20
4.955632
10
-11.945264
20
4.961039
10
-11.966309
20
4.965918
10
-11.983155
20
4.969395
10
-12.001909
20
4.972647
10
-12.022569
20
4.975675
10
-12.045135
20
4.978479
10
-12.069609
20
4.981059
10
-12.095988
20
4.983414
10
-12.124275
20
4.985545
10
-12.154468
20
4.987451
10
-12.186567
20
4.989133
10
-12.220573
20
4.990591
10
-12.256486
20
4.991825
10
-12.294305
20
4.992834
10
-12.334031
20
4.993620
10
-12.375664
20
4.994180
10
-12.419203
20
4.994517
10
-12.464648
20
4.994629
0
LWPOLYLINE
100
AcDbEntity
8
LASER_MARK
100
AcDbPolyline
90
12
70
1
10
-10.309277
20
2.496777
10
-10.309277
20
5.503223
10
-8.080078
20
5.503223
10
-8.080078
20
4.994629
10
-9.702246
20
4.994629
10
-9.702246
20
4.328125
10
-8.192871
20
4.328125
10
-8.192871
20
3.821582
10
-9.702246
20
3.821582
10
-9.702246
20
3.003320
10
-8.022656
20
3.003320
10
-8.022656
20
2.496777
0
LWPOLYLINE
100
AcDbEntity
8
LASER_MARK
100
AcDbPolyline
90
12
70
1
10
-7.813477
20
2.496777
10
-6.786035
20
4.065625
10
-7.717090
20
5.503223
10
-7.007520
20
5.503223
10
-6.404590
20
4.537305
10
-5.813965
20
5.503223
10
-5.110547
20
5.503223
10
-6.045703
20
4.043066
10
-5.018262
20
2.496777
10
-5.750391
20
2.496777
10
-6.416895
20
3.536523
10
-7.085449
20
2.496777
0
LWPOLYLINE
100
AcDbEntity
8
LASER_MARK
100
AcDbPolyline
90
12
70
1
10
-3.531445
20
2.496777
10
-3.531445
20
5.503223
10
-2.924414
20
5.503223
10
-2.924414
20
4.168164
10
-1.698047
20
5.503223
10
-0.881836
20
5.503223
10
-2.013867
20
4.332227
10
-0.820312
20
2.496777
10
-1.605762
20
2.496777
10
-2.432227
20
3.907715
10
-2.924414
20
3.405273
10
-2.924414
20
2.496777
0
LWPOLYLINE
100
AcDbEntity
8
LASER_MARK
100
AcDbPolyline
90
12
70
1
10
-0.506543
20
2.496777
10
-0.506543
20
5.503223
10
1.722656
20
5.503223
10
1.722656
20
4.994629
10
0.100488
20
4.994629
10
0.100488
20
4.328125
10
1.609863
20
4.328125
10
1.609863
20
3.821582
10
0.100488
20
3.821582
10
0.100488
20
3.003320
10
1.780078
20
3.003320
10
1.780078
20
2.496777
0
LWPOLYLINE
100
AcDbEntity
8
LASER_MARK
100
AcDbPolyline
90
9
70
1
10
3.084375
20
2.496777
10
3.084375
20
3.762109
10
1.983105
20
5.503223
10
2.694727
20
5.503223
10
3.402246
20
4.313770
10
4.095410
20
5.503223
10
4.794727
20
5.503223
10
3.689355
20
3.758008
10
3.689355
20
2.496777
0
LWPOLYLINE
100
AcDbEntity
8
LASER_MARK
100
AcDbPolyline
90
195
70
1
10
5.098242
20
5.503223
10
6.300000
20
5.503223
10
6.343896
20
5.503106
10
6.386373
20
5.502758
10
6.427433
20
5.502177
10
6.467075
20
5.501364
10
6.505298
20
5.500319
10
6.542104
20
5.499041
10
6.577492
20
5.497531
10
6.611462
20
5.495789
10
6.644015
20
5.493814
10
6.675149
20
5.491607
10
6.704865
20
5.489168
10
6.733163
20
5.486496
10
6.760044
20
5.483592
10
6.785506
20
5.480456
10
6.809551
20
5.477087
10
6.832178
20
5.473486
10
6.853951
20
5.469517
10
6.875436
20
5.465043
10
6.896633
20
5.460064
10
6.917542
20
5.454581
10
6.938161
20
5.448593
10
6.958493
20
5.442100
10
6.978536
20
5.435102
10
6.998291
20
5.427600
10
7.017757
20
5.419593
10
7.036935
20
5.411082
10
7.055825
20
5.402065
10
7.074426
20
5.392545
10
7.092739
20
5.382519
10
7.110764
20
5.371989
10
7.128500
20
5.360954
10
7.145947
20
5.349414
10
7.163070
20
5.337378
10
7.179833
20
5.324853
10
7.196235
20
5.311839
10
7.212277
20
5.298337
10
7.227958
20
5.284346
10
7.243279
20
5.269866
10
7.258240
20
5.254898
10
7.272839
20
5.239441
10
7.287079
20
5.223495
10
7.300957
20
5.207061
10
7.314476
20
5.190138
10
7.327634
20
5.172726
10
7.340431
20
5.154826
10
7.352868
20
5.136437
10
7.364944
20
5.117560
10
7.376660
20
5.098193
10
7.387835
20
5.078435
10
7.398289
20
5.058379
10
7.408023
20
5.038028
10
7.417035
20
5.017380
10
7.425326
20
4.996435
10
7.432896
20
4.975195
10
7.439746
20
4.953657
10
7.445874
20
4.931824
10
7.451281
20
4.909694
10
7.455968
20
4.887267
10
7.459933
20
4.864544
10
7.463177
20
4.841525
10
7.465701
20
4.818210
10
7.467503
20
4.794598
10
7.468585
20
4.770689
10
7.468945
20
4.746484
10
7.468501
20
4.720217
10
7.467167
20
4.694221
10
7.464944
20
4.668499
10
7.461832
20
4.643048
10
7.457830
20
4.617870
10
7.452940
20
4.592964
10
7.447160
20
4.568331
10
7.440491
20
4.543970
10
7.432932
20
4.519881
10
7.424485
20
4.496065
10
7.415148
20
4.472521
10
7.404922
20
4.449249
10
7.393807
20
4.426250
10
7.381803
20
4.403523
10
7.368910
20
4.381069
10
7.355127
20
4.358887
10
7.340583
20
4.337185
10
7.325407
20
4.316173
10
7.309597
20
4.295849
10
7.293155
20
4.276215
10
7.276080
20
4.257269
10
7.258372
20
4.239012
10
7.240031
20
4.221444
10
7.221057
20
4.204565
10
7.201451
20
4.188375
10
7.181211
20
4.172874
10
7.160339
20
4.158062
10
7.138834
20
4.143939
10
7.116696
20
4.130505
10
7.093925
20
4.117760
10
7.070521
20
4.105703
10
7.046484
20
4.094336
10
7.080338
20
4.083898
10
7.113199
20
4.072578
10
7.145066
20
4.060378
10
7.175940
20
4.047296
10
7.205820
20
4.033333
10
7.234708
20
4.018489
10
7.262601
20
4.002764
10
7.289502
20
3.986157
10
7.315409
20
3.968670
10
7.340323
20
3.950301
10
7.364243
20
3.931050
10
7.387170
20
3.910919
10
7.409104
20
3.889907
10
7.430045
20
3.868013
10
7.449992
20
3.845238
10
7.468945
20
3.821582
10
7.486826
20
3.797221
10
7.503552
20
3.772331
10
7.519125
20
3.746913
10
7.533545
20
3.720966
10
7.546811
20
3.694490
10
7.558923
20
3.667485
10
7.569882
20
3.639952
10
7.579688
20
3.611890
10
7.588339
20
3.583299
10
7.595837
20
3.554179
10
7.602182
20
3.524531
10
7.607373
20
3.494354
10
7.611411
20
3.463649
10
7.614294
20
3.432414
10
7.616025
20
3.400651
10
7.616602
20
3.368359
10
7.616229
20
3.342769
10
7.615112
20
3.317266
10
7.613249
20
3.291852
10
7.610641
20
3.266525
10
7.607289
20
3.241287
10
7.603191
20
3.216137
10
7.598349
20
3.191075
10
7.592761
20
3.166101
10
7.586429
20
3.141215
10
7.579351
20
3.116418
10
7.571528
20
3.091708
10
7.562961
20
3.067087
10
7.553648
20
3.042554
10
7.543591
20
3.018108
10
7.532788
20
2.993751
10
7.521240
20
2.969482
10
7.509048
20
2.945562
10
7.496310
20
2.922250
10
7.483028
20
2.899548
10
7.469202
20
2.877454
10
7.454830
20
2.855968
10
7.439914
20
2.835092
10
7.424453
20
2.814825
10
7.408447
20
2.795166
10
7.391897
20
2.776116
10
7.374802
20
2.757675
10
7.357162
20
2.739843
10
7.338977
20
2.722620
10
7.320248
20
2.706005
10
7.300974
20
2.689999
10
7.281155
20
2.674603
10
7.260791
20
2.659814
10
7.239855
20
2.645679
10
7.218317
20
2.632241
10
7.196179
20
2.619500
10
7.173441
20
2.607455
10
7.150101
20
2.596108
10
7.126160
20
2.585458
10
7.101619
20
2.575504
10
7.076477
20
2.566248
10
7.050734
20
2.557688
10
7.024390
20
2.549825
10
6.997446
20
2.542660
10
6.969901
20
2.536191
10
6.941754
20
2.530419
10
6.913007
20
2.525344
10
6.883660
20
2.520966
10
6.853711
20
2.517285
10
6.833067
20
2.515282
10
6.809074
20
2.513376
10
6.781733
20
2.511565
10
6.751044
20
2.509851
10
6.717006
20
2.508233
10
6.679619
20
2.506711
10
6.638884
20
2.505285
10
6.594800
20
2.503955
10
6.547367
20
2.502721
10
6.496587
20
2.501584
10
6.442457
20
2.500542
10
6.384979
20
2.499597
10
6.324153
20
2.498748
10
6.259978
20
2.497995
10
6.192454
20
2.497338
10
6.121582
20
2.496777
10
5.098242
20
2.496777
0
LWPOLYLINE
100
AcDbEntity
8
LASER_MARK
100
AcDbPolyline
90
99
70
1
10
5.705273
20
5.002832
10
5.705273
20
4.307617
10
6.103125
20
4.307617
10
6.146424
20
4.307657
10
6.187624
20
4.307777
10
6.226725
20
4.307978
10
6.263727
20
4.308258
10
6.298630
20
4.308619
10
6.331435
20
4.309059
10
6.362140
20
4.309580
10
6.390747
20
4.310181
10
6.417255
20
4.310862
10
6.441664
20
4.311623
10
6.463974
20
4.312464
10
6.484186
20
4.313385
10
6.502298
20
4.314386
10
6.518312
20
4.315468
10
6.532227
20
4.316629
10
6.544043
20
4.317871
10
6.563265
20
4.320455
10
6.581966
20
4.323591
10
6.600147
20
4.327280
10
6.617807
20
4.331522
10
6.634946
20
4.336316
10
6.651565
20
4.341663
10
6.667663
20
4.347563
10
6.683240
20
4.354016
10
6.698296
20
4.361022
10
6.712832
20
4.368580
10
6.726847
20
4.376691
10
6.740341
20
4.385355
10
6.753315
20
4.394571
10
6.765768
20
4.404340
10
6.777700
20
4.414662
10
6.789111
20
4.425537
10
6.799914
20
4.436909
10
6.810020
20
4.448721
10
6.819428
20
4.460973
10
6.828140
20
4.473666
10
6.836155
20
4.486800
10
6.843473
20
4.500375
10
6.850094
20
4.514390
10
6.856018
20
4.528845
10
6.861245
20
4.543741
10
6.865775
20
4.559078
10
6.869608
20
4.574856
10
6.872745
20
4.591074
10
6.875184
20
4.607732
10
6.876926
20
4.624831
10
6.877972
20
4.642371
10
6.878320
20
4.660352
10
6.878020
20
4.677579
10
6.877119
20
4.694398
10
6.875617
20
4.710808
10
6.873514
20
4.726810
10
6.870810
20
4.742403
10
6.867506
20
4.757587
10
6.863600
20
4.772363
10
6.859094
20
4.786731
10
6.853987
20
4.800690
10
6.848280
20
4.814240
10
6.841971
20
4.827382
10
6.835062
20
4.840115
10
6.827551
20
4.852440
10
6.819440
20
4.864356
10
6.810729
20
4.875864
10
6.801416
20
4.886963
10
6.791511
20
4.897589
10
6.781020
20
4.907679
10
6.769945
20
4.917232
10
6.758286
20
4.926248
10
6.746041
20
4.934728
10
6.733212
20
4.942670
10
6.719797
20
4.950076
10
6.705798
20
4.956946
10
6.691215
20
4.963278
10
6.676046
20
4.969074
10
6.660293
20
4.974333
10
6.643954
20
4.979056
10
6.627032
20
4.983241
10
6.609524
20
4.986890
10
6.591431
20
4.990003
10
6.572754
20
4.992578
10
6.560153
20
4.993820
10
6.544908
20
4.994981
10
6.527020
20
4.996063
10
6.506488
20
4.997064
10
6.483313
20
4.997985
10
6.457494
20
4.998827
10
6.429031
20
4.999588
10
6.397925
20
5.000269
10
6.364175
20
5.000869
10
6.327782
20
5.001390
10
6.288745
20
5.001831
10
6.247064
20
5.002191
10
6.202740
20
5.002472
10
6.155772
20
5.002672
10
6.106161
20
5.002792
10
6.053906
20
5.002832
0
LWPOLYLINE
100
AcDbEntity
8
LASER_MARK
100
AcDbPolyline
90
99
70
1
10
5.705273
20
3.807227
10
5.705273
20
3.003320
10
6.267188
20
3.003320
10
6.307266
20
3.003392
10
6.345470
20
3.003609
10
6.381799
20
3.003969
10
6.416254
20
3.004474
10
6.448834
20
3.005123
10
6.479539
20
3.005916
10
6.508371
20
3.006853
10
6.535327
20
3.007935
10
6.560409
20
3.009160
10
6.583617
20
3.010530
10
6.604950
20
3.012044
10
6.624408
20
3.013702
10
6.641992
20
3.015505
10
6.657701
20
3.017451
10
6.671536
20
3.019542
10
6.683496
20
3.021777
10
6.700219
20
3.025130
10
6.716549
20
3.029035
10
6.732487
20
3.033493
10
6.748032
20
3.038504
10
6.763184
20
3.044068
10
6.777944
20
3.050184
10
6.792312
20
3.056853
10
6.806287
20
3.064075
10
6.819869
20
3.071849
10
6.833059
20
3.080177
10
6.845856
20
3.089057
10
6.858261
20
3.098489
10
6.870273
20
3.108475
10
6.881893
20
3.119013
10
6.893120
20
3.130104
10
6.903955
20
3.141748
10
6.914261
20
3.153921
10
6.923902
20
3.166598
10
6.932878
20
3.179780
10
6.941190
20
3.193466
10
6.948836
20
3.207657
10
6.955817
20
3.222353
10
6.962134
20
3.237554
10
6.967786
20
3.253259
10
6.972772
20
3.269469
10
6.977094
20
3.286184
10
6.980751
20
3.303403
10
6.983743
20
3.321127
10
6.986070
20
3.339356
10
6.987733
20
3.358089
10
6.988730
20
3.377328
10
6.989063
20
3.397070
10
6.988806
20
3.413829
10
6.988037
20
3.430267
10
6.986755
20
3.446385
10
6.984961
20
3.462183
10
6.982654
20
3.477660
10
6.979834
20
3.492816
10
6.976501
20
3.507652
10
6.972656
20
3.522168
10
6.968298
20
3.536363
10
6.963428
20
3.550238
10
6.958044
20
3.563792
10
6.952148
20
3.577026
10
6.945740
20
3.589940
10
6.938818
20
3.602533
10
6.931384
20
3.614806
10
6.923438
20
3.626758
10
6.915006
20
3.638350
10
6.906118
20
3.649541
10
6.896773
20
3.660331
10
6.886972
20
3.670721
10
6.876714
20
3.680711
10
6.866000
20
3.690300
10
6.854828
20
3.699488
10
6.843201
20
3.708276
10
6.831116
20
3.716664
10
6.818575
20
3.724651
10
6.805578
20
3.732237
10
6.792123
20
3.739423
10
6.778213
20
3.746208
10
6.763845
20
3.752592
10
6.749021
20
3.758577
10
6.733740
20
3.764160
10
6.717098
20
3.769375
10
6.698188
20
3.774254
10
6.677011
20
3.778796
10
6.653568
20
3.783002
10
6.627857
20
3.786871
10
6.599879
20
3.790404
10
6.569634
20
3.793600
10
6.537122
20
3.796460
10
6.502342
20
3.798983
10
6.465296
20
3.801170
10
6.425983
20
3.803021
10
6.384402
20
3.804535
10
6.340555
20
3.805713
10
6.294440
20
3.806554
10
6.246059
20
3.807058
10
6.195410
20
3.807227
0
LWPOLYLINE
100
AcDbEntity
8
LASER_MARK
100
AcDbPolyline
90
160
70
1
10
8.006250
20
3.981543
10
8.006787
20
4.038388
10
8.008397
20
4.094080
10
8.011081
20
4.148618
10
8.014838
20
4.202002
10
8.019668
20
4.254233
10
8.025572
20
4.305310
10
8.032550
20
4.355234
10
8.040601
20
4.404004
10
8.049725
20
4.451620
10
8.059923
20
4.498083
10
8.071194
20
4.543393
10
8.083539
20
4.587549
10
8.096957
20
4.630551
10
8.111449
20
4.672400
10
8.127014
20
4.713095
10
8.143652
20
4.752637
10
8.156762
20
4.781163
10
8.170457
20
4.809322
10
8.184736
20
4.837111
10
8.199600
20
4.864532
10
8.215049
20
4.891585
10
8.231083
20
4.918269
10
8.247701
20
4.944585
10
8.264905
20
4.970532
10
8.282693
20
4.996111
10
8.301066
20
5.021321
10
8.320024
20
5.046163
10
8.339566
20
5.070636
10
8.359693
20
5.094741
10
8.380405
20
5.118477
10
8.401702
20
5.141845
10
8.423584
20
5.164844
10
8.445890
20
5.187290
10
8.468461
20
5.209000
10
8.491296
20
5.229972
10
8.514395
20
5.250208
10
8.537759
20
5.269706
10
8.561387
20
5.288467
10
8.585279
20
5.306492
10
8.609436
20
5.323779
10
8.633857
20
5.340330
10
8.658543
20
5.356143
10
8.683492
20
5.371220
10
8.708707
20
5.385559
10
8.734185
20
5.399162
10
8.759928
20
5.412027
10
8.785935
20
5.424155
10
8.812207
20
5.435547
10
8.847663
20
5.449950
10
8.883792
20
5.463425
10
8.920594
20
5.475970
10
8.958069
20
5.487585
10
8.996217
20
5.498272
10
9.035037
20
5.508029
10
9.074531
20
5.516857
10
9.114697
20
5.524756
10
9.155537
20
5.531725
10
9.197049
20
5.537766
10
9.239234
20
5.542876
10
9.282092
20
5.547058
10
9.325623
20
5.550311
10
9.369827
20
5.552634
10
9.414704
20
5.554028
10
9.460254
20
5.554492
10
9.542273
20
5.552882
10
9.622218
20
5.548051
10
9.700087
20
5.540001
10
9.775882
20
5.528729
10
9.849602
20
5.514238
10
9.921247
20
5.496526
10
9.990817
20
5.475593
10
10.058313
20
5.451440
10
10.123734
20
5.424067
10
10.187080
20
5.393474
10
10.248351
20
5.359660
10
10.307547
20
5.322626
10
10.364668
20
5.282371
10
10.419715
20
5.238896
10
10.472687
20
5.192201
10
10.523584
20
5.142285
10
10.571885
20
5.089502
10
10.617071
20
5.034203
10
10.659140
20
4.976388
10
10.698093
20
4.916058
10
10.733929
20
4.853213
10
10.766650
20
4.787852
10
10.796254
20
4.719976
10
10.822742
20
4.649585
10
10.846113
20
4.576678
10
10.866369
20
4.501256
10
10.883508
20
4.423318
10
10.897531
20
4.342865
10
10.908438
20
4.259896
10
10.916228
20
4.174413
10
10.920903
20
4.086413
10
10.922461
20
3.995898
10
10.920915
20
3.906133
10
10.916277
20
3.818842
10
10.908546
20
3.734027
10
10.897723
20
3.651688
10
10.883809
20
3.571823
10
10.866801
20
3.494434
10
10.846702
20
3.419521
10
10.823511
20
3.347083
10
10.797227
20
3.277120
10
10.767851
20
3.209632
10
10.735383
20
3.144620
10
10.699823
20
3.082083
10
10.661171
20
3.022022
10
10.619426
20
2.964436
10
10.574589
20
2.909325
10
10.526660
20
2.856689
10
10.476144
20
2.806898
10
10.423544
20
2.760319
10
10.368862
20
2.716952
10
10.312097
20
2.676797
10
10.253249
20
2.639855
10
10.192319
20
2.606126
10
10.129305
20
2.575608
10
10.064209
20
2.548303
10
9.997030
20
2.524211
10
9.927768
20
2.503330
10
9.856423
20
2.485662
10
9.782996
20
2.471207
10
9.707485
20
2.459963
10
9.629892
20
2.451933
10
9.550216
20
2.447114
10
9.468457
20
2.445508
10
9.385705
20
2.447106
10
9.305099
20
2.451900
10
9.226641
20
2.459891
10
9.150330
20
2.471078
10
9.076165
20
2.485462
10
9.004147
20
2.503042
10
8.934277
20
2.523818
10
8.866553
20
2.547791
10
8.800976
20
2.574959
10
8.737546
20
2.605325
10
8.676263
20
2.638886
10
8.617126
20
2.675644
10
8.560137
20
2.715598
10
8.505295
20
2.758749
10
8.452599
20
2.805095
10
8.402051
20
2.854639
10
8.354122
20
2.906986
10
8.309285
20
2.961744
10
8.267540
20
3.018913
10
8.228888
20
3.078494
10
8.193328
20
3.140486
10
8.160860
20
3.204890
10
8.131484
20
3.271704
10
8.105200
20
3.340930
10
8.082009
20
3.412567
10
8.061909
20
3.486616
10
8.044902
20
3.563075
10
8.030988
20
3.641946
10
8.020165
20
3.723229
10
8.012434
20
3.806922
10
8.007796
20
3.893027
0
LWPOLYLINE
100
AcDbEntity
8
LASER_MARK
100
AcDbPolyline
90
128
70
1
10
8.631738
20
4.002051
10
8.632660
20
3.939186
10
8.635423
20
3.878251
10
8.640030
20
3.819247
10
8.646478
20
3.762173
10
8.654770
20
3.707031
10
8.664903
20
3.653819
10
8.676880
20
3.602537
10
8.690698
20
3.553186
10
8.706359
20
3.505766
10
8.723863
20
3.460276
10
8.743209
20
3.416717
10
8.764398
20
3.375089
10
8.787429
20
3.335391
10
8.812303
20
3.297623
10
8.839019
20
3.261787
10
8.867578
20
3.227881
10
8.897555
20
3.195970
10
8.928525
20
3.166117
10
8.960488
20
3.138323
10
8.993445
20
3.112589
10
9.027395
20
3.088912
10
9.062338
20
3.067295
10
9.098275
20
3.047737
10
9.135205
20
3.030237
10
9.173129
20
3.014796
10
9.212045
20
3.001414
10
9.251955
20
2.990090
10
9.292859
20
2.980826
10
9.334756
20
2.973620
10
9.377646
20
2.968473
10
9.421529
20
2.965385
10
9.466406
20
2.964355
10
9.511271
20
2.965377
10
9.555119
20
2.968441
10
9.597949
20
2.973548
10
9.639761
20
2.980698
10
9.680557
20
2.989890
10
9.720335
20
3.001125
10
9.759095
20
3.014403
10
9.796838
20
3.029724
10
9.833564
20
3.047088
10
9.869273
20
3.066494
10
9.903964
20
3.087943
10
9.937637
20
3.111435
10
9.970294
20
3.136970
10
10.001933
20
3.164547
10
10.032554
20
3.194167
10
10.062158
20
3.225830
10
10.090344
20
3.259536
10
10.116712
20
3.295284
10
10.141261
20
3.333076
10
10.163992
20
3.372910
10
10.184905
20
3.414786
10
10.203999
20
3.458706
10
10.221274
20
3.504668
10
10.236731
20
3.552673
10
10.250369
20
3.602721
10
10.262189
20
3.654812
10
10.272191
20
3.708945
10
10.280374
20
3.765121
10
10.286739
20
3.823340
10
10.291285
20
3.883602
10
10.294013
20
3.945907
10
10.294922
20
4.010254
10
10.294037
20
4.073828
10
10.291381
20
4.135352
10
10.286955
20
4.194824
10
10.280759
20
4.252246
10
10.272792
20
4.307617
10
10.263055
20
4.360938
10
10.251547
20
4.412207
10
10.238269
20
4.461426
10
10.223221
20
4.508594
10
10.206402
20
4.553711
10
10.187813
20
4.596777
10
10.167453
20
4.637793
10
10.145323
20
4.676758
10
10.121423
20
4.713672
10
10.095752
20
4.748535
10
10.068311
20
4.781348
10
10.039403
20
4.812141
10
10.009335
20
4.840948
10
9.978104
20
4.867769
10
9.945712
20
4.892603
10
9.912159
20
4.915450
10
9.877444
20
4.936310
10
9.841567
20
4.955183
10
9.804529
20
4.972070
10
9.766329
20
4.986971
10
9.726968
20
4.999884
10
9.686445
20
5.010811
10
9.644760
20
5.019751
10
9.601914
20
5.026704
10
9.557906
20
5.031671
10
9.512737
20
5.034651
10
9.466406
20
5.035645
10
9.420063
20
5.034639
10
9.374858
20
5.031623
10
9.330790
20
5.026596
10
9.287860
20
5.019559
10
9.246067
20
5.010510
10
9.205412
20
4.999451
10
9.165895
20
4.986382
10
9.127515
20
4.971301
10
9.090272
20
4.954210
10
9.054167
20
4.935108
10
9.019200
20
4.913996
10
8.985370
20
4.890872
10
8.952678
20
4.865738
10
8.921123
20
4.838593
10
8.890705
20
4.809438
10
8.861426
20
4.778271
10
8.833612
20
4.745078
10
8.807593
20
4.709843
10
8.783368
20
4.672564
10
8.760938
20
4.633243
10
8.740302
20
4.591879
10
8.721460
20
4.548472
10
8.704413
20
4.503022
10
8.689160
20
4.455530
10
8.675702
20
4.405995
10
8.664038
20
4.354417
10
8.654169
20
4.300796
10
8.646094
20
4.245132
10
8.639813
20
4.187426
10
8.635327
20
4.127677
10
8.632635
20
4.065885
0
LWPOLYLINE
100
AcDbEntity
8
LASER_MARK
100
AcDbPolyline
90
168
70
1
10
11.398242
20
2.496777
10
11.398242
20
5.503223
10
12.675879
20
5.503223
10
12.735091
20
5.502906
10
12.792245
20
5.501957
10
12.847339
20
5.500375
10
12.900375
20
5.498160
10
12.951353
20
5.495312
10
13.000271
20
5.491831
10
13.047130
20
5.487718
10
13.091931
20
5.482971
10
13.134673
20
5.477592
10
13.175356
20
5.471580
10
13.213981
20
5.464935
10
13.250546
20
5.457657
10
13.285053
20
5.449746
10
13.317501
20
5.441203
10
13.347890
20
5.432026
10
13.376221
20
5.422217
10
13.403181
20
5.411598
10
13.429461
20
5.399995
10
13.455060
20
5.387406
10
13.479977
20
5.373831
10
13.504214
20
5.359271
10
13.527770
20
5.343726
10
13.550645
20
5.327196
10
13.572839
20
5.309680
10
13.594353
20
5.291179
10
13.615185
20
5.271693
10
13.635336
20
5.251221
10
13.654807
20
5.229764
10
13.673596
20
5.207321
10
13.691705
20
5.183894
10
13.709132
20
5.159480
10
13.725879
20
5.134082
10
13.741772
20
5.107959
10
13.756641
20
5.081371
10
13.770483
20
5.054318
10
13.783301
20
5.026801
10
13.795093
20
4.998819
10
13.805859
20
4.970372
10
13.815601
20
4.941461
10
13.824316
20
4.912085
10
13.832007
20
4.882244
10
13.838672
20
4.851939
10
13.844312
20
4.821170
10
13.848926
20
4.789935
10
13.852515
20
4.758236
10
13.855078
20
4.726073
10
13.856616
20
4.693444
10
13.857129
20
4.660352
10
13.856352
20
4.618515
10
13.854021
20
4.577599
10
13.850135
20
4.537605
10
13.844696
20
4.498532
10
13.837703
20
4.460380
10
13.829155
20
4.423150
10
13.819053
20
4.386841
10
13.807397
20
4.351453
10
13.794188
20
4.316986
10
13.779424
20
4.283440
10
13.763105
20
4.250816
10
13.745233
20
4.219113
10
13.725807
20
4.188331
10
13.704826
20
4.158471
10
13.682292
20
4.129532
10
13.658203
20
4.101514
10
13.632568
20
4.074593
10
13.605396
20
4.048946
10
13.576685
20
4.024573
10
13.546436
20
4.001474
10
13.514648
20
3.979648
10
13.481323
20
3.959097
10
13.446460
20
3.939818
10
13.410059
20
3.921814
10
13.372119
20
3.905083
10
13.332642
20
3.889626
10
13.291626
20
3.875443
10
13.249072
20
3.862534
10
13.204980
20
3.850898
10
13.159351
20
3.840536
10
13.112183
20
3.831447
10
13.063477
20
3.823633
10
13.087818
20
3.809189
10
13.111622
20
3.794569
10
13.134889
20
3.779773
10
13.157620
20
3.764801
10
13.179814
20
3.749652
10
13.201472
20
3.734328
10
13.222592
20
3.718827
10
13.243176
20
3.703149
10
13.263223
20
3.687296
10
13.282734
20
3.671266
10
13.301708
20
3.655060
10
13.320145
20
3.638678
10
13.338045
20
3.622120
10
13.355408
20
3.605385
10
13.372235
20
3.588474
10
13.388525
20
3.571387
10
13.404896
20
3.553378
10
13.421963
20
3.533704
10
13.439727
20
3.512363
10
13.458188
20
3.489355
10
13.477346
20
3.464682
10
13.497201
20
3.438342
10
13.517753
20
3.410336
10
13.539001
20
3.380664
10
13.560947
20
3.349326
10
13.583590
20
3.316321
10
13.606930
20
3.281650
10
13.630966
20
3.245312
10
13.655700
20
3.207309
10
13.681130
20
3.167639
10
13.707258
20
3.126303
10
13.734082
20
3.083301
10
14.101172
20
2.496777
10
13.375195
20
2.496777
10
12.936328
20
3.150977
10
12.907681
20
3.193799
10
12.880188
20
3.234594
10
12.853848
20
3.273363
10
12.828662
20
3.310104
10
12.804630
20
3.344819
10
12.781750
20
3.377508
10
12.760025
20
3.408169
10
12.739453
20
3.436804
10
12.720035
20
3.463412
10
12.701770
20
3.487994
10
12.684659
20
3.510548
10
12.668701
20
3.531076
10
12.653897
20
3.549577
10
12.640247
20
3.566051
10
12.627750
20
3.580499
10
12.616406
20
3.592920
10
12.605600
20
3.604103
10
12.594713
20
3.614838
10
12.583746
20
3.625124
10
12.572699
20
3.634961
10
12.561572
20
3.644350
10
12.550365
20
3.653290
10
12.539077
20
3.661781
10
12.527710
20
3.669824
10
12.516262
20
3.677419
10
12.504735
20
3.684564
10
12.493127
20
3.691261
10
12.481439
20
3.697510
10
12.469671
20
3.703310
10
12.457823
20
3.708661
10
12.445895
20
3.713564
10
12.433887
20
3.718018
10
12.421398
20
3.722115
10
12.408028
20
3.725948
10
12.393776
20
3.729517
10
12.378644
20
3.732822
10
12.362630
20
3.735862
10
12.345735
20
3.738638
10
12.327959
20
3.741149
10
12.309302
20
3.743396
10
12.289763
20
3.745379
10
12.269344
20
3.747097
10
12.248043
20
3.748551
10
12.225861
20
3.749741
10
12.202797
20
3.750666
10
12.178853
20
3.751327
10
12.154027
20
3.751723
10
12.128320
20
3.751855
10
12.005273
20
3.751855
10
12.005273
20
2.496777
0
LWPOLYLINE
100
AcDbEntity
8
LASER_MARK
100
AcDbPolyline
90
99
70
1
10
12.005273
20
4.231738
10
12.454395
20
4.231738
10
12.507715
20
4.231882
10
12.558472
20
4.232315
10
12.606665
20
4.233036
10
12.652295
20
4.234045
10
12.695361
20
4.235343
10
12.735864
20
4.236929
10
12.773804
20
4.238804
10
12.809180
20
4.240967
10
12.841992
20
4.243418
10
12.872241
20
4.246158
10
12.899927
20
4.249186
10
12.925049
20
4.252502
10
12.947607
20
4.256107
10
12.967603
20
4.260001
10
12.985034
20
4.264182
10
12.999902
20
4.268652
10
13.013305
20
4.273475
10
13.026338
20
4.278714
10
13.039003
20
4.284370
10
13.051300
20
4.290442
10
13.063228
20
4.296931
10
13.074788
20
4.303836
10
13.085979
20
4.311158
10
13.096802
20
4.318896
10
13.107256
20
4.327052
10
13.117342
20
4.335623
10
13.127059
20
4.344611
10
13.136407
20
4.354016
10
13.145388
20
4.363837
10
13.153999
20
4.374075
10
13.162243
20
4.384730
10
13.170117
20
4.395801
10
13.177567
20
4.407256
10
13.184537
20
4.419064
10
13.191026
20
4.431225
10
13.197034
20
4.443738
10
13.202561
20
4.456603
10
13.207608
20
4.469821
10
13.212174
20
4.483392
10
13.216260
20
4.497314
10
13.219865
20
4.511590
10
13.222989
20
4.526218
10
13.225632
20
4.541198
10
13.227795
20
4.556531
10
13.229478
20
4.572216
10
13.230679
20
4.588254
10
13.231400
20
4.604644
10
13.231641
20
4.621387
10
13.231324
20
4.640128
10
13.230375
20
4.658413
10
13.228793
20
4.676241
10
13.226578
20
4.693613
10
13.223730
20
4.710528
10
13.220249
20
4.726986
10
13.216136
20
4.742988
10
13.211389
20
4.758533
10
13.206010
20
4.773621
10
13.199998
20
4.788253
10
13.193353
20
4.802428
10
13.186075
20
4.816147
10
13.178164
20
4.829409
10
13.169621
20
4.842214
10
13.160444
20
4.854563
10
13.150635
20
4.866455
10
13.140249
20
4.877851
10
13.129342
20
4.888709
10
13.117914
20
4.899031
10
13.105966
20
4.908817
10
13.093497
20
4.918065
10
13.080508
20
4.926777
10
13.066997
20
4.934952
10
13.052966
20
4.942590
10
13.038415
20
4.949692
10
13.023342
20
4.956257
10
13.007749
20
4.962285
10
12.991635
20
4.967776
10
12.975001
20
4.972731
10
12.957845
20
4.977149
10
12.940169
20
4.981030
10
12.921973
20
4.984375
10
12.911591
20
4.985617
10
12.898901
20
4.986778
10
12.883905
20
4.987860
10
12.866602
20
4.988861
10
12.846991
20
4.989782
10
12.825073
20
4.990623
10
12.800848
20
4.991385
10
12.774316
20
4.992065
10
12.745477
20
4.992666
10
12.714331
20
4.993187
10
12.680878
20
4.993628
10
12.645117
20
4.993988
10
12.607050
20
4.994268
10
12.566675
20
4.994469
10
12.523993
20
4.994589
10
12.479004
20
4.994629
10
12.005273
20
4.994629
0
LWPOLYLINE
100
AcDbEntity
8
LASER_MARK
100
AcDbPolyline
90
12
70
1
10
14.429297
20
2.496777
10
14.429297
20
5.503223
10
16.658496
20
5.503223
10
16.658496
20
4.994629
10
15.036328
20
4.994629
10
15.036328
20
4.328125
10
16.545703
20
4.328125
10
16.545703
20
3.821582
10
15.036328
20
3.821582
10
15.036328
20
3.003320
10
16.715918
20
3.003320
10
16.715918
20
2.496777
0
LWPOLYLINE
100
AcDbEntity
8
LASER_MARK
100
AcDbPolyline
90
131
70
1
10
17.228613
20
5.503223
10
18.338086
20
5.503223
10
18.384301
20
5.502998
10
18.429121
20
5.502325
10
18.472548
20
5.501204
10
18.514581
20
5.499634
10
18.555220
20
5.497615
10
18.594466
20
5.495148
10
18.632317
20
5.492232
10
18.668774
20
5.488867
10
18.703838
20
5.485054
10
18.737508
20
5.480792
10
18.769783
20
5.476082
10
18.800665
20
5.470923
10
18.830153
20
5.465315
10
18.858247
20
5.459259
10
18.884948
20
5.452754
10
18.910254
20
5.445801
10
18.943026
20
5.435587
10
18.975206
20
5.424428
10
19.006793
20
5.412323
10
19.037787
20
5.399274
10
19.068188
20
5.385279
10
19.097997
20
5.370338
10
19.127212
20
5.354453
10
19.155835
20
5.337622
10
19.183865
20
5.319846
10
19.211302
20
5.301125
10
19.238147
20
5.281458
10
19.264398
20
5.260846
10
19.290057
20
5.239289
10
19.315123
20
5.216786
10
19.339596
20
5.193338
10
19.363477
20
5.168945
10
19.386708
20
5.143731
10
19.409235
20
5.117820
10
19.431056
20
5.091212
10
19.452173
20
5.063907
10
19.472585
20
5.035905
10
19.492291
20
5.007206
10
19.511293
20
4.977810
10
19.529590
20
4.947717
10
19.547182
20
4.916928
10
19.564069
20
4.885441
10
19.580251
20
4.853257
10
19.595728
20
4.820377
10
19.610500
20
4.786799
10
19.624567
20
4.752525
10
19.637929
20
4.717553
10
19.650586
20
4.681885
10
19.662506
20
4.645343
10
19.673657
20
4.607752
10
19.684039
20
4.569112
10
19.693652
20
4.529422
10
19.702496
20
4.488683
10
19.710571
20
4.446894
10
19.717877
20
4.404056
10
19.724414
20
4.360168
10
19.730182
20
4.315232
10
19.735181
20
4.269245
10
19.739410
20
4.222209
10
19.742871
20
4.174124
10
19.745563
20
4.124990
10
19.747485
20
4.074805
10
19.748639
20
4.023572
10
19.749023
20
3.971289
10
19.748663
20
3.925291
10
19.747581
20
3.880093
10
19.745779
20
3.835697
10
19.743256
20
3.792102
10
19.740011
20
3.749308
10
19.736046
20
3.707315
10
19.731359
20
3.666123
10
19.725952
20
3.625732
10
19.719824
20
3.586143
10
19.712975
20
3.547354
10
19.705404
20
3.509367
10
19.697113
20
3.472180
10
19.688101
20
3.435795
10
19.678368
20
3.400211
10
19.667913
20
3.365427
10
19.656738
20
3.331445
10
19.642263
20
3.290918
10
19.627034
20
3.251369
10
19.611052
20
3.212796
10
19.594318
20
3.175201
10
19.576830
20
3.138584
10
19.558589
20
3.102943
10
19.539595
20
3.068280
10
19.519849
20
3.034595
10
19.499349
20
3.001886
10
19.478096
20
2.970155
10
19.456090
20
2.939402
10
19.433331
20
2.909625
10
19.409819
20
2.880826
10
19.385555
20
2.853004
10
19.360537
20
2.826160
10
19.334766
20
2.800293
10
19.314594
20
2.781331
10
19.293558
20
2.762898
10
19.271656
20
2.744994
10
19.248889
20
2.727618
10
19.225257
20
2.710772
10
19.200760
20
2.694453
10
19.175397
20
2.678664
10
19.149170
20
2.663403
10
19.122077
20
2.648671
10
19.094119
20
2.634468
10
19.065296
20
2.620794
10
19.035608
20
2.607648
10
19.005054
20
2.595031
10
18.973636
20
2.582942
10
18.941352
20
2.571383
10
18.908203
20
2.560352
10
18.882552
20
2.552653
10
18.855844
20
2.545451
10
18.828078
20
2.538746
10
18.799255
20
2.532538
10
18.769375
20
2.526826
10
18.738437
20
2.521611
10
18.706441
20
2.516893
10
18.673389
20
2.512671
10
18.639278
20
2.508946
10
18.604111
20
2.505717
10
18.567886
20
2.502986
10
18.530603
20
2.500751
10
18.492263
20
2.499012
10
18.452866
20
2.497771
10
18.412411
20
2.497026
10
18.370898
20
2.496777
10
17.228613
20
2.496777
0
LWPOLYLINE
100
AcDbEntity
8
LASER_MARK
100
AcDbPolyline
90
131
70
1
10
17.835645
20
4.994629
10
17.835645
20
3.003320
10
18.288867
20
3.003320
10
18.320102
20
3.003432
10
18.350230
20
3.003769
10
18.379254
20
3.004330
10
18.407172
20
3.005115
10
18.433984
20
3.006124
10
18.459691
20
3.007358
10
18.484292
20
3.008816
10
18.507788
20
3.010498
10
18.530178
20
3.012405
10
18.551463
20
3.014536
10
18.571643
20
3.016891
10
18.590717
20
3.019470
10
18.608685
20
3.022274
10
18.625548
20
3.025302
10
18.641305
20
3.028555
10
18.655957
20
3.032031
10
18.674218
20
3.036846
10
18.692086
20
3.042061
10
18.709562
20
3.047676
10
18.726645
20
3.053693
10
18.743336
20
3.060109
10
18.759634
20
3.066927
10
18.775539
20
3.074144
10
18.791052
20
3.081763
10
18.806173
20
3.089782
10
18.820901
20
3.098201
10
18.835236
20
3.107021
10
18.849179
20
3.116241
10
18.862729
20
3.125863
10
18.875887
20
3.135884
10
18.888653
20
3.146306
10
18.901025
20
3.157129
10
18.913062
20
3.168596
10
18.924818
20
3.180953
10
18.936293
20
3.194199
10
18.947488
20
3.208334
10
18.958403
20
3.223359
10
18.969038
20
3.239272
10
18.979392
20
3.256075
10
18.989465
20
3.273767
10
18.999259
20
3.292348
10
19.008772
20
3.311819
10
19.018004
20
3.332178
10
19.026956
20
3.353427
10
19.035628
20
3.375565
10
19.044019
20
3.398592
10
19.052130
20
3.422509
10
19.059961
20
3.447314
10
19.067411
20
3.473137
10
19.074380
20
3.500106
10
19.080869
20
3.528220
10
19.086877
20
3.557480
10
19.092405
20
3.587885
10
19.097452
20
3.619436
10
19.102018
20
3.652132
10
19.106104
20
3.685974
10
19.109708
20
3.720962
10
19.112833
20
3.757095
10
19.115476
20
3.794373
10
19.117639
20
3.832797
10
19.119321
20
3.872367
10
19.120523
20
3.913082
10
19.121244
20
3.954943
10
19.121484
20
3.997949
10
19.121244
20
4.040895
10
19.120523
20
4.082576
10
19.119321
20
4.122991
10
19.117639
20
4.162140
10
19.115476
20
4.200023
10
19.112833
20
4.236641
10
19.109708
20
4.271993
10
19.106104
20
4.306079
10
19.102018
20
4.338900
10
19.097452
20
4.370454
10
19.092405
20
4.400743
10
19.086877
20
4.429767
10
19.080869
20
4.457524
10
19.074380
20
4.484016
10
19.067411
20
4.509243
10
19.059961
20
4.533203
10
19.052078
20
4.556210
10
19.043811
20
4.578577
10
19.035159
20
4.600302
10
19.026123
20
4.621387
10
19.016702
20
4.641830
10
19.006897
20
4.661633
10
18.996707
20
4.680795
10
18.986133
20
4.699316
10
18.975174
20
4.717197
10
18.963831
20
4.734436
10
18.952103
20
4.751035
10
18.939990
20
4.766992
10
18.927493
20
4.782309
10
18.914612
20
4.796985
10
18.901346
20
4.811020
10
18.887695
20
4.824414
10
18.873620
20
4.837223
10
18.859081
20
4.849504
10
18.844076
20
4.861256
10
18.828607
20
4.872479
10
18.812674
20
4.883174
10
18.796275
20
4.893340
10
18.779412
20
4.902977
10
18.762085
20
4.912085
10
18.744293
20
4.920665
10
18.726036
20
4.928716
10
18.707315
20
4.936238
10
18.688129
20
4.943231
10
18.668478
20
4.949696
10
18.648363
20
4.955632
10
18.627783
20
4.961039
10
18.606738
20
4.965918
10
18.589891
20
4.969395
10
18.571138
20
4.972647
10
18.550478
20
4.975675
10
18.527911
20
4.978479
10
18.503438
20
4.981059
10
18.477058
20
4.983414
10
18.448772
20
4.985545
10
18.418579
20
4.987451
10
18.386480
20
4.989133
10
18.352473
20
4.990591
10
18.316561
20
4.991825
10
18.278741
20
4.992834
10
18.239016
20
4.993620
10
18.197383
20
4.994180
10
18.153844
20
4.994517
10
18.108398
20
4.994629
0
LWPOLYLINE
100
AcDbEntity
8
LASER_MARK
100
AcDbPolyline
90
8
70
1
10
-13.560791
20
-4.752124
10
-12.983496
20
-3.248901
10
-12.769189
20
-3.248901
10
-12.153955
20
-4.752124
10
-12.380566
20
-4.752124
10
-12.555908
20
-4.296851
10
-13.184473
20
-4.296851
10
-13.349561
20
-4.752124
0
LWPOLYLINE
100
AcDbEntity
8
LASER_MARK
100
AcDbPolyline
90
35
70
1
10
-13.127051
20
-4.134839
10
-12.617432
20
-4.134839
10
-12.774316
20
-3.718530
10
-12.783144
20
-3.695082
10
-12.791684
20
-3.672163
10
-12.799935
20
-3.649773
10
-12.807898
20
-3.627911
10
-12.815572
20
-3.606578
10
-12.822958
20
-3.585774
10
-12.830056
20
-3.565499
10
-12.836865
20
-3.545752
10
-12.843386
20
-3.526534
10
-12.849619
20
-3.507845
10
-12.855563
20
-3.489684
10
-12.861218
20
-3.472052
10
-12.866586
20
-3.454949
10
-12.871664
20
-3.438374
10
-12.876455
20
-3.422329
10
-12.880957
20
-3.406812
10
-12.884638
20
-3.424876
10
-12.888503
20
-3.442924
10
-12.892553
20
-3.460957
10
-12.896786
20
-3.478973
10
-12.901204
20
-3.496974
10
-12.905807
20
-3.514958
10
-12.910593
20
-3.532927
10
-12.915564
20
-3.550879
10
-12.920719
20
-3.568815
10
-12.926058
20
-3.586736
10
-12.931582
20
-3.604640
10
-12.937289
20
-3.622528
10
-12.943181
20
-3.640400
10
-12.949258
20
-3.658257
10
-12.955518
20
-3.676097
10
-12.961963
20
-3.693921
0
LWPOLYLINE
100
AcDbEntity
8
LASER_MARK
100
AcDbPolyline
90
179
70
1
10
-12.003223
20
-4.752124
10
-12.003223
20
-3.248901
10
-11.439258
20
-3.248901
10
-11.417991
20
-3.249080
10
-11.397257
20
-3.249614
10
-11.377055
20
-3.250506
10
-11.357387
20
-3.251753
10
-11.338251
20
-3.253357
10
-11.319648
20
-3.255318
10
-11.301577
20
-3.257635
10
-11.284039
20
-3.260309
10
-11.267034
20
-3.263339
10
-11.250562
20
-3.266726
10
-11.234622
20
-3.270469
10
-11.219215
20
-3.274568
10
-11.204341
20
-3.279024
10
-11.190000
20
-3.283837
10
-11.176191
20
-3.289006
10
-11.162915
20
-3.294531
10
-11.150082
20
-3.300427
10
-11.137601
20
-3.306708
10
-11.125472
20
-3.313373
10
-11.113696
20
-3.320422
10
-11.102273
20
-3.327856
10
-11.091202
20
-3.335675
10
-11.080483
20
-3.343878
10
-11.070117
20
-3.352466
10
-11.060104
20
-3.361438
10
-11.050443
20
-3.370795
10
-11.041134
20
-3.380536
10
-11.032178
20
-3.390662
10
-11.023574
20
-3.401172
10
-11.015323
20
-3.412067
10
-11.007424
20
-3.423346
10
-10.999878
20
-3.435010
10
-10.992738
20
-3.446900
10
-10.986059
20
-3.458858
10
-10.979841
20
-3.470884
10
-10.974083
20
-3.482979
10
-10.968786
20
-3.495141
10
-10.963949
20
-3.507372
10
-10.959573
20
-3.519671
10
-10.955658
20
-3.532037
10
-10.952203
20
-3.544472
10
-10.949209
20
-3.556975
10
-10.946676
20
-3.569546
10
-10.944603
20
-3.582185
10
-10.942991
20
-3.594893
10
-10.941839
20
-3.607668
10
-10.941148
20
-3.620511
10
-10.940918
20
-3.633423
10
-10.941122
20
-3.645427
10
-10.941735
20
-3.657343
10
-10.942756
20
-3.669171
10
-10.944186
20
-3.680911
10
-10.946025
20
-3.692563
10
-10.948272
20
-3.704127
10
-10.950928
20
-3.715602
10
-10.953992
20
-3.726990
10
-10.957464
20
-3.738289
10
-10.961346
20
-3.749500
10
-10.965635
20
-3.760623
10
-10.970334
20
-3.771658
10
-10.975441
20
-3.782605
10
-10.980956
20
-3.793464
10
-10.986880
20
-3.804235
10
-10.993213
20
-3.814917
10
-10.999958
20
-3.825427
10
-11.007120
20
-3.835681
10
-11.014698
20
-3.845679
10
-11.022693
20
-3.855420
10
-11.031104
20
-3.864905
10
-11.039932
20
-3.874133
10
-11.049177
20
-3.883105
10
-11.058838
20
-3.891821
10
-11.068916
20
-3.900281
10
-11.079410
20
-3.908484
10
-11.090321
20
-3.916431
10
-11.101648
20
-3.924121
10
-11.113392
20
-3.931555
10
-11.125552
20
-3.938733
10
-11.138129
20
-3.945654
10
-11.151123
20
-3.952319
10
-11.134322
20
-3.957538
10
-11.118014
20
-3.963198
10
-11.102199
20
-3.969298
10
-11.086876
20
-3.975839
10
-11.072046
20
-3.982821
10
-11.057708
20
-3.990243
10
-11.043864
20
-3.998105
10
-11.030511
20
-4.006409
10
-11.017652
20
-4.015153
10
-11.005285
20
-4.024337
10
-10.993411
20
-4.033962
10
-10.982030
20
-4.044028
10
-10.971141
20
-4.054534
10
-10.960745
20
-4.065481
10
-10.950841
20
-4.076868
10
-10.941431
20
-4.088696
10
-10.932553
20
-4.100881
10
-10.924247
20
-4.113338
10
-10.916515
20
-4.126067
10
-10.909355
20
-4.139069
10
-10.902768
20
-4.152343
10
-10.896754
20
-4.165889
10
-10.891313
20
-4.179708
10
-10.886444
20
-4.193799
10
-10.882148
20
-4.208162
10
-10.878425
20
-4.222798
10
-10.875275
20
-4.237706
10
-10.872697
20
-4.252887
10
-10.870693
20
-4.268340
10
-10.869261
20
-4.284065
10
-10.868402
20
-4.300063
10
-10.868115
20
-4.316333
10
-10.868289
20
-4.329477
10
-10.868812
20
-4.342505
10
-10.869683
20
-4.355416
10
-10.870903
20
-4.368211
10
-10.872471
20
-4.380891
10
-10.874388
20
-4.393454
10
-10.876653
20
-4.405900
10
-10.879266
20
-4.418231
10
-10.882228
20
-4.430446
10
-10.885539
20
-4.442544
10
-10.889198
20
-4.454526
10
-10.893205
20
-4.466393
10
-10.897561
20
-4.478142
10
-10.902266
20
-4.489776
10
-10.907318
20
-4.501294
10
-10.912720
20
-4.512695
10
-10.918377
20
-4.523876
10
-10.924199
20
-4.534733
10
-10.930185
20
-4.545265
10
-10.936336
20
-4.555473
10
-10.942650
20
-4.565357
10
-10.949129
20
-4.574916
10
-10.955772
20
-4.584150
10
-10.962579
20
-4.593060
10
-10.969551
20
-4.601646
10
-10.976686
20
-4.609907
10
-10.983986
20
-4.617844
10
-10.991451
20
-4.625456
10
-10.999079
20
-4.632744
10
-11.006871
20
-4.639708
10
-11.014828
20
-4.646347
10
-11.022949
20
-4.652661
10
-11.031283
20
-4.658719
10
-11.039876
20
-4.664589
10
-11.048730
20
-4.670271
10
-11.057845
20
-4.675764
10
-11.067219
20
-4.681070
10
-11.076854
20
-4.686187
10
-11.086750
20
-4.691115
10
-11.096906
20
-4.695856
10
-11.107322
20
-4.700408
10
-11.117998
20
-4.704772
10
-11.128935
20
-4.708947
10
-11.140132
20
-4.712935
10
-11.151590
20
-4.716734
10
-11.163308
20
-4.720345
10
-11.175286
20
-4.723768
10
-11.187524
20
-4.727002
10
-11.200067
20
-4.730044
10
-11.212959
20
-4.732890
10
-11.226199
20
-4.735540
10
-11.239787
20
-4.737993
10
-11.253724
20
-4.740250
10
-11.268010
20
-4.742311
10
-11.282643
20
-4.744175
10
-11.297626
20
-4.745844
10
-11.312957
20
-4.747316
10
-11.328636
20
-4.748591
10
-11.344664
20
-4.749671
10
-11.361040
20
-4.750554
10
-11.377764
20
-4.751241
10
-11.394838
20
-4.751731
10
-11.412259
20
-4.752026
10
-11.430029
20
-4.752124
0
LWPOLYLINE
100
AcDbEntity
8
LASER_MARK
100
AcDbPolyline
90
99
70
1
10
-11.804297
20
-3.880542
10
-11.479248
20
-3.880542
10
-11.463006
20
-3.880474
10
-11.447349
20
-3.880270
10
-11.432276
20
-3.879929
10
-11.417789
20
-3.879453
10
-11.403886
20
-3.878840
10
-11.390568
20
-3.878091
10
-11.377835
20
-3.877205
10
-11.365686
20
-3.876184
10
-11.354122
20
-3.875027
10
-11.343143
20
-3.873733
10
-11.332749
20
-3.872303
10
-11.322940
20
-3.870737
10
-11.313716
20
-3.869034
10
-11.305076
20
-3.867196
10
-11.297021
20
-3.865221
10
-11.289551
20
-3.863110
10
-11.280212
20
-3.860174
10
-11.271166
20
-3.857006
10
-11.262412
20
-3.853605
10
-11.253951
20
-3.849973
10
-11.245781
20
-3.846107
10
-11.237905
20
-3.842010
10
-11.230320
20
-3.837680
10
-11.223029
20
-3.833118
10
-11.216029
20
-3.828323
10
-11.209322
20
-3.823296
10
-11.202907
20
-3.818037
10
-11.196785
20
-3.812546
10
-11.190955
20
-3.806822
10
-11.185418
20
-3.800866
10
-11.180172
20
-3.794678
10
-11.175220
20
-3.788257
10
-11.170563
20
-3.781616
10
-11.166208
20
-3.774767
10
-11.162152
20
-3.767709
10
-11.158397
20
-3.760443
10
-11.154942
20
-3.752969
10
-11.151788
20
-3.745287
10
-11.148934
20
-3.737396
10
-11.146381
20
-3.729297
10
-11.144128
20
-3.720990
10
-11.142175
20
-3.712474
10
-11.140523
20
-3.703750
10
-11.139171
20
-3.694818
10
-11.138119
20
-3.685678
10
-11.137368
20
-3.676329
10
-11.136918
20
-3.666772
10
-11.136768
20
-3.657007
10
-11.136908
20
-3.647720
10
-11.137328
20
-3.638574
10
-11.138029
20
-3.629568
10
-11.139011
20
-3.620702
10
-11.140272
20
-3.611976
10
-11.141814
20
-3.603390
10
-11.143637
20
-3.594945
10
-11.145740
20
-3.586639
10
-11.148123
20
-3.578474
10
-11.150787
20
-3.570449
10
-11.153731
20
-3.562565
10
-11.156955
20
-3.554820
10
-11.160460
20
-3.547216
10
-11.164245
20
-3.539752
10
-11.168310
20
-3.532428
10
-11.172656
20
-3.525244
10
-11.177262
20
-3.518271
10
-11.182109
20
-3.511578
10
-11.187196
20
-3.505165
10
-11.192523
20
-3.499033
10
-11.198091
20
-3.493181
10
-11.203899
20
-3.487609
10
-11.209947
20
-3.482318
10
-11.216235
20
-3.477307
10
-11.222764
20
-3.472577
10
-11.229533
20
-3.468127
10
-11.236543
20
-3.463957
10
-11.243793
20
-3.460068
10
-11.251283
20
-3.456459
10
-11.259013
20
-3.453130
10
-11.266984
20
-3.450082
10
-11.275195
20
-3.447314
10
-11.283899
20
-3.444769
10
-11.293348
20
-3.442388
10
-11.303542
20
-3.440171
10
-11.314481
20
-3.438118
10
-11.326164
20
-3.436229
10
-11.338593
20
-3.434505
10
-11.351767
20
-3.432945
10
-11.365686
20
-3.431549
10
-11.380350
20
-3.430317
10
-11.395759
20
-3.429250
10
-11.411913
20
-3.428347
10
-11.428812
20
-3.427608
10
-11.446456
20
-3.427033
10
-11.464845
20
-3.426622
10
-11.483978
20
-3.426376
10
-11.503857
20
-3.426294
10
-11.804297
20
-3.426294
0
LWPOLYLINE
100
AcDbEntity
8
LASER_MARK
100
AcDbPolyline
90
115
70
1
10
-11.804297
20
-4.574731
10
-11.430029
20
-4.574731
10
-11.418205
20
-4.574703
10
-11.406830
20
-4.574619
10
-11.395903
20
-4.574479
10
-11.385425
20
-4.574283
10
-11.375395
20
-4.574030
10
-11.365814
20
-4.573722
10
-11.356682
20
-4.573358
10
-11.347998
20
-4.572937
10
-11.339763
20
-4.572460
10
-11.331976
20
-4.571928
10
-11.324638
20
-4.571339
10
-11.317749
20
-4.570694
10
-11.311308
20
-4.569993
10
-11.305316
20
-4.569236
10
-11.299773
20
-4.568423
10
-11.294678
20
-4.567554
10
-11.286178
20
-4.565952
10
-11.277855
20
-4.564221
10
-11.269708
20
-4.562363
10
-11.261737
20
-4.560376
10
-11.253942
20
-4.558261
10
-11.246324
20
-4.556018
10
-11.238882
20
-4.553647
10
-11.231616
20
-4.551147
10
-11.224527
20
-4.548520
10
-11.217613
20
-4.545764
10
-11.210876
20
-4.542880
10
-11.204315
20
-4.539868
10
-11.197931
20
-4.536728
10
-11.191722
20
-4.533459
10
-11.185690
20
-4.530063
10
-11.179834
20
-4.526538
10
-11.174130
20
-4.522847
10
-11.168555
20
-4.518952
10
-11.163107
20
-4.514852
10
-11.157788
20
-4.510548
10
-11.152597
20
-4.506040
10
-11.147534
20
-4.501328
10
-11.142599
20
-4.496411
10
-11.137793
20
-4.491290
10
-11.133115
20
-4.485965
10
-11.128564
20
-4.480436
10
-11.124142
20
-4.474702
10
-11.119849
20
-4.468764
10
-11.115683
20
-4.462621
10
-11.111646
20
-4.456275
10
-11.107736
20
-4.449724
10
-11.103955
20
-4.442969
10
-11.100354
20
-4.436045
10
-11.096986
20
-4.428990
10
-11.093849
20
-4.421802
10
-11.090945
20
-4.414482
10
-11.088274
20
-4.407030
10
-11.085835
20
-4.399446
10
-11.083628
20
-4.391729
10
-11.081653
20
-4.383881
10
-11.079910
20
-4.375900
10
-11.078400
20
-4.367787
10
-11.077123
20
-4.359542
10
-11.076077
20
-4.351164
10
-11.075264
20
-4.342655
10
-11.074683
20
-4.334013
10
-11.074335
20
-4.325239
10
-11.074219
20
-4.316333
10
-11.074387
20
-4.305909
10
-11.074892
20
-4.295657
10
-11.075733
20
-4.285577
10
-11.076910
20
-4.275670
10
-11.078424
20
-4.265935
10
-11.080275
20
-4.256372
10
-11.082462
20
-4.246981
10
-11.084985
20
-4.237762
10
-11.087845
20
-4.228716
10
-11.091042
20
-4.219842
10
-11.094574
20
-4.211140
10
-11.098444
20
-4.202611
10
-11.102649
20
-4.194253
10
-11.107191
20
-4.186068
10
-11.112070
20
-4.178055
10
-11.117285
20
-4.170215
10
-11.122799
20
-4.162605
10
-11.128572
20
-4.155283
10
-11.134607
20
-4.148249
10
-11.140901
20
-4.141504
10
-11.147456
20
-4.135047
10
-11.154271
20
-4.128879
10
-11.161347
20
-4.122999
10
-11.168683
20
-4.117407
10
-11.176279
20
-4.112104
10
-11.184136
20
-4.107089
10
-11.192253
20
-4.102363
10
-11.200630
20
-4.097925
10
-11.209268
20
-4.093775
10
-11.218166
20
-4.089914
10
-11.227324
20
-4.086341
10
-11.236743
20
-4.083057
10
-11.246554
20
-4.080015
10
-11.256890
20
-4.077169
10
-11.267751
20
-4.074519
10
-11.279137
20
-4.072066
10
-11.291047
20
-4.069809
10
-11.303482
20
-4.067748
10
-11.316441
20
-4.065883
10
-11.329926
20
-4.064215
10
-11.343935
20
-4.062743
10
-11.358468
20
-4.061467
10
-11.373527
20
-4.060388
10
-11.389110
20
-4.059505
10
-11.405218
20
-4.058818
10
-11.421850
20
-4.058327
10
-11.439007
20
-4.058033
10
-11.456689
20
-4.057935
10
-11.804297
20
-4.057935
0
LWPOLYLINE
100
AcDbEntity
8
LASER_MARK
100
AcDbPolyline
90
530
70
1
10
-10.662012
20
-4.269165
10
-10.474365
20
-4.252759
10
-10.472561
20
-4.266700
10
-10.470480
20
-4.280324
10
-10.468123
20
-4.293632
10
-10.465489
20
-4.306624
10
-10.462579
20
-4.319299
10
-10.459393
20
-4.331658
10
-10.455930
20
-4.343700
10
-10.452191
20
-4.355426
10
-10.448176
20
-4.366835
10
-10.443884
20
-4.377929
10
-10.439316
20
-4.388705
10
-10.434471
20
-4.399165
10
-10.429350
20
-4.409309
10
-10.423953
20
-4.419136
10
-10.418279
20
-4.428647
10
-10.412329
20
-4.437842
10
-10.406031
20
-4.446770
10
-10.399311
20
-4.455482
10
-10.392172
20
-4.463977
10
-10.384612
20
-4.472256
10
-10.376631
20
-4.480319
10
-10.368229
20
-4.488166
10
-10.359407
20
-4.495796
10
-10.350165
20
-4.503210
10
-10.340502
20
-4.510408
10
-10.330418
20
-4.517390
10
-10.319914
20
-4.524155
10
-10.308989
20
-4.530704
10
-10.297644
20
-4.537036
10
-10.285878
20
-4.543153
10
-10.273691
20
-4.549053
10
-10.261084
20
-4.554736
10
-10.248166
20
-4.560138
10
-10.235049
20
-4.565191
10
-10.221731
20
-4.569895
10
-10.208212
20
-4.574251
10
-10.194494
20
-4.578258
10
-10.180575
20
-4.581917
10
-10.166456
20
-4.585228
10
-10.152136
20
-4.588190
10
-10.137617
20
-4.590803
10
-10.122897
20
-4.593068
10
-10.107976
20
-4.594985
10
-10.092856
20
-4.596553
10
-10.077535
20
-4.597773
10
-10.062014
20
-4.598644
10
-10.046293
20
-4.599167
10
-10.030371
20
-4.599341
10
-10.016248
20
-4.599209
10
-10.002333
20
-4.598812
10
-9.988626
20
-4.598151
10
-9.975128
20
-4.597226
10
-9.961838
20
-4.596036
10
-9.948756
20
-4.594582
10
-9.935883
20
-4.592864
10
-9.923218
20
-4.590881
10
-9.910761
20
-4.588634
10
-9.898512
20
-4.586123
10
-9.886472
20
-4.583347
10
-9.874640
20
-4.580307
10
-9.863016
20
-4.577003
10
-9.851601
20
-4.573434
10
-9.840393
20
-4.569600
10
-9.829395
20
-4.565503
10
-9.818674
20
-4.561175
10
-9.808302
20
-4.556651
10
-9.798278
20
-4.551931
10
-9.788603
20
-4.547014
10
-9.779277
20
-4.541901
10
-9.770298
20
-4.536592
10
-9.761669
20
-4.531086
10
-9.753387
20
-4.525385
10
-9.745455
20
-4.519487
10
-9.737870
20
-4.513392
10
-9.730635
20
-4.507102
10
-9.723747
20
-4.500615
10
-9.717208
20
-4.493932
10
-9.711018
20
-4.487053
10
-9.705176
20
-4.479977
10
-9.699683
20
-4.472705
10
-9.694530
20
-4.465293
10
-9.689709
20
-4.457797
10
-9.685221
20
-4.450217
10
-9.681065
20
-4.442552
10
-9.677242
20
-4.434804
10
-9.673751
20
-4.426971
10
-9.670593
20
-4.419054
10
-9.667767
20
-4.411053
10
-9.665274
20
-4.402969
10
-9.663113
20
-4.394799
10
-9.661285
20
-4.386546
10
-9.659789
20
-4.378209
10
-9.658625
20
-4.369788
10
-9.657794
20
-4.361282
10
-9.657295
20
-4.352692
10
-9.657129
20
-4.344019
10
-9.657289
20
-4.335245
10
-9.657770
20
-4.326611
10
-9.658571
20
-4.318117
10
-9.659692
20
-4.309764
10
-9.661134
20
-4.301551
10
-9.662897
20
-4.293478
10
-9.664980
20
-4.285545
10
-9.667383
20
-4.277753
10
-9.670107
20
-4.270100
10
-9.673151
20
-4.262588
10
-9.676515
20
-4.255216
10
-9.680200
20
-4.247984
10
-9.684206
20
-4.240893
10
-9.688531
20
-4.233941
10
-9.693178
20
-4.227130
10
-9.698145
20
-4.220459
10
-9.703480
20
-4.213924
10
-9.709232
20
-4.207521
10
-9.715400
20
-4.201251
10
-9.721985
20
-4.195113
10
-9.728986
20
-4.189106
10
-9.736404
20
-4.183232
10
-9.744239
20
-4.177491
10
-9.752490
20
-4.171881
10
-9.761158
20
-4.166404
10
-9.770242
20
-4.161058
10
-9.779743
20
-4.155845
10
-9.789661
20
-4.150764
10
-9.799995
20
-4.145816
10
-9.810745
20
-4.140999
10
-9.821912
20
-4.136315
10
-9.833496
20
-4.131763
10
-9.841631
20
-4.128713
10
-9.850912
20
-4.125458
10
-9.861338
20
-4.121999
10
-9.872910
20
-4.118336
10
-9.885627
20
-4.114469
10
-9.899490
20
-4.110398
10
-9.914498
20
-4.106122
10
-9.930652
20
-4.101642
10
-9.947951
20
-4.096957
10
-9.966396
20
-4.092069
10
-9.985987
20
-4.086976
10
-10.006723
20
-4.081679
10
-10.028605
20
-4.076177
10
-10.051632
20
-4.070472
10
-10.075805
20
-4.064562
10
-10.101123
20
-4.058447
10
-10.126530
20
-4.052253
10
-10.150967
20
-4.046103
10
-10.174434
20
-4.039996
10
-10.196933
20
-4.033934
10
-10.218462
20
-4.027916
10
-10.239022
20
-4.021942
10
-10.258613
20
-4.016012
10
-10.277234
20
-4.010126
10
-10.294886
20
-4.004284
10
-10.311568
20
-3.998486
10
-10.327282
20
-3.992732
10
-10.342026
20
-3.987022
10
-10.355800
20
-3.981357
10
-10.368606
20
-3.975735
10
-10.380442
20
-3.970158
10
-10.391309
20
-3.964624
10
-10.404553
20
-3.957468
10
-10.417368
20
-3.950100
10
-10.429755
20
-3.942520
10
-10.441713
20
-3.934727
10
-10.453243
20
-3.926723
10
-10.464344
20
-3.918505
10
-10.475016
20
-3.910076
10
-10.485260
20
-3.901434
10
-10.495075
20
-3.892580
10
-10.504462
20
-3.883514
10
-10.513420
20
-3.874235
10
-10.521950
20
-3.864745
10
-10.530051
20
-3.855041
10
-10.537723
20
-3.845126
10
-10.544967
20
-3.834998
10
-10.551782
20
-3.824658
10
-10.558177
20
-3.814134
10
-10.564159
20
-3.803453
10
-10.569729
20
-3.792617
10
-10.574886
20
-3.781624
10
-10.579630
20
-3.770475
10
-10.583962
20
-3.759169
10
-10.587881
20
-3.747708
10
-10.591388
20
-3.736090
10
-10.594482
20
-3.724316
10
-10.597164
20
-3.712386
10
-10.599433
20
-3.700300
10
-10.601289
20
-3.688057
10
-10.602733
20
-3.675658
10
-10.603765
20
-3.663103
10
-10.604384
20
-3.650392
10
-10.604590
20
-3.637524
10
-10.604338
20
-3.623355
10
-10.603580
20
-3.609302
10
-10.602319
20
-3.595365
10
-10.600552
20
-3.581544
10
-10.598281
20
-3.567840
10
-10.595506
20
-3.554251
10
-10.592225
20
-3.540779
10
-10.588440
20
-3.527423
10
-10.584150
20
-3.514183
10
-10.579356
20
-3.501059
10
-10.574056
20
-3.488052
10
-10.568253
20
-3.475160
10
-10.561944
20
-3.462385
10
-10.555131
20
-3.449726
10
-10.547813
20
-3.437183
10
-10.539990
20
-3.424756
10
-10.531683
20
-3.412573
10
-10.522911
20
-3.400763
10
-10.513675
20
-3.389326
10
-10.503973
20
-3.378261
10
-10.493808
20
-3.367568
10
-10.483177
20
-3.357248
10
-10.472082
20
-3.347301
10
-10.460522
20
-3.337726
10
-10.448498
20
-3.328523
10
-10.436009
20
-3.319693
10
-10.423056
20
-3.311236
10
-10.409637
20
-3.303151
10
-10.395755
20
-3.295438
10
-10.381407
20
-3.288099
10
-10.366595
20
-3.281131
10
-10.351318
20
-3.274536
10
-10.335701
20
-3.268328
10
-10.319868
20
-3.262520
10
-10.303818
20
-3.257113
10
-10.287552
20
-3.252106
10
-10.271070
20
-3.247499
10
-10.254371
20
-3.243294
10
-10.237456
20
-3.239489
10
-10.220325
20
-3.236084
10
-10.202977
20
-3.233080
10
-10.185413
20
-3.230476
10
-10.167633
20
-3.228273
10
-10.149637
20
-3.226471
10
-10.131424
20
-3.225069
10
-10.112995
20
-3.224068
10
-10.094350
20
-3.223467
10
-10.075488
20
-3.223267
10
-10.054750
20
-3.223477
10
-10.034320
20
-3.224108
10
-10.014199
20
-3.225159
10
-9.994386
20
-3.226631
10
-9.974882
20
-3.228524
10
-9.955686
20
-3.230837
10
-9.936798
20
-3.233571
10
-9.918219
20
-3.236725
10
-9.899948
20
-3.240300
10
-9.881986
20
-3.244295
10
-9.864332
20
-3.248711
10
-9.846986
20
-3.253548
10
-9.829949
20
-3.258805
10
-9.813221
20
-3.264482
10
-9.796800
20
-3.270581
10
-9.780688
20
-3.277100
10
-9.764961
20
-3.284027
10
-9.749694
20
-3.291351
10
-9.734888
20
-3.299071
10
-9.720543
20
-3.307188
10
-9.706658
20
-3.315702
10
-9.693234
20
-3.324612
10
-9.680270
20
-3.333919
10
-9.667767
20
-3.343622
10
-9.655725
20
-3.353722
10
-9.644143
20
-3.364218
10
-9.633022
20
-3.375111
10
-9.622362
20
-3.386400
10
-9.612162
20
-3.398086
10
-9.602423
20
-3.410168
10
-9.593144
20
-3.422647
10
-9.584326
20
-3.435522
10
-9.575987
20
-3.448704
10
-9.568144
20
-3.462103
10
-9.560798
20
-3.475717
10
-9.553949
20
-3.489548
10
-9.547596
20
-3.503595
10
-9.541740
20
-3.517858
10
-9.536381
20
-3.532338
10
-9.531519
20
-3.547034
10
-9.527153
20
-3.561946
10
-9.523283
20
-3.577074
10
-9.519911
20
-3.592419
10
-9.517035
20
-3.607980
10
-9.514656
20
-3.623758
10
-9.512773
20
-3.639751
10
-9.511387
20
-3.655961
10
-9.510498
20
-3.672388
10
-9.701221
20
-3.686743
10
-9.703430
20
-3.669199
10
-9.706211
20
-3.652200
10
-9.709566
20
-3.635746
10
-9.713493
20
-3.619836
10
-9.717993
20
-3.604472
10
-9.723066
20
-3.589651
10
-9.728712
20
-3.575376
10
-9.734930
20
-3.561646
10
-9.741722
20
-3.548460
10
-9.749086
20
-3.535818
10
-9.757022
20
-3.523722
10
-9.765532
20
-3.512170
10
-9.774614
20
-3.501163
10
-9.784269
20
-3.490701
10
-9.794497
20
-3.480784
10
-9.805298
20
-3.471411
10
-9.816715
20
-3.462595
10
-9.828794
20
-3.454348
10
-9.841533
20
-3.446670
10
-9.854933
20
-3.439560
10
-9.868994
20
-3.433019
10
-9.883716
20
-3.427047
10
-9.899099
20
-3.421644
10
-9.915143
20
-3.416809
10
-9.931847
20
-3.412543
10
-9.949213
20
-3.408846
10
-9.967239
20
-3.405718
10
-9.985927
20
-3.403159
10
-10.005275
20
-3.401168
10
-10.025284
20
-3.399746
10
-10.045954
20
-3.398893
10
-10.067285
20
-3.398608
10
-10.089461
20
-3.398867
10
-10.110872
20
-3.399642
10
-10.131518
20
-3.400934
10
-10.151399
20
-3.402742
10
-10.170515
20
-3.405067
10
-10.188866
20
-3.407909
10
-10.206452
20
-3.411268
10
-10.223273
20
-3.415143
10
-10.239328
20
-3.419535
10
-10.254619
20
-3.424443
10
-10.269145
20
-3.429869
10
-10.282906
20
-3.435811
10
-10.295901
20
-3.442270
10
-10.308132
20
-3.449245
10
-10.319597
20
-3.456737
10
-10.330298
20
-3.464746
10
-10.340293
20
-3.473119
10
-10.349644
20
-3.481705
10
-10.358350
20
-3.490503
10
-10.366411
20
-3.499513
10
-10.373827
20
-3.508736
10
-10.380598
20
-3.518171
10
-10.386724
20
-3.527818
10
-10.392206
20
-3.537677
10
-10.397042
20
-3.547749
10
-10.401234
20
-3.558033
10
-10.404781
20
-3.568529
10
-10.407683
20
-3.579237
10
-10.409940
20
-3.590158
10
-10.411552
20
-3.601291
10
-10.412519
20
-3.612637
10
-10.412842
20
-3.624194
10
-10.412613
20
-3.634208
10
-10.411929
20
-3.643997
10
-10.410787
20
-3.653562
10
-10.409189
20
-3.662903
10
-10.407134
20
-3.672019
10
-10.404623
20
-3.680911
10
-10.401655
20
-3.689579
10
-10.398230
20
-3.698022
10
-10.394349
20
-3.706242
10
-10.390011
20
-3.714236
10
-10.385216
20
-3.722007
10
-10.379965
20
-3.729553
10
-10.374257
20
-3.736875
10
-10.368093
20
-3.743973
10
-10.361472
20
-3.750846
10
-10.354395
20
-3.757495
10
-10.346494
20
-3.764042
10
-10.337147
20
-3.770609
10
-10.326355
20
-3.777196
10
-10.314116
20
-3.783803
10
-10.300431
20
-3.790430
10
-10.285301
20
-3.797077
10
-10.268724
20
-3.803744
10
-10.250702
20
-3.810431
10
-10.231234
20
-3.817138
10
-10.210319
20
-3.823865
10
-10.187959
20
-3.830612
10
-10.164153
20
-3.837379
10
-10.138900
20
-3.844167
10
-10.112202
20
-3.850974
10
-10.084058
20
-3.857801
10
-10.054468
20
-3.864648
10
-10.024749
20
-3.871452
10
-9.996221
20
-3.878147
10
-9.968882
20
-3.884734
10
-9.942732
20
-3.891212
10
-9.917772
20
-3.897583
10
-9.894002
20
-3.903846
10
-9.871422
20
-3.910000
10
-9.850031
20
-3.916046
10
-9.829829
20
-3.921984
10
-9.810817
20
-3.927814
10
-9.792995
20
-3.933536
10
-9.776363
20
-3.939149
10
-9.760920
20
-3.944655
10
-9.746666
20
-3.950052
10
-9.733603
20
-3.955341
10
-9.721729
20
-3.960522
10
-9.705591
20
-3.968211
10
-9.689989
20
-3.976152
10
-9.674925
20
-3.984345
10
-9.660397
20
-3.992790
10
-9.646406
20
-4.001488
10
-9.632952
20
-4.010438
10
-9.620035
20
-4.019641
10
-9.607654
20
-4.029095
10
-9.595810
20
-4.038803
10
-9.584502
20
-4.048762
10
-9.573732
20
-4.058974
10
-9.563498
20
-4.069438
10
-9.553801
20
-4.080155
10
-9.544640
20
-4.091124
10
-9.536017
20
-4.102345
10
-9.527930
20
-4.113818
10
-9.520355
20
-4.125528
10
-9.513270
20
-4.137458
10
-9.506673
20
-4.149609
10
-9.500565
20
-4.161980
10
-9.494945
20
-4.174571
10
-9.489814
20
-4.187382
10
-9.485172
20
-4.200414
10
-9.481018
20
-4.213666
10
-9.477353
20
-4.227138
10
-9.474177
20
-4.240831
10
-9.471489
20
-4.254743
10
-9.469290
20
-4.268877
10
-9.467580
20
-4.283230
10
-9.466358
20
-4.297804
10
-9.465625
20
-4.312598
10
-9.465381
20
-4.327612
10
-9.465649
20
-4.342555
10
-9.466454
20
-4.357389
10
-9.467796
20
-4.372115
10
-9.469675
20
-4.386732
10
-9.472090
20
-4.401242
10
-9.475042
20
-4.415644
10
-9.478531
20
-4.429937
10
-9.482556
20
-4.444122
10
-9.487118
20
-4.458199
10
-9.492217
20
-4.472168
10
-9.497853
20
-4.486029
10
-9.504025
20
-4.499782
10
-9.510734
20
-4.513426
10
-9.517980
20
-4.526963
10
-9.525763
20
-4.540391
10
-9.534082
20
-4.553711
10
-9.542904
20
-4.566793
10
-9.552195
20
-4.579506
10
-9.561954
20
-4.591851
10
-9.572182
20
-4.603827
10
-9.582878
20
-4.615435
10
-9.594043
20
-4.626674
10
-9.605677
20
-4.637545
10
-9.617780
20
-4.648047
10
-9.630351
20
-4.658181
10
-9.643390
20
-4.667946
10
-9.656899
20
-4.677343
10
-9.670876
20
-4.686371
10
-9.685321
20
-4.695031
10
-9.700235
20
-4.703322
10
-9.715618
20
-4.711245
10
-9.731470
20
-4.718799
10
-9.747682
20
-4.725939
10
-9.764146
20
-4.732618
10
-9.780863
20
-4.738836
10
-9.797832
20
-4.744594
10
-9.815053
20
-4.749891
10
-9.832527
20
-4.754728
10
-9.850253
20
-4.759103
10
-9.868231
20
-4.763019
10
-9.886462
20
-4.766473
10
-9.904945
20
-4.769468
10
-9.923680
20
-4.772001
10
-9.942668
20
-4.774074
10
-9.961908
20
-4.775686
10
-9.981401
20
-4.776838
10
-10.001145
20
-4.777528
10
-10.021143
20
-4.777759
10
-10.046391
20
-4.777526
10
-10.071122
20
-4.776830
10
-10.095337
20
-4.775668
10
-10.119035
20
-4.774042
10
-10.142217
20
-4.771951
10
-10.164882
20
-4.769395
10
-10.187030
20
-4.766375
10
-10.208661
20
-4.762891
10
-10.229776
20
-4.758941
10
-10.250373
20
-4.754527
10
-10.270455
20
-4.749649
10
-10.290019
20
-4.744305
10
-10.309067
20
-4.738498
10
-10.327598
20
-4.732225
10
-10.345613
20
-4.725488
10
-10.363110
20
-4.718286
10
-10.380117
20
-4.710618
10
-10.396660
20
-4.702481
10
-10.412738
20
-4.693875
10
-10.428351
20
-4.684801
10
-10.443499
20
-4.675258
10
-10.458183
20
-4.665246
10
-10.472403
20
-4.654766
10
-10.486157
20
-4.643817
10
-10.499447
20
-4.632400
10
-10.512273
20
-4.620514
10
-10.524633
20
-4.608159
10
-10.536530
20
-4.595335
10
-10.547961
20
-4.582043
10
-10.558928
20
-4.568283
10
-10.569430
20
-4.554053
10
-10.579468
20
-4.539355
10
-10.588983
20
-4.524301
10
-10.597917
20
-4.509002
10
-10.606270
20
-4.493459
10
-10.614043
20
-4.477672
10
-10.621234
20
-4.461640
10
-10.627845
20
-4.445364
10
-10.633876
20
-4.428844
10
-10.639325
20
-4.412079
10
-10.644194
20
-4.395070
10
-10.648481
20
-4.377816
10
-10.652188
20
-4.360319
10
-10.655315
20
-4.342577
10
-10.657860
20
-4.324590
10
-10.659825
20
-4.306359
10
-10.661209
20
-4.287884
0
LWPOLYLINE
100
AcDbEntity
8
LASER_MARK
100
AcDbPolyline
90
176
70
1
10
-9.254150
20
-4.019995
10
-9.253365
20
-3.973847
10
-9.251010
20
-3.928968
10
-9.247085
20
-3.885359
10
-9.241589
20
-3.843019
10
-9.234524
20
-3.801949
10
-9.225888
20
-3.762149
10
-9.215682
20
-3.723619
10
-9.203906
20
-3.686359
10
-9.190560
20
-3.650368
10
-9.175644
20
-3.615647
10
-9.159158
20
-3.582195
10
-9.141101
20
-3.550014
10
-9.121474
20
-3.519102
10
-9.100278
20
-3.489460
10
-9.077511
20
-3.461087
10
-9.053174
20
-3.433984
10
-9.027595
20
-3.408344
10
-9.001103
20
-3.384357
10
-8.973698
20
-3.362025
10
-8.945380
20
-3.341347
10
-8.916148
20
-3.322323
10
-8.886003
20
-3.304953
10
-8.854945
20
-3.289238
10
-8.822974
20
-3.275177
10
-8.790089
20
-3.262770
10
-8.756291
20
-3.252018
10
-8.721580
20
-3.242919
10
-8.685956
20
-3.235475
10
-8.649418
20
-3.229685
10
-8.611967
20
-3.225550
10
-8.573603
20
-3.223068
10
-8.534326
20
-3.222241
10
-8.508467
20
-3.222630
10
-8.482928
20
-3.223795
10
-8.457710
20
-3.225738
10
-8.432813
20
-3.228458
10
-8.408235
20
-3.231954
10
-8.383978
20
-3.236228
10
-8.360042
20
-3.241279
10
-8.336426
20
-3.247107
10
-8.313130
20
-3.253712
10
-8.290155
20
-3.261094
10
-8.267500
20
-3.269253
10
-8.245166
20
-3.278189
10
-8.223152
20
-3.287902
10
-8.201459
20
-3.298392
10
-8.180086
20
-3.309660
10
-8.159033
20
-3.321704
10
-8.138451
20
-3.334443
10
-8.118490
20
-3.347795
10
-8.099150
20
-3.361760
10
-8.080431
20
-3.376338
10
-8.062332
20
-3.391529
10
-8.044854
20
-3.407332
10
-8.027997
20
-3.423748
10
-8.011761
20
-3.440778
10
-7.996146
20
-3.458420
10
-7.981152
20
-3.476674
10
-7.966778
20
-3.495542
10
-7.953026
20
-3.515022
10
-7.939894
20
-3.535116
10
-7.927383
20
-3.555822
10
-7.915493
20
-3.577141
10
-7.904224
20
-3.599072
10
-7.893607
20
-3.621497
10
-7.883676
20
-3.644294
10
-7.874429
20
-3.667463
10
-7.865868
20
-3.691005
10
-7.857991
20
-3.714919
10
-7.850799
20
-3.739206
10
-7.844292
20
-3.763866
10
-7.838470
20
-3.788898
10
-7.833333
20
-3.814302
10
-7.828881
20
-3.840079
10
-7.825114
20
-3.866229
10
-7.822032
20
-3.892751
10
-7.819635
20
-3.919645
10
-7.817923
20
-3.946912
10
-7.816895
20
-3.974551
10
-7.816553
20
-4.002563
10
-7.816913
20
-4.030958
10
-7.817995
20
-4.058976
10
-7.819797
20
-4.086617
10
-7.822321
20
-4.113882
10
-7.825565
20
-4.140771
10
-7.829530
20
-4.167283
10
-7.834217
20
-4.193418
10
-7.839624
20
-4.219177
10
-7.845752
20
-4.244560
10
-7.852602
20
-4.269566
10
-7.860172
20
-4.294195
10
-7.868463
20
-4.318448
10
-7.877475
20
-4.342324
10
-7.887209
20
-4.365824
10
-7.897663
20
-4.388947
10
-7.908838
20
-4.411694
10
-7.920674
20
-4.433910
10
-7.933111
20
-4.455442
10
-7.946148
20
-4.476288
10
-7.959787
20
-4.496449
10
-7.974026
20
-4.515926
10
-7.988866
20
-4.534717
10
-8.004307
20
-4.552824
10
-8.020349
20
-4.570245
10
-8.036992
20
-4.586982
10
-8.054235
20
-4.603034
10
-8.072079
20
-4.618401
10
-8.090524
20
-4.633083
10
-8.109570
20
-4.647080
10
-8.129217
20
-4.660392
10
-8.149464
20
-4.673019
10
-8.170312
20
-4.684961
10
-8.191565
20
-4.696198
10
-8.213026
20
-4.706710
10
-8.234696
20
-4.716498
10
-8.256573
20
-4.725560
10
-8.278659
20
-4.733897
10
-8.300954
20
-4.741510
10
-8.323456
20
-4.748397
10
-8.346167
20
-4.754559
10
-8.369086
20
-4.759997
10
-8.392213
20
-4.764709
10
-8.415549
20
-4.768696
10
-8.439093
20
-4.771959
10
-8.462845
20
-4.774496
10
-8.486806
20
-4.776309
10
-8.510975
20
-4.777396
10
-8.535352
20
-4.777759
10
-8.561707
20
-4.777358
10
-8.587711
20
-4.776157
10
-8.613361
20
-4.774154
10
-8.638660
20
-4.771350
10
-8.663605
20
-4.767745
10
-8.688199
20
-4.763339
10
-8.712440
20
-4.758132
10
-8.736328
20
-4.752124
10
-8.759864
20
-4.745315
10
-8.783047
20
-4.737704
10
-8.805878
20
-4.729293
10
-8.828357
20
-4.720081
10
-8.850483
20
-4.710067
10
-8.872256
20
-4.699252
10
-8.893678
20
-4.687637
10
-8.914746
20
-4.675220
10
-8.935322
20
-4.662110
10
-8.955265
20
-4.648415
10
-8.974575
20
-4.634136
10
-8.993253
20
-4.619272
10
-9.011297
20
-4.603823
10
-9.028709
20
-4.587789
10
-9.045487
20
-4.571171
10
-9.061633
20
-4.553967
10
-9.077146
20
-4.536179
10
-9.092027
20
-4.517806
10
-9.106274
20
-4.498849
10
-9.119888
20
-4.479306
10
-9.132870
20
-4.459179
10
-9.145219
20
-4.438467
10
-9.156935
20
-4.417170
10
-9.168018
20
-4.395288
10
-9.178448
20
-4.373034
10
-9.188205
20
-4.350620
10
-9.197289
20
-4.328045
10
-9.205701
20
-4.305310
10
-9.213439
20
-4.282415
10
-9.220505
20
-4.259360
10
-9.226897
20
-4.236144
10
-9.232617
20
-4.212769
10
-9.237664
20
-4.189233
10
-9.242038
20
-4.165536
10
-9.245739
20
-4.141680
10
-9.248767
20
-4.117664
10
-9.251122
20
-4.093487
10
-9.252805
20
-4.069150
10
-9.253814
20
-4.044653
0
LWPOLYLINE
100
AcDbEntity
8
LASER_MARK
100
AcDbPolyline
90
144
70
1
10
-9.049072
20
-4.023071
10
-9.048501
20
-4.056587
10
-9.046789
20
-4.089201
10
-9.043935
20
-4.120914
10
-9.039940
20
-4.151726
10
-9.034803
20
-4.181636
10
-9.028524
20
-4.210646
10
-9.021104
20
-4.238754
10
-9.012543
20
-4.265961
10
-9.002840
20
-4.292266
10
-8.991995
20
-4.317671
10
-8.980009
20
-4.342174
10
-8.966881
20
-4.365776
10
-8.952611
20
-4.388477
10
-8.937201
20
-4.410276
10
-8.920648
20
-4.431175
10
-8.902954
20
-4.451172
10
-8.884399
20
-4.470108
10
-8.865263
20
-4.487822
10
-8.845546
20
-4.504314
10
-8.825249
20
-4.519585
10
-8.804370
20
-4.533634
10
-8.782911
20
-4.546461
10
-8.760871
20
-4.558067
10
-8.738251
20
-4.568451
10
-8.715049
20
-4.577613
10
-8.691267
20
-4.585554
10
-8.666904
20
-4.592273
10
-8.641960
20
-4.597771
10
-8.616436
20
-4.602046
10
-8.590330
20
-4.605101
10
-8.563644
20
-4.606933
10
-8.536377
20
-4.607544
10
-8.508617
20
-4.606927
10
-8.481479
20
-4.605077
10
-8.454961
20
-4.601992
10
-8.429063
20
-4.597675
10
-8.403787
20
-4.592123
10
-8.379132
20
-4.585338
10
-8.355097
20
-4.577319
10
-8.331683
20
-4.568066
10
-8.308890
20
-4.557580
10
-8.286718
20
-4.545860
10
-8.265167
20
-4.532907
10
-8.244237
20
-4.518719
10
-8.223927
20
-4.503299
10
-8.204239
20
-4.486644
10
-8.185171
20
-4.468756
10
-8.166724
20
-4.449634
10
-8.149154
20
-4.429378
10
-8.132718
20
-4.408089
10
-8.117415
20
-4.385767
10
-8.103246
20
-4.362411
10
-8.090210
20
-4.338022
10
-8.078308
20
-4.312600
10
-8.067539
20
-4.286144
10
-8.057904
20
-4.258655
10
-8.049403
20
-4.230132
10
-8.042035
20
-4.200576
10
-8.035800
20
-4.169987
10
-8.030699
20
-4.138364
10
-8.026732
20
-4.105707
10
-8.023898
20
-4.072018
10
-8.022198
20
-4.037295
10
-8.021631
20
-4.001538
10
-8.021873
20
-3.978777
10
-8.022600
20
-3.956381
10
-8.023812
20
-3.934349
10
-8.025508
20
-3.912682
10
-8.027689
20
-3.891379
10
-8.030355
20
-3.870440
10
-8.033505
20
-3.849866
10
-8.037140
20
-3.829657
10
-8.041259
20
-3.809812
10
-8.045864
20
-3.790332
10
-8.050953
20
-3.771216
10
-8.056526
20
-3.752464
10
-8.062584
20
-3.734077
10
-8.069127
20
-3.716055
10
-8.076155
20
-3.698397
10
-8.083667
20
-3.681104
10
-8.091646
20
-3.664233
10
-8.100073
20
-3.647842
10
-8.108949
20
-3.631933
10
-8.118274
20
-3.616504
10
-8.128047
20
-3.601556
10
-8.138269
20
-3.587088
10
-8.148940
20
-3.573101
10
-8.160059
20
-3.559595
10
-8.171626
20
-3.546569
10
-8.183643
20
-3.534024
10
-8.196107
20
-3.521960
10
-8.209021
20
-3.510376
10
-8.222383
20
-3.499273
10
-8.236194
20
-3.488651
10
-8.250453
20
-3.478509
10
-8.265161
20
-3.468848
10
-8.280208
20
-3.459721
10
-8.295482
20
-3.451184
10
-8.310985
20
-3.443235
10
-8.326717
20
-3.435875
10
-8.342676
20
-3.429104
10
-8.358864
20
-3.422921
10
-8.375280
20
-3.417328
10
-8.391925
20
-3.412323
10
-8.408798
20
-3.407907
10
-8.425899
20
-3.404080
10
-8.443229
20
-3.400841
10
-8.460786
20
-3.398192
10
-8.478573
20
-3.396131
10
-8.496587
20
-3.394659
10
-8.514830
20
-3.393776
10
-8.533301
20
-3.393481
10
-8.559474
20
-3.394048
10
-8.585187
20
-3.395749
10
-8.610439
20
-3.398582
10
-8.635231
20
-3.402550
10
-8.659562
20
-3.407651
10
-8.683432
20
-3.413885
10
-8.706842
20
-3.421253
10
-8.729791
20
-3.429755
10
-8.752280
20
-3.439390
10
-8.774308
20
-3.450158
10
-8.795875
20
-3.462060
10
-8.816982
20
-3.475096
10
-8.837628
20
-3.489265
10
-8.857813
20
-3.504568
10
-8.877538
20
-3.521004
10
-8.896802
20
-3.538574
10
-8.915241
20
-3.557470
10
-8.932490
20
-3.577884
10
-8.948550
20
-3.599815
10
-8.963420
20
-3.623265
10
-8.977101
20
-3.648233
10
-8.989592
20
-3.674719
10
-9.000893
20
-3.702723
10
-9.011005
20
-3.732245
10
-9.019927
20
-3.763285
10
-9.027659
20
-3.795843
10
-9.034202
20
-3.829919
10
-9.039555
20
-3.865514
10
-9.043719
20
-3.902626
10
-9.046693
20
-3.941256
10
-9.048477
20
-3.981405
0
LWPOLYLINE
100
AcDbEntity
8
LASER_MARK
100
AcDbPolyline
90
6
70
1
10
-7.568408
20
-4.752124
10
-7.568408
20
-3.248901
10
-7.369482
20
-3.248901
10
-7.369482
20
-4.574731
10
-6.629150
20
-4.574731
10
-6.629150
20
-4.752124
0
LWPOLYLINE
100
AcDbEntity
8
LASER_MARK
100
AcDbPolyline
90
182
70
1
10
-5.405859
20
-3.248901
10
-5.206934
20
-3.248901
10
-5.206934
20
-4.117407
10
-5.207134
20
-4.145369
10
-5.207735
20
-4.172602
10
-5.208736
20
-4.199106
10
-5.210138
20
-4.224881
10
-5.211940
20
-4.249927
10
-5.214143
20
-4.274244
10
-5.216747
20
-4.297832
10
-5.219751
20
-4.320691
10
-5.223156
20
-4.342821
10
-5.226961
20
-4.364222
10
-5.231166
20
-4.384894
10
-5.235773
20
-4.404837
10
-5.240779
20
-4.424051
10
-5.246187
20
-4.442536
10
-5.251995
20
-4.460292
10
-5.258203
20
-4.477319
10
-5.264934
20
-4.493788
10
-5.272310
20
-4.509867
10
-5.280331
20
-4.525559
10
-5.288997
20
-4.540862
10
-5.298308
20
-4.555776
10
-5.308263
20
-4.570301
10
-5.318863
20
-4.584439
10
-5.330109
20
-4.598187
10
-5.341999
20
-4.611547
10
-5.354534
20
-4.624519
10
-5.367714
20
-4.637102
10
-5.381538
20
-4.649297
10
-5.396008
20
-4.661103
10
-5.411123
20
-4.672520
10
-5.426882
20
-4.683549
10
-5.443286
20
-4.694189
10
-5.460339
20
-4.704309
10
-5.478045
20
-4.713776
10
-5.496404
20
-4.722590
10
-5.515416
20
-4.730751
10
-5.535081
20
-4.738259
10
-5.555398
20
-4.745115
10
-5.576369
20
-4.751317
10
-5.597992
20
-4.756866
10
-5.620268
20
-4.761763
10
-5.643197
20
-4.766007
10
-5.666779
20
-4.769598
10
-5.691014
20
-4.772536
10
-5.715902
20
-4.774821
10
-5.741442
20
-4.776453
10
-5.767636
20
-4.777432
10
-5.794482
20
-4.777759
10
-5.820586
20
-4.777474
10
-5.846088
20
-4.776621
10
-5.870990
20
-4.775199
10
-5.895291
20
-4.773209
10
-5.918991
20
-4.770649
10
-5.942091
20
-4.767521
10
-5.964589
20
-4.763824
10
-5.986487
20
-4.759558
10
-6.007784
20
-4.754724
10
-6.028480
20
-4.749320
10
-6.048575
20
-4.743348
10
-6.068069
20
-4.736807
10
-6.086963
20
-4.729698
10
-6.105256
20
-4.722019
10
-6.122948
20
-4.713772
10
-6.140039
20
-4.704956
10
-6.156529
20
-4.695601
10
-6.172419
20
-4.685738
10
-6.187708
20
-4.675366
10
-6.202396
20
-4.664485
10
-6.216483
20
-4.653096
10
-6.229969
20
-4.641198
10
-6.242854
20
-4.628791
10
-6.255139
20
-4.615875
10
-6.266823
20
-4.602451
10
-6.277906
20
-4.588518
10
-6.288388
20
-4.574077
10
-6.298270
20
-4.559126
10
-6.307550
20
-4.543667
10
-6.316230
20
-4.527700
10
-6.324309
20
-4.511223
10
-6.331787
20
-4.494238
10
-6.338741
20
-4.476604
10
-6.345245
20
-4.458181
10
-6.351302
20
-4.438969
10
-6.356909
20
-4.418968
10
-6.362068
20
-4.398178
10
-6.366779
20
-4.376599
10
-6.371040
20
-4.354230
10
-6.374854
20
-4.331073
10
-6.378218
20
-4.307127
10
-6.381134
20
-4.282391
10
-6.383601
20
-4.256866
10
-6.385620
20
-4.230553
10
-6.387190
20
-4.203450
10
-6.388312
20
-4.175558
10
-6.388985
20
-4.146877
10
-6.389209
20
-4.117407
10
-6.389209
20
-3.248901
10
-6.190283
20
-3.248901
10
-6.190283
20
-4.116382
10
-6.190141
20
-4.140460
10
-6.189714
20
-4.163734
10
-6.189003
20
-4.186203
10
-6.188008
20
-4.207866
10
-6.186728
20
-4.228724
10
-6.185164
20
-4.248777
10
-6.183316
20
-4.268025
10
-6.181183
20
-4.286469
10
-6.178766
20
-4.304106
10
-6.176064
20
-4.320939
10
-6.173078
20
-4.336967
10
-6.169807
20
-4.352190
10
-6.166253
20
-4.366607
10
-6.162413
20
-4.380220
10
-6.158290
20
-4.393027
10
-6.153882
20
-4.405029
10
-6.149127
20
-4.416463
10
-6.143964
20
-4.427564
10
-6.138393
20
-4.438332
10
-6.132413
20
-4.448769
10
-6.126024
20
-4.458872
10
-6.119227
20
-4.468644
10
-6.112021
20
-4.478082
10
-6.104407
20
-4.487189
10
-6.096384
20
-4.495963
10
-6.087952
20
-4.504404
10
-6.079112
20
-4.512513
10
-6.069864
20
-4.520290
10
-6.060207
20
-4.527734
10
-6.050141
20
-4.534845
10
-6.039667
20
-4.541625
10
-6.028784
20
-4.548071
10
-6.017543
20
-4.554156
10
-6.005993
20
-4.559847
10
-5.994135
20
-4.565146
10
-5.981969
20
-4.570053
10
-5.969494
20
-4.574567
10
-5.956710
20
-4.578689
10
-5.943619
20
-4.582418
10
-5.930219
20
-4.585754
10
-5.916510
20
-4.588698
10
-5.902493
20
-4.591250
10
-5.888167
20
-4.593409
10
-5.873534
20
-4.595175
10
-5.858591
20
-4.596549
10
-5.843341
20
-4.597530
10
-5.827782
20
-4.598119
10
-5.811914
20
-4.598315
10
-5.784978
20
-4.597927
10
-5.759026
20
-4.596761
10
-5.734060
20
-4.594819
10
-5.710080
20
-4.592099
10
-5.687085
20
-4.588602
10
-5.665075
20
-4.584328
10
-5.644050
20
-4.579278
10
-5.624011
20
-4.573450
10
-5.604957
20
-4.566845
10
-5.586889
20
-4.559463
10
-5.569806
20
-4.551304
10
-5.553708
20
-4.542368
10
-5.538595
20
-4.532654
10
-5.524468
20
-4.522164
10
-5.511326
20
-4.510897
10
-5.499170
20
-4.498853
10
-5.487871
20
-4.485703
10
-5.477300
20
-4.471119
10
-5.467459
20
-4.455101
10
-5.458347
20
-4.437650
10
-5.449963
20
-4.418764
10
-5.442309
20
-4.398444
10
-5.435383
20
-4.376691
10
-5.429187
20
-4.353503
10
-5.423720
20
-4.328882
10
-5.418981
20
-4.302827
10
-5.414972
20
-4.275337
10
-5.411691
20
-4.246414
10
-5.409140
20
-4.216057
10
-5.407317
20
-4.184266
10
-5.406224
20
-4.151041
10
-5.405859
20
-4.116382
0
LWPOLYLINE
100
AcDbEntity
8
LASER_MARK
100
AcDbPolyline
90
8
70
1
10
-4.493262
20
-4.752124
10
-4.493262
20
-3.426294
10
-4.988525
20
-3.426294
10
-4.988525
20
-3.248901
10
-3.797021
20
-3.248901
10
-3.797021
20
-3.426294
10
-4.294336
20
-3.426294
10
-4.294336
20
-4.752124
0
LWPOLYLINE
100
AcDbEntity
8
LASER_MARK
100
AcDbPolyline
90
12
70
1
10
-3.588867
20
-4.752124
10
-3.588867
20
-3.248901
10
-2.501953
20
-3.248901
10
-2.501953
20
-3.426294
10
-3.389941
20
-3.426294
10
-3.389941
20
-3.886694
10
-2.558350
20
-3.886694
10
-2.558350
20
-4.063062
10
-3.389941
20
-4.063062
10
-3.389941
20
-4.574731
10
-2.467090
20
-4.574731
10
-2.467090
20
-4.752124
0
LWPOLYLINE
100
AcDbEntity
8
LASER_MARK
100
AcDbPolyline
90
6
70
1
10
-2.200488
20
-4.752124
10
-2.200488
20
-3.248901
10
-2.001562
20
-3.248901
10
-2.001562
20
-4.574731
10
-1.261230
20
-4.574731
10
-1.261230
20
-4.752124
0
LWPOLYLINE
100
AcDbEntity
8
LASER_MARK
100
AcDbPolyline
90
41
70
1
10
-0.756738
20
-4.752124
10
-0.756738
20
-4.115356
10
-1.336084
20
-3.248901
10
-1.094092
20
-3.248901
10
-0.797754
20
-3.702124
10
-0.787544
20
-3.718018
10
-0.777422
20
-3.733911
10
-0.767389
20
-3.749805
10
-0.757443
20
-3.765698
10
-0.747586
20
-3.781592
10
-0.737817
20
-3.797485
10
-0.728135
20
-3.813379
10
-0.718542
20
-3.829272
10
-0.709038
20
-3.845166
10
-0.699621
20
-3.861060
10
-0.690292
20
-3.876953
10
-0.681052
20
-3.892847
10
-0.671899
20
-3.908740
10
-0.662835
20
-3.924634
10
-0.653859
20
-3.940527
10
-0.644971
20
-3.956421
10
-0.636399
20
-3.941565
10
-0.627603
20
-3.926476
10
-0.618583
20
-3.911156
10
-0.609338
20
-3.895602
10
-0.599870
20
-3.879817
10
-0.590176
20
-3.863799
10
-0.580259
20
-3.847549
10
-0.570117
20
-3.831067
10
-0.559751
20
-3.814352
10
-0.549161
20
-3.797405
10
-0.538346
20
-3.780226
10
-0.527307
20
-3.762814
10
-0.516044
20
-3.745170
10
-0.504556
20
-3.727294
10
-0.492844
20
-3.709186
10
-0.480908
20
-3.690845
10
-0.189697
20
-3.248901
10
0.042041
20
-3.248901
10
-0.557813
20
-4.115356
10
-0.557813
20
-4.752124
0
LWPOLYLINE
100
AcDbEntity
8
LASER_MARK
100
AcDbPolyline
90
39
70
1
10
1.195605
20
-4.752124
10
0.613184
20
-3.248901
10
0.828516
20
-3.248901
10
1.219189
20
-4.340942
10
1.225025
20
-4.357285
10
1.230741
20
-4.373499
10
1.236337
20
-4.389584
10
1.241812
20
-4.405542
10
1.247167
20
-4.421371
10
1.252402
20
-4.437073
10
1.257517
20
-4.452646
10
1.262512
20
-4.468091
10
1.267387
20
-4.483408
10
1.272141
20
-4.498596
10
1.276776
20
-4.513657
10
1.281290
20
-4.528589
10
1.285684
20
-4.543393
10
1.289957
20
-4.558069
10
1.294111
20
-4.572617
10
1.298145
20
-4.587036
10
1.302547
20
-4.571655
10
1.307037
20
-4.556274
10
1.311615
20
-4.540894
10
1.316281
20
-4.525513
10
1.321036
20
-4.510132
10
1.325878
20
-4.494751
10
1.330809
20
-4.479370
10
1.335828
20
-4.463989
10
1.340935
20
-4.448608
10
1.346130
20
-4.433228
10
1.351413
20
-4.417847
10
1.356784
20
-4.402466
10
1.362243
20
-4.387085
10
1.367791
20
-4.371704
10
1.373427
20
-4.356323
10
1.379150
20
-4.340942
10
1.785205
20
-3.248901
10
1.988232
20
-3.248901
10
1.399658
20
-4.752124
0
LWPOLYLINE
100
AcDbEntity
8
LASER_MARK
100
AcDbPolyline
90
4
70
1
10
2.200488
20
-4.752124
10
2.200488
20
-3.248901
10
2.399414
20
-3.248901
10
2.399414
20
-4.752124
0
LWPOLYLINE
100
AcDbEntity
8
LASER_MARK
100
AcDbPolyline
90
179
70
1
10
2.741895
20
-4.752124
10
2.741895
20
-3.248901
10
3.305859
20
-3.248901
10
3.327126
20
-3.249080
10
3.347860
20
-3.249614
10
3.368062
20
-3.250506
10
3.387730
20
-3.251753
10
3.406866
20
-3.253357
10
3.425470
20
-3.255318
10
3.443540
20
-3.257635
10
3.461078
20
-3.260309
10
3.478083
20
-3.263339
10
3.494555
20
-3.266726
10
3.510495
20
-3.270469
10
3.525902
20
-3.274568
10
3.540776
20
-3.279024
10
3.555117
20
-3.283837
10
3.568926
20
-3.289006
10
3.582202
20
-3.294531
10
3.595036
20
-3.300427
10
3.607516
20
-3.306708
10
3.619645
20
-3.313373
10
3.631421
20
-3.320422
10
3.642844
20
-3.327856
10
3.653915
20
-3.335675
10
3.664634
20
-3.343878
10
3.675000
20
-3.352466
10
3.685014
20
-3.361438
10
3.694675
20
-3.370795
10
3.703983
20
-3.380536
10
3.712939
20
-3.390662
10
3.721543
20
-3.401172
10
3.729794
20
-3.412067
10
3.737693
20
-3.423346
10
3.745239
20
-3.435010
10
3.752379
20
-3.446900
10
3.759058
20
-3.458858
10
3.765276
20
-3.470884
10
3.771034
20
-3.482979
10
3.776331
20
-3.495141
10
3.781168
20
-3.507372
10
3.785544
20
-3.519671
10
3.789459
20
-3.532037
10
3.792914
20
-3.544472
10
3.795908
20
-3.556975
10
3.798441
20
-3.569546
10
3.800514
20
-3.582185
10
3.802126
20
-3.594893
10
3.803278
20
-3.607668
10
3.803969
20
-3.620511
10
3.804199
20
-3.633423
10
3.803995
20
-3.645427
10
3.803382
20
-3.657343
10
3.802361
20
-3.669171
10
3.800931
20
-3.680911
10
3.799092
20
-3.692563
10
3.796845
20
-3.704127
10
3.794190
20
-3.715602
10
3.791125
20
-3.726990
10
3.787653
20
-3.738289
10
3.783772
20
-3.749500
10
3.779482
20
-3.760623
10
3.774783
20
-3.771658
10
3.769676
20
-3.782605
10
3.764161
20
-3.793464
10
3.758237
20
-3.804235
10
3.751904
20
-3.814917
10
3.745159
20
-3.825427
10
3.737997
20
-3.835681
10
3.730419
20
-3.845679
10
3.722424
20
-3.855420
10
3.714013
20
-3.864905
10
3.705185
20
-3.874133
10
3.695940
20
-3.883105
10
3.686279
20
-3.891821
10
3.676202
20
-3.900281
10
3.665707
20
-3.908484
10
3.654797
20
-3.916431
10
3.643469
20
-3.924121
10
3.631725
20
-3.931555
10
3.619565
20
-3.938733
10
3.606988
20
-3.945654
10
3.593994
20
-3.952319
10
3.610795
20
-3.957538
10
3.627103
20
-3.963198
10
3.642918
20
-3.969298
10
3.658241
20
-3.975839
10
3.673071
20
-3.982821
10
3.687409
20
-3.990243
10
3.701254
20
-3.998105
10
3.714606
20
-4.006409
10
3.727465
20
-4.015153
10
3.739832
20
-4.024337
10
3.751706
20
-4.033962
10
3.763087
20
-4.044028
10
3.773976
20
-4.054534
10
3.784372
20
-4.065481
10
3.794276
20
-4.076868
10
3.803687
20
-4.088696
10
3.812565
20
-4.100881
10
3.820870
20
-4.113338
10
3.828602
20
-4.126067
10
3.835762
20
-4.139069
10
3.842349
20
-4.152343
10
3.848363
20
-4.165889
10
3.853804
20
-4.179708
10
3.858673
20
-4.193799
10
3.862969
20
-4.208162
10
3.866692
20
-4.222798
10
3.869842
20
-4.237706
10
3.872420
20
-4.252887
10
3.874424
20
-4.268340
10
3.875856
20
-4.284065
10
3.876716
20
-4.300063
10
3.877002
20
-4.316333
10
3.876828
20
-4.329477
10
3.876305
20
-4.342505
10
3.875434
20
-4.355416
10
3.874214
20
-4.368211
10
3.872646
20
-4.380891
10
3.870729
20
-4.393454
10
3.868464
20
-4.405900
10
3.865851
20
-4.418231
10
3.862889
20
-4.430446
10
3.859578
20
-4.442544
10
3.855919
20
-4.454526
10
3.851912
20
-4.466393
10
3.847556
20
-4.478142
10
3.842852
20
-4.489776
10
3.837799
20
-4.501294
10
3.832397
20
-4.512695
10
3.826740
20
-4.523876
10
3.820918
20
-4.534733
10
3.814932
20
-4.545265
10
3.808781
20
-4.555473
10
3.802467
20
-4.565357
10
3.795988
20
-4.574916
10
3.789345
20
-4.584150
10
3.782538
20
-4.593060
10
3.775566
20
-4.601646
10
3.768431
20
-4.609907
10
3.761131
20
-4.617844
10
3.753667
20
-4.625456
10
3.746038
20
-4.632744
10
3.738246
20
-4.639708
10
3.730289
20
-4.646347
10
3.722168
20
-4.652661
10
3.713835
20
-4.658719
10
3.705241
20
-4.664589
10
3.696387
20
-4.670271
10
3.687273
20
-4.675764
10
3.677898
20
-4.681070
10
3.668263
20
-4.686187
10
3.658367
20
-4.691115
10
3.648212
20
-4.695856
10
3.637796
20
-4.700408
10
3.627119
20
-4.704772
10
3.616182
20
-4.708947
10
3.604985
20
-4.712935
10
3.593528
20
-4.716734
10
3.581810
20
-4.720345
10
3.569831
20
-4.723768
10
3.557593
20
-4.727002
10
3.545050
20
-4.730044
10
3.532158
20
-4.732890
10
3.518918
20
-4.735540
10
3.505330
20
-4.737993
10
3.491393
20
-4.740250
10
3.477108
20
-4.742311
10
3.462474
20
-4.744175
10
3.447491
20
-4.745844
10
3.432161
20
-4.747316
10
3.416481
20
-4.748591
10
3.400454
20
-4.749671
10
3.384077
20
-4.750554
10
3.367353
20
-4.751241
10
3.350280
20
-4.751731
10
3.332858
20
-4.752026
10
3.315088
20
-4.752124
0
LWPOLYLINE
100
AcDbEntity
8
LASER_MARK
100
AcDbPolyline
90
99
70
1
10
2.940820
20
-3.880542
10
3.265869
20
-3.880542
10
3.282111
20
-3.880474
10
3.297768
20
-3.880270
10
3.312841
20
-3.879929
10
3.327328
20
-3.879453
10
3.341231
20
-3.878840
10
3.354549
20
-3.878091
10
3.367283
20
-3.877205
10
3.379431
20
-3.876184
10
3.390995
20
-3.875027
10
3.401974
20
-3.873733
10
3.412368
20
-3.872303
10
3.422177
20
-3.870737
10
3.431402
20
-3.869034
10
3.440041
20
-3.867196
10
3.448096
20
-3.865221
10
3.455566
20
-3.863110
10
3.464905
20
-3.860174
10
3.473951
20
-3.857006
10
3.482705
20
-3.853605
10
3.491167
20
-3.849973
10
3.499336
20
-3.846107
10
3.507212
20
-3.842010
10
3.514797
20
-3.837680
10
3.522089
20
-3.833118
10
3.529088
20
-3.828323
10
3.535795
20
-3.823296
10
3.542210
20
-3.818037
10
3.548332
20
-3.812546
10
3.554162
20
-3.806822
10
3.559700
20
-3.800866
10
3.564945
20
-3.794678
10
3.569897
20
-3.788257
10
3.574554
20
-3.781616
10
3.578910
20
-3.774767
10
3.582965
20
-3.767709
10
3.586720
20
-3.760443
10
3.590175
20
-3.752969
10
3.593329
20
-3.745287
10
3.596183
20
-3.737396
10
3.598737
20
-3.729297
10
3.600990
20
-3.720990
10
3.602942
20
-3.712474
10
3.604595
20
-3.703750
10
3.605946
20
-3.694818
10
3.606998
20
-3.685678
10
3.607749
20
-3.676329
10
3.608199
20
-3.666772
10
3.608350
20
-3.657007
10
3.608209
20
-3.647720
10
3.607789
20
-3.638574
10
3.607088
20
-3.629568
10
3.606107
20
-3.620702
10
3.604845
20
-3.611976
10
3.603303
20
-3.603390
10
3.601480
20
-3.594945
10
3.599377
20
-3.586639
10
3.596994
20
-3.578474
10
3.594331
20
-3.570449
10
3.591387
20
-3.562565
10
3.588162
20
-3.554820
10
3.584657
20
-3.547216
10
3.580872
20
-3.539752
10
3.576807
20
-3.532428
10
3.572461
20
-3.525244
10
3.567855
20
-3.518271
10
3.563008
20
-3.511578
10
3.557921
20
-3.505165
10
3.552594
20
-3.499033
10
3.547026
20
-3.493181
10
3.541219
20
-3.487609
10
3.535170
20
-3.482318
10
3.528882
20
-3.477307
10
3.522353
20
-3.472577
10
3.515584
20
-3.468127
10
3.508574
20
-3.463957
10
3.501324
20
-3.460068
10
3.493834
20
-3.456459
10
3.486104
20
-3.453130
10
3.478133
20
-3.450082
10
3.469922
20
-3.447314
10
3.461218
20
-3.444769
10
3.451769
20
-3.442388
10
3.441575
20
-3.440171
10
3.430637
20
-3.438118
10
3.418953
20
-3.436229
10
3.406524
20
-3.434505
10
3.393350
20
-3.432945
10
3.379431
20
-3.431549
10
3.364767
20
-3.430317
10
3.349358
20
-3.429250
10
3.333204
20
-3.428347
10
3.316306
20
-3.427608
10
3.298662
20
-3.427033
10
3.280273
20
-3.426622
10
3.261139
20
-3.426376
10
3.241260
20
-3.426294
10
2.940820
20
-3.426294
0
LWPOLYLINE
100
AcDbEntity
8
LASER_MARK
100
AcDbPolyline
90
115
70
1
10
2.940820
20
-4.574731
10
3.315088
20
-4.574731
10
3.326912
20
-4.574703
10
3.338287
20
-4.574619
10
3.349214
20
-4.574479
10
3.359692
20
-4.574283
10
3.369722
20
-4.574030
10
3.379303
20
-4.573722
10
3.388435
20
-4.573358
10
3.397119
20
-4.572937
10
3.405354
20
-4.572460
10
3.413141
20
-4.571928
10
3.420479
20
-4.571339
10
3.427368
20
-4.570694
10
3.433809
20
-4.569993
10
3.439801
20
-4.569236
10
3.445345
20
-4.568423
10
3.450439
20
-4.567554
10
3.458939
20
-4.565952
10
3.467262
20
-4.564221
10
3.475409
20
-4.562363
10
3.483380
20
-4.560376
10
3.491175
20
-4.558261
10
3.498793
20
-4.556018
10
3.506235
20
-4.553647
10
3.513501
20
-4.551147
10
3.520591
20
-4.548520
10
3.527504
20
-4.545764
10
3.534241
20
-4.542880
10
3.540802
20
-4.539868
10
3.547187
20
-4.536728
10
3.553395
20
-4.533459
10
3.559427
20
-4.530063
10
3.565283
20
-4.526538
10
3.570987
20
-4.522847
10
3.576563
20
-4.518952
10
3.582010
20
-4.514852
10
3.587329
20
-4.510548
10
3.592520
20
-4.506040
10
3.597583
20
-4.501328
10
3.602518
20
-4.496411
10
3.607324
20
-4.491290
10
3.612003
20
-4.485965
10
3.616553
20
-4.480436
10
3.620975
20
-4.474702
10
3.625269
20
-4.468764
10
3.629434
20
-4.462621
10
3.633472
20
-4.456275
10
3.637381
20
-4.449724
10
3.641162
20
-4.442969
10
3.644763
20
-4.436045
10
3.648132
20
-4.428990
10
3.651268
20
-4.421802
10
3.654172
20
-4.414482
10
3.656843
20
-4.407030
10
3.659283
20
-4.399446
10
3.661490
20
-4.391729
10
3.663464
20
-4.383881
10
3.665207
20
-4.375900
10
3.666717
20
-4.367787
10
3.667994
20
-4.359542
10
3.669040
20
-4.351164
10
3.669853
20
-4.342655
10
3.670434
20
-4.334013
10
3.670782
20
-4.325239
10
3.670898
20
-4.316333
10
3.670730
20
-4.305909
10
3.670226
20
-4.295657
10
3.669384
20
-4.285577
10
3.668207
20
-4.275670
10
3.666693
20
-4.265935
10
3.664842
20
-4.256372
10
3.662655
20
-4.246981
10
3.660132
20
-4.237762
10
3.657272
20
-4.228716
10
3.654076
20
-4.219842
10
3.650543
20
-4.211140
10
3.646674
20
-4.202611
10
3.642468
20
-4.194253
10
3.637926
20
-4.186068
10
3.633047
20
-4.178055
10
3.627832
20
-4.170215
10
3.622319
20
-4.162605
10
3.616545
20
-4.155283
10
3.610511
20
-4.148249
10
3.604216
20
-4.141504
10
3.597661
20
-4.135047
10
3.590846
20
-4.128879
10
3.583770
20
-4.122999
10
3.576434
20
-4.117407
10
3.568838
20
-4.112104
10
3.560981
20
-4.107089
10
3.552864
20
-4.102363
10
3.544487
20
-4.097925
10
3.535849
20
-4.093775
10
3.526951
20
-4.089914
10
3.517793
20
-4.086341
10
3.508374
20
-4.083057
10
3.498563
20
-4.080015
10
3.488227
20
-4.077169
10
3.477366
20
-4.074519
10
3.465981
20
-4.072066
10
3.454070
20
-4.069809
10
3.441636
20
-4.067748
10
3.428676
20
-4.065883
10
3.415192
20
-4.064215
10
3.401183
20
-4.062743
10
3.386649
20
-4.061467
10
3.371591
20
-4.060388
10
3.356007
20
-4.059505
10
3.339900
20
-4.058818
10
3.323267
20
-4.058327
10
3.306110
20
-4.058033
10
3.288428
20
-4.057935
10
2.940820
20
-4.057935
0
LWPOLYLINE
100
AcDbEntity
8
LASER_MARK
100
AcDbPolyline
90
12
70
1
10
4.154883
20
-4.752124
10
4.154883
20
-3.248901
10
5.241797
20
-3.248901
10
5.241797
20
-3.426294
10
4.353809
20
-3.426294
10
4.353809
20
-3.886694
10
5.185400
20
-3.886694
10
5.185400
20
-4.063062
10
4.353809
20
-4.063062
10
4.353809
20
-4.574731
10
5.276660
20
-4.574731
10
5.276660
20
-4.752124
0
LWPOLYLINE
100
AcDbEntity
8
LASER_MARK
100
AcDbPolyline
90
4
70
1
10
5.456104
20
-4.300952
10
5.456104
20
-4.115356
10
6.023145
20
-4.115356
10
6.023145
20
-4.300952
0
LWPOLYLINE
100
AcDbEntity
8
LASER_MARK
100
AcDbPolyline
90
322
70
1
10
7.323340
20
-4.225073
10
7.522266
20
-4.275317
10
7.514056
20
-4.305496
10
7.505066
20
-4.334766
10
7.495295
20
-4.363126
10
7.484743
20
-4.390578
10
7.473409
20
-4.417120
10
7.461295
20
-4.442752
10
7.448399
20
-4.467476
10
7.434723
20
-4.491290
10
7.420265
20
-4.514195
10
7.405027
20
-4.536191
10
7.389007
20
-4.557278
10
7.372206
20
-4.577455
10
7.354624
20
-4.596723
10
7.336261
20
-4.615082
10
7.317117
20
-4.632532
10
7.297192
20
-4.649072
10
7.276594
20
-4.664655
10
7.255432
20
-4.679233
10
7.233704
20
-4.692806
10
7.211412
20
-4.705373
10
7.188555
20
-4.716934
10
7.165133
20
-4.727491
10
7.141147
20
-4.737042
10
7.116595
20
-4.745587
10
7.091479
20
-4.753127
10
7.065799
20
-4.759662
10
7.039553
20
-4.765192
10
7.012743
20
-4.769716
10
6.985367
20
-4.773235
10
6.957428
20
-4.775748
10
6.928923
20
-4.777256
10
6.899854
20
-4.777759
10
6.869831
20
-4.777372
10
6.840517
20
-4.776213
10
6.811912
20
-4.774280
10
6.784016
20
-4.771574
10
6.756830
20
-4.768096
10
6.730352
20
-4.763844
10
6.704583
20
-4.758819
10
6.679523
20
-4.753021
10
6.655172
20
-4.746450
10
6.631530
20
-4.739106
10
6.608597
20
-4.730989
10
6.586372
20
-4.722099
10
6.564857
20
-4.712436
10
6.544051
20
-4.702000
10
6.523954
20
-4.690791
10
6.504565
20
-4.678809
10
6.485816
20
-4.666093
10
6.467635
20
-4.652685
10
6.450023
20
-4.638584
10
6.432980
20
-4.623790
10
6.416506
20
-4.608303
10
6.400600
20
-4.592123
10
6.385264
20
-4.575250
10
6.370496
20
-4.557684
10
6.356296
20
-4.539426
10
6.342666
20
-4.520474
10
6.329604
20
-4.500829
10
6.317111
20
-4.480492
10
6.305187
20
-4.459461
10
6.293832
20
-4.437738
10
6.283045
20
-4.415321
10
6.272827
20
-4.392212
10
6.263204
20
-4.368648
10
6.254202
20
-4.344868
10
6.245821
20
-4.320871
10
6.238060
20
-4.296658
10
6.230920
20
-4.272229
10
6.224401
20
-4.247584
10
6.218503
20
-4.222722
10
6.213226
20
-4.197644
10
6.208570
20
-4.172350
10
6.204535
20
-4.146839
10
6.201120
20
-4.121112
10
6.198326
20
-4.095169
10
6.196153
20
-4.069010
10
6.194601
20
-4.042634
10
6.193670
20
-4.016042
10
6.193359
20
-3.989233
10
6.193710
20
-3.960116
10
6.194761
20
-3.931467
10
6.196514
20
-3.903287
10
6.198967
20
-3.875575
10
6.202121
20
-3.848332
10
6.205976
20
-3.821558
10
6.210533
20
-3.795252
10
6.215790
20
-3.769415
10
6.221748
20
-3.744047
10
6.228407
20
-3.719147
10
6.235767
20
-3.694716
10
6.243828
20
-3.670753
10
6.252590
20
-3.647260
10
6.262053
20
-3.624234
10
6.272216
20
-3.601678
10
6.283081
20
-3.579590
10
6.294593
20
-3.558065
10
6.306697
20
-3.537196
10
6.319394
20
-3.516985
10
6.332684
20
-3.497430
10
6.346567
20
-3.478533
10
6.361043
20
-3.460292
10
6.376111
20
-3.442708
10
6.391772
20
-3.425781
10
6.408027
20
-3.409511
10
6.424873
20
-3.393898
10
6.442313
20
-3.378942
10
6.460345
20
-3.364642
10
6.478971
20
-3.351000
10
6.498189
20
-3.338014
10
6.518000
20
-3.325686
10
6.538403
20
-3.314014
10
6.559234
20
-3.303025
10
6.580324
20
-3.292745
10
6.601675
20
-3.283174
10
6.623286
20
-3.274312
10
6.645158
20
-3.266159
10
6.667290
20
-3.258715
10
6.689682
20
-3.251980
10
6.712335
20
-3.245953
10
6.735248
20
-3.240636
10
6.758422
20
-3.236028
10
6.781855
20
-3.232129
10
6.805550
20
-3.228938
10
6.829504
20
-3.226457
10
6.853719
20
-3.224685
10
6.878194
20
-3.223621
10
6.902930
20
-3.223267
10
6.930848
20
-3.223715
10
6.958205
20
-3.225061
10
6.985001
20
-3.227304
10
7.011237
20
-3.230444
10
7.036911
20
-3.234482
10
7.062025
20
-3.239417
10
7.086579
20
-3.245248
10
7.110571
20
-3.251978
10
7.134003
20
-3.259604
10
7.156874
20
-3.268127
10
7.179184
20
-3.277548
10
7.200934
20
-3.287866
10
7.222123
20
-3.299081
10
7.242751
20
-3.311194
10
7.262818
20
-3.324203
10
7.282324
20
-3.338110
10
7.301186
20
-3.352830
10
7.319318
20
-3.368279
10
7.336722
20
-3.384457
10
7.353397
20
-3.401364
10
7.369342
20
-3.419000
10
7.384559
20
-3.437365
10
7.399047
20
-3.456459
10
7.412805
20
-3.476282
10
7.425835
20
-3.496834
10
7.438136
20
-3.518114
10
7.449707
20
-3.540124
10
7.460550
20
-3.562863
10
7.470664
20
-3.586331
10
7.480048
20
-3.610528
10
7.488704
20
-3.635454
10
7.496631
20
-3.661108
10
7.300781
20
-3.707251
10
7.294060
20
-3.687092
10
7.286971
20
-3.667629
10
7.279512
20
-3.648864
10
7.271686
20
-3.630795
10
7.263491
20
-3.613424
10
7.254927
20
-3.596749
10
7.245995
20
-3.580771
10
7.236694
20
-3.565491
10
7.227025
20
-3.550907
10
7.216988
20
-3.537020
10
7.206581
20
-3.523830
10
7.195807
20
-3.511337
10
7.184664
20
-3.499541
10
7.173152
20
-3.488442
10
7.161272
20
-3.478040
10
7.149023
20
-3.468335
10
7.136390
20
-3.459271
10
7.123357
20
-3.450791
10
7.109922
20
-3.442896
10
7.096088
20
-3.435587
10
7.081852
20
-3.428861
10
7.067216
20
-3.422721
10
7.052180
20
-3.417166
10
7.036743
20
-3.412195
10
7.020906
20
-3.407809
10
7.004668
20
-3.404008
10
6.988029
20
-3.400791
10
6.970990
20
-3.398160
10
6.953550
20
-3.396113
10
6.935710
20
-3.394651
10
6.917469
20
-3.393774
10
6.898828
20
-3.393481
10
6.877389
20
-3.393806
10
6.856395
20
-3.394779
10
6.835845
20
-3.396401
10
6.815739
20
-3.398672
10
6.796079
20
-3.401592
10
6.776863
20
-3.405161
10
6.758091
20
-3.409379
10
6.739764
20
-3.414246
10
6.721882
20
-3.419761
10
6.704445
20
-3.425925
10
6.687451
20
-3.432739
10
6.670903
20
-3.440201
10
6.654799
20
-3.448312
10
6.639140
20
-3.457072
10
6.623925
20
-3.466480
10
6.609155
20
-3.476538
10
6.594878
20
-3.487142
10
6.581141
20
-3.498191
10
6.567945
20
-3.509685
10
6.555290
20
-3.521623
10
6.543176
20
-3.534006
10
6.531602
20
-3.546833
10
6.520569
20
-3.560105
10
6.510077
20
-3.573822
10
6.500125
20
-3.587983
10
6.490715
20
-3.602589
10
6.481845
20
-3.617639
10
6.473515
20
-3.633134
10
6.465727
20
-3.649074
10
6.458479
20
-3.665458
10
6.451772
20
-3.682287
10
6.445605
20
-3.699561
10
6.439894
20
-3.717090
10
6.434550
20
-3.734688
10
6.429576
20
-3.752354
10
6.424969
20
-3.770088
10
6.420732
20
-3.787890
10
6.416862
20
-3.805761
10
6.413362
20
-3.823699
10
6.410229
20
-3.841705
10
6.407466
20
-3.859780
10
6.405070
20
-3.877922
10
6.403044
20
-3.896133
10
6.401385
20
-3.914412
10
6.400096
20
-3.932759
10
6.399174
20
-3.951174
10
6.398622
20
-3.969657
10
6.398438
20
-3.988208
10
6.398656
20
-4.011986
10
6.399311
20
-4.035384
10
6.400402
20
-4.058401
10
6.401930
20
-4.081038
10
6.403895
20
-4.103294
10
6.406296
20
-4.125170
10
6.409134
20
-4.146665
10
6.412408
20
-4.167780
10
6.416119
20
-4.188514
10
6.420267
20
-4.208867
10
6.424851
20
-4.228840
10
6.429872
20
-4.248433
10
6.435330
20
-4.267645
10
6.441224
20
-4.286477
10
6.447554
20
-4.304928
10
6.454321
20
-4.322998
10
6.461549
20
-4.340596
10
6.469262
20
-4.357629
10
6.477459
20
-4.374097
10
6.486140
20
-4.390001
10
6.495307
20
-4.405340
10
6.504958
20
-4.420114
10
6.515094
20
-4.434323
10
6.525714
20
-4.447968
10
6.536819
20
-4.461047
10
6.548409
20
-4.473562
10
6.560483
20
-4.485512
10
6.573042
20
-4.496898
10
6.586086
20
-4.507719
10
6.599614
20
-4.517974
10
6.613627
20
-4.527666
10
6.628125
20
-4.536792
10
6.642941
20
-4.545360
10
6.657909
20
-4.553374
10
6.673030
20
-4.560837
10
6.688303
20
-4.567746
10
6.703728
20
-4.574103
10
6.719305
20
-4.579906
10
6.735034
20
-4.585158
10
6.750916
20
-4.589856
10
6.766949
20
-4.594002
10
6.783135
20
-4.597594
10
6.799473
20
-4.600635
10
6.815964
20
-4.603122
10
6.832606
20
-4.605057
10
6.849401
20
-4.606438
10
6.866348
20
-4.607268
10
6.883447
20
-4.607544
10
6.904139
20
-4.607167
10
6.924431
20
-4.606038
10
6.944322
20
-4.604155
10
6.963812
20
-4.601520
10
6.982902
20
-4.598131
10
7.001591
20
-4.593990
10
7.019880
20
-4.589095
10
7.037769
20
-4.583447
10
7.055256
20
-4.577047
10
7.072343
20
-4.569893
10
7.089030
20
-4.561986
10
7.105316
20
-4.553326
10
7.121202
20
-4.543914
10
7.136687
20
-4.533748
10
7.151771
20
-4.522829
10
7.166455
20
-4.511157
10
7.180646
20
-4.498744
10
7.194253
20
-4.485603
10
7.207274
20
-4.471732
10
7.219711
20
-4.457132
10
7.231563
20
-4.441803
10
7.242831
20
-4.425745
10
7.253513
20
-4.408959
10
7.263611
20
-4.391443
10
7.273124
20
-4.373198
10
7.282052
20
-4.354224
10
7.290395
20
-4.334522
10
7.298154
20
-4.314090
10
7.305327
20
-4.292929
10
7.311916
20
-4.271040
10
7.317920
20
-4.248421
0
LWPOLYLINE
100
AcDbEntity
8
LASER_MARK
100
AcDbPolyline
90
176
70
1
10
7.706836
20
-4.019995
10
7.707621
20
-3.973847
10
7.709976
20
-3.928968
10
7.713902
20
-3.885359
10
7.719397
20
-3.843019
10
7.726463
20
-3.801949
10
7.735098
20
-3.762149
10
7.745304
20
-3.723619
10
7.757080
20
-3.686359
10
7.770426
20
-3.650368
10
7.785342
20
-3.615647
10
7.801829
20
-3.582195
10
7.819885
20
-3.550014
10
7.839512
20
-3.519102
10
7.860709
20
-3.489460
10
7.883475
20
-3.461087
10
7.907813
20
-3.433984
10
7.933391
20
-3.408344
10
7.959883
20
-3.384357
10
7.987288
20
-3.362025
10
8.015607
20
-3.341347
10
8.044838
20
-3.322323
10
8.074983
20
-3.304953
10
8.106041
20
-3.289238
10
8.138013
20
-3.275177
10
8.170897
20
-3.262770
10
8.204695
20
-3.252018
10
8.239406
20
-3.242919
10
8.275031
20
-3.235475
10
8.311568
20
-3.229685
10
8.349019
20
-3.225550
10
8.387383
20
-3.223068
10
8.426660
20
-3.222241
10
8.452519
20
-3.222630
10
8.478058
20
-3.223795
10
8.503276
20
-3.225738
10
8.528174
20
-3.228458
10
8.552751
20
-3.231954
10
8.577008
20
-3.236228
10
8.600945
20
-3.241279
10
8.624561
20
-3.247107
10
8.647856
20
-3.253712
10
8.670831
20
-3.261094
10
8.693486
20
-3.269253
10
8.715820
20
-3.278189
10
8.737834
20
-3.287902
10
8.759528
20
-3.298392
10
8.780901
20
-3.309660
10
8.801953
20
-3.321704
10
8.822535
20
-3.334443
10
8.842496
20
-3.347795
10
8.861836
20
-3.361760
10
8.880556
20
-3.376338
10
8.898654
20
-3.391529
10
8.916132
20
-3.407332
10
8.932989
20
-3.423748
10
8.949225
20
-3.440778
10
8.964840
20
-3.458420
10
8.979834
20
-3.476674
10
8.994208
20
-3.495542
10
9.007961
20
-3.515022
10
9.021092
20
-3.535116
10
9.033603
20
-3.555822
10
9.045493
20
-3.577141
10
9.056763
20
-3.599072
10
9.067379
20
-3.621497
10
9.077311
20
-3.644294
10
9.086557
20
-3.667463
10
9.095119
20
-3.691005
10
9.102995
20
-3.714919
10
9.110187
20
-3.739206
10
9.116694
20
-3.763866
10
9.122516
20
-3.788898
10
9.127653
20
-3.814302
10
9.132105
20
-3.840079
10
9.135872
20
-3.866229
10
9.138954
20
-3.892751
10
9.141351
20
-3.919645
10
9.143064
20
-3.946912
10
9.144091
20
-3.974551
10
9.144434
20
-4.002563
10
9.144073
20
-4.030958
10
9.142992
20
-4.058976
10
9.141189
20
-4.086617
10
9.138666
20
-4.113882
10
9.135421
20
-4.140771
10
9.131456
20
-4.167283
10
9.126770
20
-4.193418
10
9.121362
20
-4.219177
10
9.115234
20
-4.244560
10
9.108385
20
-4.269566
10
9.100814
20
-4.294195
10
9.092523
20
-4.318448
10
9.083511
20
-4.342324
10
9.073778
20
-4.365824
10
9.063324
20
-4.388947
10
9.052148
20
-4.411694
10
9.040312
20
-4.433910
10
9.027876
20
-4.455442
10
9.014838
20
-4.476288
10
9.001199
20
-4.496449
10
8.986960
20
-4.515926
10
8.972120
20
-4.534717
10
8.956679
20
-4.552824
10
8.940637
20
-4.570245
10
8.923995
20
-4.586982
10
8.906751
20
-4.603034
10
8.888907
20
-4.618401
10
8.870462
20
-4.633083
10
8.851416
20
-4.647080
10
8.831770
20
-4.660392
10
8.811522
20
-4.673019
10
8.790674
20
-4.684961
10
8.769421
20
-4.696198
10
8.747960
20
-4.706710
10
8.726291
20
-4.716498
10
8.704413
20
-4.725560
10
8.682327
20
-4.733897
10
8.660033
20
-4.741510
10
8.637530
20
-4.748397
10
8.614819
20
-4.754559
10
8.591900
20
-4.759997
10
8.568773
20
-4.764709
10
8.545437
20
-4.768696
10
8.521893
20
-4.771959
10
8.498141
20
-4.774496
10
8.474181
20
-4.776309
10
8.450012
20
-4.777396
10
8.425635
20
-4.777759
10
8.399279
20
-4.777358
10
8.373276
20
-4.776157
10
8.347625
20
-4.774154
10
8.322327
20
-4.771350
10
8.297381
20
-4.767745
10
8.272787
20
-4.763339
10
8.248547
20
-4.758132
10
8.224658
20
-4.752124
10
8.201122
20
-4.745315
10
8.177939
20
-4.737704
10
8.155108
20
-4.729293
10
8.132629
20
-4.720081
10
8.110503
20
-4.710067
10
8.088730
20
-4.699252
10
8.067309
20
-4.687637
10
8.046240
20
-4.675220
10
8.025664
20
-4.662110
10
8.005721
20
-4.648415
10
7.986411
20
-4.634136
10
7.967734
20
-4.619272
10
7.949689
20
-4.603823
10
7.932278
20
-4.587789
10
7.915499
20
-4.571171
10
7.899353
20
-4.553967
10
7.883840
20
-4.536179
10
7.868960
20
-4.517806
10
7.854712
20
-4.498849
10
7.841098
20
-4.479306
10
7.828116
20
-4.459179
10
7.815768
20
-4.438467
10
7.804052
20
-4.417170
10
7.792969
20
-4.395288
10
7.782539
20
-4.373034
10
7.772781
20
-4.350620
10
7.763697
20
-4.328045
10
7.755286
20
-4.305310
10
7.747547
20
-4.282415
10
7.740482
20
-4.259360
10
7.734089
20
-4.236144
10
7.728369
20
-4.212769
10
7.723322
20
-4.189233
10
7.718948
20
-4.165536
10
7.715247
20
-4.141680
10
7.712219
20
-4.117664
10
7.709864
20
-4.093487
10
7.708182
20
-4.069150
10
7.707172
20
-4.044653
0
LWPOLYLINE
100
AcDbEntity
8
LASER_MARK
100
AcDbPolyline
90
144
70
1
10
7.911914
20
-4.023071
10
7.912485
20
-4.056587
10
7.914197
20
-4.089201
10
7.917051
20
-4.120914
10
7.921046
20
-4.151726
10
7.926183
20
-4.181636
10
7.932462
20
-4.210646
10
7.939882
20
-4.238754
10
7.948444
20
-4.265961
10
7.958147
20
-4.292266
10
7.968991
20
-4.317671
10
7.980978
20
-4.342174
10
7.994106
20
-4.365776
10
8.008375
20
-4.388477
10
8.023786
20
-4.410276
10
8.040338
20
-4.431175
10
8.058032
20
-4.451172
10
8.076587
20
-4.470108
10
8.095723
20
-4.487822
10
8.115440
20
-4.504314
10
8.135738
20
-4.519585
10
8.156616
20
-4.533634
10
8.178075
20
-4.546461
10
8.200115
20
-4.558067
10
8.222736
20
-4.568451
10
8.245937
20
-4.577613
10
8.269719
20
-4.585554
10
8.294082
20
-4.592273
10
8.319026
20
-4.597771
10
8.344551
20
-4.602046
10
8.370656
20
-4.605101
10
8.397342
20
-4.606933
10
8.424609
20
-4.607544
10
8.452369
20
-4.606927
10
8.479508
20
-4.605077
10
8.506026
20
-4.601992
10
8.531923
20
-4.597675
10
8.557199
20
-4.592123
10
8.581855
20
-4.585338
10
8.605889
20
-4.577319
10
8.629303
20
-4.568066
10
8.652096
20
-4.557580
10
8.674268
20
-4.545860
10
8.695819
20
-4.532907
10
8.716750
20
-4.518719
10
8.737059
20
-4.503299
10
8.756748
20
-4.486644
10
8.775816
20
-4.468756
10
8.794263
20
-4.449634
10
8.811833
20
-4.429378
10
8.828269
20
-4.408089
10
8.843572
20
-4.385767
10
8.857741
20
-4.362411
10
8.870776
20
-4.338022
10
8.882679
20
-4.312600
10
8.893447
20
-4.286144
10
8.903082
20
-4.258655
10
8.911584
20
-4.230132
10
8.918952
20
-4.200576
10
8.925186
20
-4.169987
10
8.930287
20
-4.138364
10
8.934255
20
-4.105707
10
8.937088
20
-4.072018
10
8.938789
20
-4.037295
10
8.939355
20
-4.001538
10
8.939113
20
-3.978777
10
8.938386
20
-3.956381
10
8.937175
20
-3.934349
10
8.935478
20
-3.912682
10
8.933297
20
-3.891379
10
8.930632
20
-3.870440
10
8.927481
20
-3.849866
10
8.923846
20
-3.829657
10
8.919727
20
-3.809812
10
8.915123
20
-3.790332
10
8.910034
20
-3.771216
10
8.904460
20
-3.752464
10
8.898402
20
-3.734077
10
8.891859
20
-3.716055
10
8.884832
20
-3.698397
10
8.877319
20
-3.681104
10
8.869341
20
-3.664233
10
8.860913
20
-3.647842
10
8.852037
20
-3.631933
10
8.842712
20
-3.616504
10
8.832939
20
-3.601556
10
8.822717
20
-3.587088
10
8.812047
20
-3.573101
10
8.800928
20
-3.559595
10
8.789360
20
-3.546569
10
8.777344
20
-3.534024
10
8.764879
20
-3.521960
10
8.751965
20
-3.510376
10
8.738603
20
-3.499273
10
8.724792
20
-3.488651
10
8.710533
20
-3.478509
10
8.695825
20
-3.468848
10
8.680779
20
-3.459721
10
8.665504
20
-3.451184
10
8.650001
20
-3.443235
10
8.634270
20
-3.435875
10
8.618310
20
-3.429104
10
8.602122
20
-3.422921
10
8.585706
20
-3.417328
10
8.569061
20
-3.412323
10
8.552188
20
-3.407907
10
8.535087
20
-3.404080
10
8.517758
20
-3.400841
10
8.500200
20
-3.398192
10
8.482414
20
-3.396131
10
8.464399
20
-3.394659
10
8.446157
20
-3.393776
10
8.427686
20
-3.393481
10
8.401512
20
-3.394048
10
8.375799
20
-3.395749
10
8.350547
20
-3.398582
10
8.325755
20
-3.402550
10
8.301424
20
-3.407651
10
8.277554
20
-3.413885
10
8.254144
20
-3.421253
10
8.231195
20
-3.429755
10
8.208707
20
-3.439390
10
8.186679
20
-3.450158
10
8.165111
20
-3.462060
10
8.144005
20
-3.475096
10
8.123359
20
-3.489265
10
8.103173
20
-3.504568
10
8.083449
20
-3.521004
10
8.064185
20
-3.538574
10
8.045746
20
-3.557470
10
8.028496
20
-3.577884
10
8.012436
20
-3.599815
10
7.997566
20
-3.623265
10
7.983886
20
-3.648233
10
7.971395
20
-3.674719
10
7.960093
20
-3.702723
10
7.949982
20
-3.732245
10
7.941060
20
-3.763285
10
7.933327
20
-3.795843
10
7.926784
20
-3.829919
10
7.921431
20
-3.865514
10
7.917267
20
-3.902626
10
7.914293
20
-3.941256
10
7.912509
20
-3.981405
0
LWPOLYLINE
100
AcDbEntity
8
LASER_MARK
100
AcDbPolyline
90
147
70
1
10
9.400781
20
-4.752124
10
9.400781
20
-3.248901
10
9.918604
20
-3.248901
10
9.940197
20
-3.248985
10
9.961141
20
-3.249238
10
9.981437
20
-3.249658
10
10.001083
20
-3.250247
10
10.020081
20
-3.251004
10
10.038430
20
-3.251929
10
10.056130
20
-3.253023
10
10.073181
20
-3.254285
10
10.089583
20
-3.255715
10
10.105337
20
-3.257313
10
10.120441
20
-3.259079
10
10.134897
20
-3.261014
10
10.148704
20
-3.263117
10
10.161861
20
-3.265388
10
10.174370
20
-3.267827
10
10.186230
20
-3.270435
10
10.202232
20
-3.274340
10
10.217937
20
-3.278622
10
10.233346
20
-3.283280
10
10.248459
20
-3.288315
10
10.263275
20
-3.293726
10
10.277795
20
-3.299514
10
10.292018
20
-3.305678
10
10.305945
20
-3.312219
10
10.319575
20
-3.319137
10
10.332909
20
-3.326431
10
10.345947
20
-3.334101
10
10.358688
20
-3.342148
10
10.371133
20
-3.350571
10
10.383282
20
-3.359371
10
10.395134
20
-3.368548
10
10.406689
20
-3.378101
10
10.421323
20
-3.390880
10
10.435489
20
-3.404096
10
10.449185
20
-3.417748
10
10.462413
20
-3.431837
10
10.475172
20
-3.446363
10
10.487463
20
-3.461325
10
10.499285
20
-3.476724
10
10.510638
20
-3.492560
10
10.521523
20
-3.508832
10
10.531939
20
-3.525541
10
10.541887
20
-3.542686
10
10.551366
20
-3.560268
10
10.560376
20
-3.578286
10
10.568917
20
-3.596741
10
10.576990
20
-3.615633
10
10.584595
20
-3.634961
10
10.591734
20
-3.654682
10
10.598413
20
-3.674751
10
10.604632
20
-3.695169
10
10.610390
20
-3.715935
10
10.615687
20
-3.737049
10
10.620523
20
-3.758512
10
10.624899
20
-3.780324
10
10.628815
20
-3.802484
10
10.632269
20
-3.824993
10
10.635263
20
-3.847850
10
10.637797
20
-3.871055
10
10.639870
20
-3.894609
10
10.641482
20
-3.918511
10
10.642633
20
-3.942762
10
10.643324
20
-3.967362
10
10.643555
20
-3.992310
10
10.643398
20
-4.013562
10
10.642930
20
-4.034511
10
10.642149
20
-4.055155
10
10.641055
20
-4.075494
10
10.639649
20
-4.095530
10
10.637931
20
-4.115260
10
10.635900
20
-4.134687
10
10.633557
20
-4.153809
10
10.630902
20
-4.172626
10
10.627934
20
-4.191139
10
10.624653
20
-4.209348
10
10.621060
20
-4.227252
10
10.617155
20
-4.244852
10
10.612937
20
-4.262148
10
10.608407
20
-4.279139
10
10.603564
20
-4.295825
10
10.598478
20
-4.312181
10
10.593214
20
-4.328181
10
10.587775
20
-4.343824
10
10.582159
20
-4.359111
10
10.576368
20
-4.374041
10
10.570399
20
-4.388615
10
10.564255
20
-4.402832
10
10.557935
20
-4.416693
10
10.551438
20
-4.430197
10
10.544765
20
-4.443345
10
10.537915
20
-4.456137
10
10.530890
20
-4.468571
10
10.523688
20
-4.480650
10
10.516310
20
-4.492372
10
10.508756
20
-4.503737
10
10.501025
20
-4.514746
10
10.493161
20
-4.525433
10
10.485204
20
-4.535831
10
10.477155
20
-4.545940
10
10.469014
20
-4.555762
10
10.460781
20
-4.565295
10
10.452456
20
-4.574539
10
10.444038
20
-4.583495
10
10.435529
20
-4.592163
10
10.426927
20
-4.600542
10
10.418233
20
-4.608633
10
10.409447
20
-4.616436
10
10.400569
20
-4.623950
10
10.391599
20
-4.631176
10
10.382537
20
-4.638113
10
10.373382
20
-4.644762
10
10.364136
20
-4.651123
10
10.354723
20
-4.657245
10
10.345070
20
-4.663179
10
10.335176
20
-4.668925
10
10.325043
20
-4.674483
10
10.314669
20
-4.679852
10
10.304054
20
-4.685033
10
10.293200
20
-4.690026
10
10.282104
20
-4.694830
10
10.270769
20
-4.699447
10
10.259193
20
-4.703875
10
10.247377
20
-4.708114
10
10.235321
20
-4.712166
10
10.223024
20
-4.716029
10
10.210487
20
-4.719704
10
10.197710
20
-4.723191
10
10.184692
20
-4.726489
10
10.171432
20
-4.729593
10
10.157928
20
-4.732497
10
10.144179
20
-4.735201
10
10.130186
20
-4.737704
10
10.115949
20
-4.740008
10
10.101468
20
-4.742110
10
10.086742
20
-4.744013
10
10.071771
20
-4.745715
10
10.056557
20
-4.747217
10
10.041098
20
-4.748519
10
10.025394
20
-4.749621
10
10.009447
20
-4.750522
10
9.993255
20
-4.751223
10
9.976818
20
-4.751723
10
9.960138
20
-4.752024
10
9.943213
20
-4.752124
0
LWPOLYLINE
100
AcDbEntity
8
LASER_MARK
100
AcDbPolyline
90
115
70
1
10
9.599707
20
-4.574731
10
9.920654
20
-4.574731
10
9.938989
20
-4.574623
10
9.956823
20
-4.574299
10
9.974157
20
-4.573758
10
9.990990
20
-4.573001
10
10.007322
20
-4.572028
10
10.023153
20
-4.570838
10
10.038484
20
-4.569432
10
10.053314
20
-4.567810
10
10.067644
20
-4.565972
10
10.081472
20
-4.563917
10
10.094800
20
-4.561646
10
10.107628
20
-4.559158
10
10.119955
20
-4.556455
10
10.131781
20
-4.553535
10
10.143106
20
-4.550398
10
10.153931
20
-4.547046
10
10.164371
20
-4.543497
10
10.174543
20
-4.539772
10
10.184446
20
-4.535871
10
10.194081
20
-4.531793
10
10.203448
20
-4.527539
10
10.212546
20
-4.523109
10
10.221376
20
-4.518503
10
10.229938
20
-4.513721
10
10.238231
20
-4.508762
10
10.246256
20
-4.503627
10
10.254012
20
-4.498316
10
10.261501
20
-4.492828
10
10.268720
20
-4.487165
10
10.275672
20
-4.481325
10
10.282355
20
-4.475309
10
10.288770
20
-4.469116
10
10.297491
20
-4.460082
10
10.305969
20
-4.450667
10
10.314202
20
-4.440872
10
10.322191
20
-4.430696
10
10.329935
20
-4.420140
10
10.337436
20
-4.409203
10
10.344691
20
-4.397886
10
10.351703
20
-4.386188
10
10.358470
20
-4.374109
10
10.364993
20
-4.361650
10
10.371271
20
-4.348811
10
10.377306
20
-4.335591
10
10.383095
20
-4.321991
10
10.388641
20
-4.308010
10
10.393942
20
-4.293648
10
10.398999
20
-4.278906
10
10.403780
20
-4.263776
10
10.408252
20
-4.248249
10
10.412415
20
-4.232325
10
10.416270
20
-4.216005
10
10.419817
20
-4.199288
10
10.423056
20
-4.182175
10
10.425986
20
-4.164665
10
10.428607
20
-4.146759
10
10.430920
20
-4.128456
10
10.432925
20
-4.109757
10
10.434621
20
-4.090661
10
10.436009
20
-4.071169
10
10.437089
20
-4.051280
10
10.437860
20
-4.030994
10
10.438322
20
-4.010312
10
10.438477
20
-3.989233
10
10.438174
20
-3.960180
10
10.437267
20
-3.931980
10
10.435755
20
-3.904633
10
10.433638
20
-3.878139
10
10.430916
20
-3.852498
10
10.427590
20
-3.827710
10
10.423658
20
-3.803776
10
10.419122
20
-3.780695
10
10.413981
20
-3.758466
10
10.408236
20
-3.737091
10
10.401885
20
-3.716570
10
10.394930
20
-3.696901
10
10.387369
20
-3.678085
10
10.379204
20
-3.660123
10
10.370434
20
-3.643014
10
10.361060
20
-3.626758
10
10.351252
20
-3.611255
10
10.341185
20
-3.596405
10
10.330857
20
-3.582207
10
10.320268
20
-3.568663
10
10.309420
20
-3.555772
10
10.298310
20
-3.543533
10
10.286941
20
-3.531947
10
10.275311
20
-3.521014
10
10.263421
20
-3.510734
10
10.251271
20
-3.501107
10
10.238860
20
-3.492133
10
10.226189
20
-3.483812
10
10.213257
20
-3.476144
10
10.200065
20
-3.469128
10
10.186613
20
-3.462765
10
10.172900
20
-3.457056
10
10.162522
20
-3.453331
10
10.151383
20
-3.449846
10
10.139483
20
-3.446601
10
10.126822
20
-3.443597
10
10.113400
20
-3.440834
10
10.099216
20
-3.438310
10
10.084272
20
-3.436027
10
10.068567
20
-3.433984
10
10.052101
20
-3.432182
10
10.034873
20
-3.430620
10
10.016885
20
-3.429298
10
9.998135
20
-3.428217
10
9.978625
20
-3.427375
10
9.958353
20
-3.426775
10
9.937321
20
-3.426414
10
9.915527
20
-3.426294
10
9.599707
20
-3.426294
0
LWPOLYLINE
100
AcDbEntity
8
LASER_MARK
100
AcDbPolyline
90
12
70
1
10
10.921436
20
-4.752124
10
10.921436
20
-3.248901
10
12.008350
20
-3.248901
10
12.008350
20
-3.426294
10
11.120361
20
-3.426294
10
11.120361
20
-3.886694
10
11.951953
20
-3.886694
10
11.951953
20
-4.063062
10
11.120361
20
-4.063062
10
11.120361
20
-4.574731
10
12.043213
20
-4.574731
10
12.043213
20
-4.752124
0
LWPOLYLINE
100
AcDbEntity
8
LASER_MARK
100
AcDbPolyline
90
147
70
1
10
12.318018
20
-4.752124
10
12.318018
20
-3.248901
10
12.835840
20
-3.248901
10
12.857433
20
-3.248985
10
12.878378
20
-3.249238
10
12.898673
20
-3.249658
10
12.918320
20
-3.250247
10
12.937317
20
-3.251004
10
12.955666
20
-3.251929
10
12.973366
20
-3.253023
10
12.990417
20
-3.254285
10
13.006820
20
-3.255715
10
13.022573
20
-3.257313
10
13.037678
20
-3.259079
10
13.052133
20
-3.261014
10
13.065940
20
-3.263117
10
13.079098
20
-3.265388
10
13.091607
20
-3.267827
10
13.103467
20
-3.270435
10
13.119468
20
-3.274340
10
13.135174
20
-3.278622
10
13.150583
20
-3.283280
10
13.165695
20
-3.288315
10
13.180511
20
-3.293726
10
13.195031
20
-3.299514
10
13.209254
20
-3.305678
10
13.223181
20
-3.312219
10
13.236812
20
-3.319137
10
13.250146
20
-3.326431
10
13.263183
20
-3.334101
10
13.275925
20
-3.342148
10
13.288370
20
-3.350571
10
13.300518
20
-3.359371
10
13.312370
20
-3.368548
10
13.323926
20
-3.378101
10
13.338560
20
-3.390880
10
13.352725
20
-3.404096
10
13.366421
20
-3.417748
10
13.379649
20
-3.431837
10
13.392409
20
-3.446363
10
13.404699
20
-3.461325
10
13.416521
20
-3.476724
10
13.427875
20
-3.492560
10
13.438760
20
-3.508832
10
13.449176
20
-3.525541
10
13.459123
20
-3.542686
10
13.468602
20
-3.560268
10
13.477612
20
-3.578286
10
13.486154
20
-3.596741
10
13.494227
20
-3.615633
10
13.501831
20
-3.634961
10
13.508971
20
-3.654682
10
13.515650
20
-3.674751
10
13.521868
20
-3.695169
10
13.527626
20
-3.715935
10
13.532923
20
-3.737049
10
13.537760
20
-3.758512
10
13.542136
20
-3.780324
10
13.546051
20
-3.802484
10
13.549506
20
-3.824993
10
13.552500
20
-3.847850
10
13.555033
20
-3.871055
10
13.557106
20
-3.894609
10
13.558718
20
-3.918511
10
13.559870
20
-3.942762
10
13.560561
20
-3.967362
10
13.560791
20
-3.992310
10
13.560635
20
-4.013562
10
13.560166
20
-4.034511
10
13.559385
20
-4.055155
10
13.558292
20
-4.075494
10
13.556886
20
-4.095530
10
13.555167
20
-4.115260
10
13.553137
20
-4.134687
10
13.550793
20
-4.153809
10
13.548138
20
-4.172626
10
13.545170
20
-4.191139
10
13.541889
20
-4.209348
10
13.538297
20
-4.227252
10
13.534391
20
-4.244852
10
13.530173
20
-4.262148
10
13.525643
20
-4.279139
10
13.520801
20
-4.295825
10
13.515714
20
-4.312181
10
13.510451
20
-4.328181
10
13.505011
20
-4.343824
10
13.499396
20
-4.359111
10
13.493604
20
-4.374041
10
13.487636
20
-4.388615
10
13.481491
20
-4.402832
10
13.475171
20
-4.416693
10
13.468674
20
-4.430197
10
13.462001
20
-4.443345
10
13.455152
20
-4.456137
10
13.448126
20
-4.468571
10
13.440924
20
-4.480650
10
13.433546
20
-4.492372
10
13.425992
20
-4.503737
10
13.418262
20
-4.514746
10
13.410397
20
-4.525433
10
13.402440
20
-4.535831
10
13.394391
20
-4.545940
10
13.386250
20
-4.555762
10
13.378017
20
-4.565295
10
13.369692
20
-4.574539
10
13.361274
20
-4.583495
10
13.352765
20
-4.592163
10
13.344163
20
-4.600542
10
13.335469
20
-4.608633
10
13.326684
20
-4.616436
10
13.317805
20
-4.623950
10
13.308835
20
-4.631176
10
13.299773
20
-4.638113
10
13.290619
20
-4.644762
10
13.281372
20
-4.651123
10
13.271959
20
-4.657245
10
13.262306
20
-4.663179
10
13.252413
20
-4.668925
10
13.242279
20
-4.674483
10
13.231905
20
-4.679852
10
13.221291
20
-4.685033
10
13.210436
20
-4.690026
10
13.199341
20
-4.694830
10
13.188005
20
-4.699447
10
13.176430
20
-4.703875
10
13.164614
20
-4.708114
10
13.152557
20
-4.712166
10
13.140261
20
-4.716029
10
13.127724
20
-4.719704
10
13.114946
20
-4.723191
10
13.101929
20
-4.726489
10
13.088669
20
-4.729593
10
13.075164
20
-4.732497
10
13.061416
20
-4.735201
10
13.047423
20
-4.737704
10
13.033185
20
-4.740008
10
13.018704
20
-4.742110
10
13.003978
20
-4.744013
10
12.989008
20
-4.745715
10
12.973793
20
-4.747217
10
12.958334
20
-4.748519
10
12.942631
20
-4.749621
10
12.926683
20
-4.750522
10
12.910491
20
-4.751223
10
12.894055
20
-4.751723
10
12.877374
20
-4.752024
10
12.860449
20
-4.752124
0
LWPOLYLINE
100
AcDbEntity
8
LASER_MARK
100
AcDbPolyline
90
115
70
1
10
12.516943
20
-4.574731
10
12.837891
20
-4.574731
10
12.856225
20
-4.574623
10
12.874060
20
-4.574299
10
12.891393
20
-4.573758
10
12.908226
20
-4.573001
10
12.924558
20
-4.572028
10
12.940390
20
-4.570838
10
12.955720
20
-4.569432
10
12.970551
20
-4.567810
10
12.984880
20
-4.565972
10
12.998709
20
-4.563917
10
13.012037
20
-4.561646
10
13.024864
20
-4.559158
10
13.037191
20
-4.556455
10
13.049017
20
-4.553535
10
13.060342
20
-4.550398
10
13.071167
20
-4.547046
10
13.081607
20
-4.543497
10
13.091779
20
-4.539772
10
13.101682
20
-4.535871
10
13.111317
20
-4.531793
10
13.120684
20
-4.527539
10
13.129782
20
-4.523109
10
13.138612
20
-4.518503
10
13.147174
20
-4.513721
10
13.155467
20
-4.508762
10
13.163492
20
-4.503627
10
13.171249
20
-4.498316
10
13.178737
20
-4.492828
10
13.185957
20
-4.487165
10
13.192908
20
-4.481325
10
13.199591
20
-4.475309
10
13.206006
20
-4.469116
10
13.214728
20
-4.460082
10
13.223205
20
-4.450667
10
13.231438
20
-4.440872
10
13.239427
20
-4.430696
10
13.247172
20
-4.420140
10
13.254672
20
-4.409203
10
13.261928
20
-4.397886
10
13.268939
20
-4.386188
10
13.275706
20
-4.374109
10
13.282229
20
-4.361650
10
13.288508
20
-4.348811
10
13.294542
20
-4.335591
10
13.300332
20
-4.321991
10
13.305877
20
-4.308010
10
13.311178
20
-4.293648
10
13.316235
20
-4.278906
10
13.321016
20
-4.263776
10
13.325488
20
-4.248249
10
13.329652
20
-4.232325
10
13.333507
20
-4.216005
10
13.337054
20
-4.199288
10
13.340292
20
-4.182175
10
13.343222
20
-4.164665
10
13.345844
20
-4.146759
10
13.348157
20
-4.128456
10
13.350161
20
-4.109757
10
13.351858
20
-4.090661
10
13.353246
20
-4.071169
10
13.354325
20
-4.051280
10
13.355096
20
-4.030994
10
13.355559
20
-4.010312
10
13.355713
20
-3.989233
10
13.355410
20
-3.960180
10
13.354503
20
-3.931980
10
13.352991
20
-3.904633
10
13.350874
20
-3.878139
10
13.348153
20
-3.852498
10
13.344826
20
-3.827710
10
13.340895
20
-3.803776
10
13.336359
20
-3.780695
10
13.331218
20
-3.758466
10
13.325472
20
-3.737091
10
13.319121
20
-3.716570
10
13.312166
20
-3.696901
10
13.304606
20
-3.678085
10
13.296441
20
-3.660123
10
13.287671
20
-3.643014
10
13.278296
20
-3.626758
10
13.268489
20
-3.611255
10
13.258421
20
-3.596405
10
13.248093
20
-3.582207
10
13.237505
20
-3.568663
10
13.226656
20
-3.555772
10
13.215547
20
-3.543533
10
13.204177
20
-3.531947
10
13.192548
20
-3.521014
10
13.180657
20
-3.510734
10
13.168507
20
-3.501107
10
13.156096
20
-3.492133
10
13.143425
20
-3.483812
10
13.130493
20
-3.476144
10
13.117302
20
-3.469128
10
13.103849
20
-3.462765
10
13.090137
20
-3.457056
10
13.079759
20
-3.453331
10
13.068620
20
-3.449846
10
13.056719
20
-3.446601
10
13.044058
20
-3.443597
10
13.030636
20
-3.440834
10
13.016453
20
-3.438310
10
13.001509
20
-3.436027
10
12.985803
20
-3.433984
10
12.969337
20
-3.432182
10
12.952110
20
-3.430620
10
12.934121
20
-3.429298
10
12.915372
20
-3.428217
10
12.895861
20
-3.427375
10
12.875590
20
-3.426775
10
12.854557
20
-3.426414
10
12.832764
20
-3.426294
10
12.516943
20
-3.426294
0
CIRCLE
100
AcDbEntity
8
PART_OUTLINE_REFERENCE_DO_NOT_MARK
100
AcDbCircle
10
0.000000
20
0.000000
30
0.0
40
47.000000
0
CIRCLE
100
AcDbEntity
8
GROOVE_REFERENCE_DO_NOT_MARK
100
AcDbCircle
10
0.000000
20
0.000000
30
0.0
40
35.550000
0
CIRCLE
100
AcDbEntity
8
GROOVE_REFERENCE_DO_NOT_MARK
100
AcDbCircle
10
0.000000
20
0.000000
30
0.0
40
31.950000
0
CIRCLE
100
AcDbEntity
8
HOLES_REFERENCE_DO_NOT_MARK
100
AcDbCircle
10
-41.000000
20
0.000000
30
0.0
40
1.400000
0
CIRCLE
100
AcDbEntity
8
HOLES_REFERENCE_DO_NOT_MARK
100
AcDbCircle
10
-41.000000
20
0.000000
30
0.0
40
2.500000
0
CIRCLE
100
AcDbEntity
8
HOLES_REFERENCE_DO_NOT_MARK
100
AcDbCircle
10
41.000000
20
0.000000
30
0.0
40
1.400000
0
CIRCLE
100
AcDbEntity
8
HOLES_REFERENCE_DO_NOT_MARK
100
AcDbCircle
10
41.000000
20
0.000000
30
0.0
40
2.500000
0
CIRCLE
100
AcDbEntity
8
HOLES_REFERENCE_DO_NOT_MARK
100
AcDbCircle
10
0.000000
20
-41.000000
30
0.0
40
1.400000
0
CIRCLE
100
AcDbEntity
8
HOLES_REFERENCE_DO_NOT_MARK
100
AcDbCircle
10
0.000000
20
-41.000000
30
0.0
40
2.500000
0
CIRCLE
100
AcDbEntity
8
HOLES_REFERENCE_DO_NOT_MARK
100
AcDbCircle
10
0.000000
20
41.000000
30
0.0
40
1.400000
0
CIRCLE
100
AcDbEntity
8
HOLES_REFERENCE_DO_NOT_MARK
100
AcDbCircle
10
0.000000
20
41.000000
30
0.0
40
2.500000
0
LINE
100
AcDbEntity
8
REAR_DATUM_REFERENCE_DO_NOT_MARK
100
AcDbLine
10
0.000000
20
47.000000
30
0.0
11
0.000000
21
53.000000
31
0.0
0
LINE
100
AcDbEntity
8
REAR_DATUM_REFERENCE_DO_NOT_MARK
100
AcDbLine
10
0.000000
20
53.000000
30
0.0
11
-2.200000
21
49.800000
31
0.0
0
LINE
100
AcDbEntity
8
REAR_DATUM_REFERENCE_DO_NOT_MARK
100
AcDbLine
10
0.000000
20
53.000000
30
0.0
11
2.200000
21
49.800000
31
0.0
0
ENDSEC
0
EOF
