%TF.GenerationSoftware,KiCad,Pcbnew,10.0.4*%
%TF.CreationDate,2026-07-17T12:11:25-07:00*%
%TF.ProjectId,codex_micro_wired_revA,636f6465-785f-46d6-9963-726f5f776972,rev?*%
%TF.SameCoordinates,Original*%
%TF.FileFunction,Legend,Top*%
%TF.FilePolarity,Positive*%
%FSLAX46Y46*%
G04 Gerber Fmt 4.6, Leading zero omitted, Abs format (unit mm)*
G04 Created by KiCad (PCBNEW 10.0.4) date 2026-07-17 12:11:25*
%MOMM*%
%LPD*%
G01*
G04 APERTURE LIST*
G04 Aperture macros list*
%AMRoundRect*
0 Rectangle with rounded corners*
0 $1 Rounding radius*
0 $2 $3 $4 $5 $6 $7 $8 $9 X,Y pos of 4 corners*
0 Add a 4 corners polygon primitive as box body*
4,1,4,$2,$3,$4,$5,$6,$7,$8,$9,$2,$3,0*
0 Add four circle primitives for the rounded corners*
1,1,$1+$1,$2,$3*
1,1,$1+$1,$4,$5*
1,1,$1+$1,$6,$7*
1,1,$1+$1,$8,$9*
0 Add four rect primitives between the rounded corners*
20,1,$1+$1,$2,$3,$4,$5,0*
20,1,$1+$1,$4,$5,$6,$7,0*
20,1,$1+$1,$6,$7,$8,$9,0*
20,1,$1+$1,$8,$9,$2,$3,0*%
G04 Aperture macros list end*
%ADD10C,0.150000*%
%ADD11O,2.200000X1.600000*%
%ADD12C,2.100000*%
%ADD13R,2.000000X2.000000*%
%ADD14C,2.000000*%
%ADD15R,3.200000X2.000000*%
%ADD16C,1.600000*%
%ADD17C,5.300000*%
%ADD18C,1.900000*%
%ADD19C,3.200000*%
%ADD20C,3.300000*%
%ADD21C,0.650000*%
%ADD22RoundRect,0.150000X-0.150000X-0.575000X0.150000X-0.575000X0.150000X0.575000X-0.150000X0.575000X0*%
%ADD23RoundRect,0.075000X-0.075000X-0.650000X0.075000X-0.650000X0.075000X0.650000X-0.075000X0.650000X0*%
%ADD24O,1.000000X2.100000*%
%ADD25O,1.000000X1.600000*%
G04 APERTURE END LIST*
D10*
X15409523Y-28343247D02*
X15676189Y-28343247D01*
X15790475Y-28762295D02*
X15409523Y-28762295D01*
X15409523Y-28762295D02*
X15409523Y-27962295D01*
X15409523Y-27962295D02*
X15790475Y-27962295D01*
X16133333Y-28762295D02*
X16133333Y-27962295D01*
X16133333Y-27962295D02*
X16590476Y-28762295D01*
X16590476Y-28762295D02*
X16590476Y-27962295D01*
X17428571Y-28686104D02*
X17390475Y-28724200D01*
X17390475Y-28724200D02*
X17276190Y-28762295D01*
X17276190Y-28762295D02*
X17199999Y-28762295D01*
X17199999Y-28762295D02*
X17085713Y-28724200D01*
X17085713Y-28724200D02*
X17009523Y-28648009D01*
X17009523Y-28648009D02*
X16971428Y-28571819D01*
X16971428Y-28571819D02*
X16933332Y-28419438D01*
X16933332Y-28419438D02*
X16933332Y-28305152D01*
X16933332Y-28305152D02*
X16971428Y-28152771D01*
X16971428Y-28152771D02*
X17009523Y-28076580D01*
X17009523Y-28076580D02*
X17085713Y-28000390D01*
X17085713Y-28000390D02*
X17199999Y-27962295D01*
X17199999Y-27962295D02*
X17276190Y-27962295D01*
X17276190Y-27962295D02*
X17390475Y-28000390D01*
X17390475Y-28000390D02*
X17428571Y-28038485D01*
X34771428Y-85262295D02*
X34961904Y-86062295D01*
X34961904Y-86062295D02*
X35114285Y-85490866D01*
X35114285Y-85490866D02*
X35266666Y-86062295D01*
X35266666Y-86062295D02*
X35457143Y-85262295D01*
X35914286Y-85262295D02*
X36066667Y-85262295D01*
X36066667Y-85262295D02*
X36142857Y-85300390D01*
X36142857Y-85300390D02*
X36219048Y-85376580D01*
X36219048Y-85376580D02*
X36257143Y-85528961D01*
X36257143Y-85528961D02*
X36257143Y-85795628D01*
X36257143Y-85795628D02*
X36219048Y-85948009D01*
X36219048Y-85948009D02*
X36142857Y-86024200D01*
X36142857Y-86024200D02*
X36066667Y-86062295D01*
X36066667Y-86062295D02*
X35914286Y-86062295D01*
X35914286Y-86062295D02*
X35838095Y-86024200D01*
X35838095Y-86024200D02*
X35761905Y-85948009D01*
X35761905Y-85948009D02*
X35723809Y-85795628D01*
X35723809Y-85795628D02*
X35723809Y-85528961D01*
X35723809Y-85528961D02*
X35761905Y-85376580D01*
X35761905Y-85376580D02*
X35838095Y-85300390D01*
X35838095Y-85300390D02*
X35914286Y-85262295D01*
X37057143Y-86062295D02*
X36790476Y-85681342D01*
X36600000Y-86062295D02*
X36600000Y-85262295D01*
X36600000Y-85262295D02*
X36904762Y-85262295D01*
X36904762Y-85262295D02*
X36980952Y-85300390D01*
X36980952Y-85300390D02*
X37019047Y-85338485D01*
X37019047Y-85338485D02*
X37057143Y-85414676D01*
X37057143Y-85414676D02*
X37057143Y-85528961D01*
X37057143Y-85528961D02*
X37019047Y-85605152D01*
X37019047Y-85605152D02*
X36980952Y-85643247D01*
X36980952Y-85643247D02*
X36904762Y-85681342D01*
X36904762Y-85681342D02*
X36600000Y-85681342D01*
X37400000Y-86062295D02*
X37400000Y-85262295D01*
X37857143Y-86062295D02*
X37514285Y-85605152D01*
X37857143Y-85262295D02*
X37400000Y-85719438D01*
X39190476Y-86062295D02*
X38809524Y-86062295D01*
X38809524Y-86062295D02*
X38809524Y-85262295D01*
X39609524Y-85262295D02*
X39761905Y-85262295D01*
X39761905Y-85262295D02*
X39838095Y-85300390D01*
X39838095Y-85300390D02*
X39914286Y-85376580D01*
X39914286Y-85376580D02*
X39952381Y-85528961D01*
X39952381Y-85528961D02*
X39952381Y-85795628D01*
X39952381Y-85795628D02*
X39914286Y-85948009D01*
X39914286Y-85948009D02*
X39838095Y-86024200D01*
X39838095Y-86024200D02*
X39761905Y-86062295D01*
X39761905Y-86062295D02*
X39609524Y-86062295D01*
X39609524Y-86062295D02*
X39533333Y-86024200D01*
X39533333Y-86024200D02*
X39457143Y-85948009D01*
X39457143Y-85948009D02*
X39419047Y-85795628D01*
X39419047Y-85795628D02*
X39419047Y-85528961D01*
X39419047Y-85528961D02*
X39457143Y-85376580D01*
X39457143Y-85376580D02*
X39533333Y-85300390D01*
X39533333Y-85300390D02*
X39609524Y-85262295D01*
X40257142Y-85833723D02*
X40638095Y-85833723D01*
X40180952Y-86062295D02*
X40447619Y-85262295D01*
X40447619Y-85262295D02*
X40714285Y-86062295D01*
X41247618Y-85643247D02*
X40980952Y-85643247D01*
X40980952Y-86062295D02*
X40980952Y-85262295D01*
X40980952Y-85262295D02*
X41361904Y-85262295D01*
X41666666Y-85643247D02*
X41933332Y-85643247D01*
X42047618Y-86062295D02*
X41666666Y-86062295D01*
X41666666Y-86062295D02*
X41666666Y-85262295D01*
X41666666Y-85262295D02*
X42047618Y-85262295D01*
X42847619Y-86062295D02*
X42580952Y-85681342D01*
X42390476Y-86062295D02*
X42390476Y-85262295D01*
X42390476Y-85262295D02*
X42695238Y-85262295D01*
X42695238Y-85262295D02*
X42771428Y-85300390D01*
X42771428Y-85300390D02*
X42809523Y-85338485D01*
X42809523Y-85338485D02*
X42847619Y-85414676D01*
X42847619Y-85414676D02*
X42847619Y-85528961D01*
X42847619Y-85528961D02*
X42809523Y-85605152D01*
X42809523Y-85605152D02*
X42771428Y-85643247D01*
X42771428Y-85643247D02*
X42695238Y-85681342D01*
X42695238Y-85681342D02*
X42390476Y-85681342D01*
X43800000Y-85643247D02*
X44066666Y-85643247D01*
X44180952Y-86062295D02*
X43800000Y-86062295D01*
X43800000Y-86062295D02*
X43800000Y-85262295D01*
X43800000Y-85262295D02*
X44180952Y-85262295D01*
X44523810Y-86062295D02*
X44523810Y-85262295D01*
X44523810Y-85262295D02*
X44714286Y-85262295D01*
X44714286Y-85262295D02*
X44828572Y-85300390D01*
X44828572Y-85300390D02*
X44904762Y-85376580D01*
X44904762Y-85376580D02*
X44942857Y-85452771D01*
X44942857Y-85452771D02*
X44980953Y-85605152D01*
X44980953Y-85605152D02*
X44980953Y-85719438D01*
X44980953Y-85719438D02*
X44942857Y-85871819D01*
X44942857Y-85871819D02*
X44904762Y-85948009D01*
X44904762Y-85948009D02*
X44828572Y-86024200D01*
X44828572Y-86024200D02*
X44714286Y-86062295D01*
X44714286Y-86062295D02*
X44523810Y-86062295D01*
X45323810Y-86062295D02*
X45323810Y-85262295D01*
X45590476Y-85262295D02*
X46047619Y-85262295D01*
X45819047Y-86062295D02*
X45819047Y-85262295D01*
X46314286Y-86062295D02*
X46314286Y-85262295D01*
X46847619Y-85262295D02*
X47000000Y-85262295D01*
X47000000Y-85262295D02*
X47076190Y-85300390D01*
X47076190Y-85300390D02*
X47152381Y-85376580D01*
X47152381Y-85376580D02*
X47190476Y-85528961D01*
X47190476Y-85528961D02*
X47190476Y-85795628D01*
X47190476Y-85795628D02*
X47152381Y-85948009D01*
X47152381Y-85948009D02*
X47076190Y-86024200D01*
X47076190Y-86024200D02*
X47000000Y-86062295D01*
X47000000Y-86062295D02*
X46847619Y-86062295D01*
X46847619Y-86062295D02*
X46771428Y-86024200D01*
X46771428Y-86024200D02*
X46695238Y-85948009D01*
X46695238Y-85948009D02*
X46657142Y-85795628D01*
X46657142Y-85795628D02*
X46657142Y-85528961D01*
X46657142Y-85528961D02*
X46695238Y-85376580D01*
X46695238Y-85376580D02*
X46771428Y-85300390D01*
X46771428Y-85300390D02*
X46847619Y-85262295D01*
X47533333Y-86062295D02*
X47533333Y-85262295D01*
X47533333Y-85262295D02*
X47990476Y-86062295D01*
X47990476Y-86062295D02*
X47990476Y-85262295D01*
X49552380Y-85224200D02*
X48866666Y-86252771D01*
X50390475Y-85224200D02*
X49704761Y-86252771D01*
X51723809Y-86062295D02*
X51457142Y-85681342D01*
X51266666Y-86062295D02*
X51266666Y-85262295D01*
X51266666Y-85262295D02*
X51571428Y-85262295D01*
X51571428Y-85262295D02*
X51647618Y-85300390D01*
X51647618Y-85300390D02*
X51685713Y-85338485D01*
X51685713Y-85338485D02*
X51723809Y-85414676D01*
X51723809Y-85414676D02*
X51723809Y-85528961D01*
X51723809Y-85528961D02*
X51685713Y-85605152D01*
X51685713Y-85605152D02*
X51647618Y-85643247D01*
X51647618Y-85643247D02*
X51571428Y-85681342D01*
X51571428Y-85681342D02*
X51266666Y-85681342D01*
X52066666Y-85643247D02*
X52333332Y-85643247D01*
X52447618Y-86062295D02*
X52066666Y-86062295D01*
X52066666Y-86062295D02*
X52066666Y-85262295D01*
X52066666Y-85262295D02*
X52447618Y-85262295D01*
X52676190Y-85262295D02*
X52942857Y-86062295D01*
X52942857Y-86062295D02*
X53209523Y-85262295D01*
X54047618Y-85833723D02*
X54428571Y-85833723D01*
X53971428Y-86062295D02*
X54238095Y-85262295D01*
X54238095Y-85262295D02*
X54504761Y-86062295D01*
X54733332Y-85338485D02*
X54771428Y-85300390D01*
X54771428Y-85300390D02*
X54847618Y-85262295D01*
X54847618Y-85262295D02*
X55038094Y-85262295D01*
X55038094Y-85262295D02*
X55114285Y-85300390D01*
X55114285Y-85300390D02*
X55152380Y-85338485D01*
X55152380Y-85338485D02*
X55190475Y-85414676D01*
X55190475Y-85414676D02*
X55190475Y-85490866D01*
X55190475Y-85490866D02*
X55152380Y-85605152D01*
X55152380Y-85605152D02*
X54695237Y-86062295D01*
X54695237Y-86062295D02*
X55190475Y-86062295D01*
X64895238Y-27062295D02*
X64895238Y-27633723D01*
X64895238Y-27633723D02*
X64857143Y-27748009D01*
X64857143Y-27748009D02*
X64780952Y-27824200D01*
X64780952Y-27824200D02*
X64666667Y-27862295D01*
X64666667Y-27862295D02*
X64590476Y-27862295D01*
X65428572Y-27062295D02*
X65580953Y-27062295D01*
X65580953Y-27062295D02*
X65657143Y-27100390D01*
X65657143Y-27100390D02*
X65733334Y-27176580D01*
X65733334Y-27176580D02*
X65771429Y-27328961D01*
X65771429Y-27328961D02*
X65771429Y-27595628D01*
X65771429Y-27595628D02*
X65733334Y-27748009D01*
X65733334Y-27748009D02*
X65657143Y-27824200D01*
X65657143Y-27824200D02*
X65580953Y-27862295D01*
X65580953Y-27862295D02*
X65428572Y-27862295D01*
X65428572Y-27862295D02*
X65352381Y-27824200D01*
X65352381Y-27824200D02*
X65276191Y-27748009D01*
X65276191Y-27748009D02*
X65238095Y-27595628D01*
X65238095Y-27595628D02*
X65238095Y-27328961D01*
X65238095Y-27328961D02*
X65276191Y-27176580D01*
X65276191Y-27176580D02*
X65352381Y-27100390D01*
X65352381Y-27100390D02*
X65428572Y-27062295D01*
X66266667Y-27481342D02*
X66266667Y-27862295D01*
X66000000Y-27062295D02*
X66266667Y-27481342D01*
X66266667Y-27481342D02*
X66533333Y-27062295D01*
X66800000Y-27786104D02*
X66838095Y-27824200D01*
X66838095Y-27824200D02*
X66800000Y-27862295D01*
X66800000Y-27862295D02*
X66761904Y-27824200D01*
X66761904Y-27824200D02*
X66800000Y-27786104D01*
X66800000Y-27786104D02*
X66800000Y-27862295D01*
X66800000Y-27367057D02*
X66838095Y-27405152D01*
X66838095Y-27405152D02*
X66800000Y-27443247D01*
X66800000Y-27443247D02*
X66761904Y-27405152D01*
X66761904Y-27405152D02*
X66800000Y-27367057D01*
X66800000Y-27367057D02*
X66800000Y-27443247D01*
X67752380Y-27633723D02*
X68133333Y-27633723D01*
X67676190Y-27862295D02*
X67942857Y-27062295D01*
X67942857Y-27062295D02*
X68209523Y-27862295D01*
X68857142Y-27862295D02*
X68476190Y-27862295D01*
X68476190Y-27862295D02*
X68476190Y-27062295D01*
X69123809Y-27862295D02*
X69123809Y-27062295D01*
X69123809Y-27062295D02*
X69428571Y-27062295D01*
X69428571Y-27062295D02*
X69504761Y-27100390D01*
X69504761Y-27100390D02*
X69542856Y-27138485D01*
X69542856Y-27138485D02*
X69580952Y-27214676D01*
X69580952Y-27214676D02*
X69580952Y-27328961D01*
X69580952Y-27328961D02*
X69542856Y-27405152D01*
X69542856Y-27405152D02*
X69504761Y-27443247D01*
X69504761Y-27443247D02*
X69428571Y-27481342D01*
X69428571Y-27481342D02*
X69123809Y-27481342D01*
X69885713Y-27824200D02*
X69999999Y-27862295D01*
X69999999Y-27862295D02*
X70190475Y-27862295D01*
X70190475Y-27862295D02*
X70266666Y-27824200D01*
X70266666Y-27824200D02*
X70304761Y-27786104D01*
X70304761Y-27786104D02*
X70342856Y-27709914D01*
X70342856Y-27709914D02*
X70342856Y-27633723D01*
X70342856Y-27633723D02*
X70304761Y-27557533D01*
X70304761Y-27557533D02*
X70266666Y-27519438D01*
X70266666Y-27519438D02*
X70190475Y-27481342D01*
X70190475Y-27481342D02*
X70038094Y-27443247D01*
X70038094Y-27443247D02*
X69961904Y-27405152D01*
X69961904Y-27405152D02*
X69923809Y-27367057D01*
X69923809Y-27367057D02*
X69885713Y-27290866D01*
X69885713Y-27290866D02*
X69885713Y-27214676D01*
X69885713Y-27214676D02*
X69923809Y-27138485D01*
X69923809Y-27138485D02*
X69961904Y-27100390D01*
X69961904Y-27100390D02*
X70038094Y-27062295D01*
X70038094Y-27062295D02*
X70228571Y-27062295D01*
X70228571Y-27062295D02*
X70342856Y-27100390D01*
X71752381Y-27862295D02*
X71485714Y-27481342D01*
X71295238Y-27862295D02*
X71295238Y-27062295D01*
X71295238Y-27062295D02*
X71600000Y-27062295D01*
X71600000Y-27062295D02*
X71676190Y-27100390D01*
X71676190Y-27100390D02*
X71714285Y-27138485D01*
X71714285Y-27138485D02*
X71752381Y-27214676D01*
X71752381Y-27214676D02*
X71752381Y-27328961D01*
X71752381Y-27328961D02*
X71714285Y-27405152D01*
X71714285Y-27405152D02*
X71676190Y-27443247D01*
X71676190Y-27443247D02*
X71600000Y-27481342D01*
X71600000Y-27481342D02*
X71295238Y-27481342D01*
X72095238Y-27862295D02*
X72095238Y-27062295D01*
X72552381Y-27862295D02*
X72209523Y-27405152D01*
X72552381Y-27062295D02*
X72095238Y-27519438D01*
X73123809Y-27062295D02*
X73123809Y-27633723D01*
X73123809Y-27633723D02*
X73085714Y-27748009D01*
X73085714Y-27748009D02*
X73009523Y-27824200D01*
X73009523Y-27824200D02*
X72895238Y-27862295D01*
X72895238Y-27862295D02*
X72819047Y-27862295D01*
X73428571Y-27062295D02*
X73961905Y-27862295D01*
X73961905Y-27062295D02*
X73428571Y-27862295D01*
X74419048Y-27481342D02*
X74419048Y-27862295D01*
X74152381Y-27062295D02*
X74419048Y-27481342D01*
X74419048Y-27481342D02*
X74685714Y-27062295D01*
X75904762Y-27328961D02*
X75904762Y-27862295D01*
X75714286Y-27024200D02*
X75523809Y-27595628D01*
X75523809Y-27595628D02*
X76019048Y-27595628D01*
X76323810Y-27557533D02*
X76933334Y-27557533D01*
X77238095Y-27062295D02*
X77428571Y-27862295D01*
X77428571Y-27862295D02*
X77580952Y-27290866D01*
X77580952Y-27290866D02*
X77733333Y-27862295D01*
X77733333Y-27862295D02*
X77923810Y-27062295D01*
X78228572Y-27862295D02*
X78228572Y-27062295D01*
X79066667Y-27862295D02*
X78800000Y-27481342D01*
X78609524Y-27862295D02*
X78609524Y-27062295D01*
X78609524Y-27062295D02*
X78914286Y-27062295D01*
X78914286Y-27062295D02*
X78990476Y-27100390D01*
X78990476Y-27100390D02*
X79028571Y-27138485D01*
X79028571Y-27138485D02*
X79066667Y-27214676D01*
X79066667Y-27214676D02*
X79066667Y-27328961D01*
X79066667Y-27328961D02*
X79028571Y-27405152D01*
X79028571Y-27405152D02*
X78990476Y-27443247D01*
X78990476Y-27443247D02*
X78914286Y-27481342D01*
X78914286Y-27481342D02*
X78609524Y-27481342D01*
X79409524Y-27443247D02*
X79676190Y-27443247D01*
X79790476Y-27862295D02*
X79409524Y-27862295D01*
X79409524Y-27862295D02*
X79409524Y-27062295D01*
X79409524Y-27062295D02*
X79790476Y-27062295D01*
X81009524Y-27443247D02*
X80742858Y-27443247D01*
X80742858Y-27862295D02*
X80742858Y-27062295D01*
X80742858Y-27062295D02*
X81123810Y-27062295D01*
X81695238Y-27443247D02*
X81428572Y-27443247D01*
X81428572Y-27862295D02*
X81428572Y-27062295D01*
X81428572Y-27062295D02*
X81809524Y-27062295D01*
X82571429Y-27786104D02*
X82533333Y-27824200D01*
X82533333Y-27824200D02*
X82419048Y-27862295D01*
X82419048Y-27862295D02*
X82342857Y-27862295D01*
X82342857Y-27862295D02*
X82228571Y-27824200D01*
X82228571Y-27824200D02*
X82152381Y-27748009D01*
X82152381Y-27748009D02*
X82114286Y-27671819D01*
X82114286Y-27671819D02*
X82076190Y-27519438D01*
X82076190Y-27519438D02*
X82076190Y-27405152D01*
X82076190Y-27405152D02*
X82114286Y-27252771D01*
X82114286Y-27252771D02*
X82152381Y-27176580D01*
X82152381Y-27176580D02*
X82228571Y-27100390D01*
X82228571Y-27100390D02*
X82342857Y-27062295D01*
X82342857Y-27062295D02*
X82419048Y-27062295D01*
X82419048Y-27062295D02*
X82533333Y-27100390D01*
X82533333Y-27100390D02*
X82571429Y-27138485D01*
X38530953Y-87796319D02*
X38478572Y-87848700D01*
X38478572Y-87848700D02*
X38321429Y-87901080D01*
X38321429Y-87901080D02*
X38216667Y-87901080D01*
X38216667Y-87901080D02*
X38059524Y-87848700D01*
X38059524Y-87848700D02*
X37954762Y-87743938D01*
X37954762Y-87743938D02*
X37902381Y-87639176D01*
X37902381Y-87639176D02*
X37850000Y-87429652D01*
X37850000Y-87429652D02*
X37850000Y-87272509D01*
X37850000Y-87272509D02*
X37902381Y-87062985D01*
X37902381Y-87062985D02*
X37954762Y-86958223D01*
X37954762Y-86958223D02*
X38059524Y-86853461D01*
X38059524Y-86853461D02*
X38216667Y-86801080D01*
X38216667Y-86801080D02*
X38321429Y-86801080D01*
X38321429Y-86801080D02*
X38478572Y-86853461D01*
X38478572Y-86853461D02*
X38530953Y-86905842D01*
X39211905Y-86801080D02*
X39421429Y-86801080D01*
X39421429Y-86801080D02*
X39526191Y-86853461D01*
X39526191Y-86853461D02*
X39630953Y-86958223D01*
X39630953Y-86958223D02*
X39683334Y-87167747D01*
X39683334Y-87167747D02*
X39683334Y-87534414D01*
X39683334Y-87534414D02*
X39630953Y-87743938D01*
X39630953Y-87743938D02*
X39526191Y-87848700D01*
X39526191Y-87848700D02*
X39421429Y-87901080D01*
X39421429Y-87901080D02*
X39211905Y-87901080D01*
X39211905Y-87901080D02*
X39107143Y-87848700D01*
X39107143Y-87848700D02*
X39002381Y-87743938D01*
X39002381Y-87743938D02*
X38950000Y-87534414D01*
X38950000Y-87534414D02*
X38950000Y-87167747D01*
X38950000Y-87167747D02*
X39002381Y-86958223D01*
X39002381Y-86958223D02*
X39107143Y-86853461D01*
X39107143Y-86853461D02*
X39211905Y-86801080D01*
X40154762Y-87901080D02*
X40154762Y-86801080D01*
X40154762Y-86801080D02*
X40416667Y-86801080D01*
X40416667Y-86801080D02*
X40573810Y-86853461D01*
X40573810Y-86853461D02*
X40678572Y-86958223D01*
X40678572Y-86958223D02*
X40730953Y-87062985D01*
X40730953Y-87062985D02*
X40783334Y-87272509D01*
X40783334Y-87272509D02*
X40783334Y-87429652D01*
X40783334Y-87429652D02*
X40730953Y-87639176D01*
X40730953Y-87639176D02*
X40678572Y-87743938D01*
X40678572Y-87743938D02*
X40573810Y-87848700D01*
X40573810Y-87848700D02*
X40416667Y-87901080D01*
X40416667Y-87901080D02*
X40154762Y-87901080D01*
X41254762Y-87324890D02*
X41621429Y-87324890D01*
X41778572Y-87901080D02*
X41254762Y-87901080D01*
X41254762Y-87901080D02*
X41254762Y-86801080D01*
X41254762Y-86801080D02*
X41778572Y-86801080D01*
X42145238Y-86801080D02*
X42878572Y-87901080D01*
X42878572Y-86801080D02*
X42145238Y-87901080D01*
X44135714Y-87901080D02*
X44135714Y-86801080D01*
X44764286Y-87901080D02*
X44292857Y-87272509D01*
X44764286Y-86801080D02*
X44135714Y-87429652D01*
X45235714Y-87324890D02*
X45602381Y-87324890D01*
X45759524Y-87901080D02*
X45235714Y-87901080D01*
X45235714Y-87901080D02*
X45235714Y-86801080D01*
X45235714Y-86801080D02*
X45759524Y-86801080D01*
X46440476Y-87377271D02*
X46440476Y-87901080D01*
X46073809Y-86801080D02*
X46440476Y-87377271D01*
X46440476Y-87377271D02*
X46807143Y-86801080D01*
X47540476Y-87324890D02*
X47697619Y-87377271D01*
X47697619Y-87377271D02*
X47750000Y-87429652D01*
X47750000Y-87429652D02*
X47802381Y-87534414D01*
X47802381Y-87534414D02*
X47802381Y-87691557D01*
X47802381Y-87691557D02*
X47750000Y-87796319D01*
X47750000Y-87796319D02*
X47697619Y-87848700D01*
X47697619Y-87848700D02*
X47592857Y-87901080D01*
X47592857Y-87901080D02*
X47173809Y-87901080D01*
X47173809Y-87901080D02*
X47173809Y-86801080D01*
X47173809Y-86801080D02*
X47540476Y-86801080D01*
X47540476Y-86801080D02*
X47645238Y-86853461D01*
X47645238Y-86853461D02*
X47697619Y-86905842D01*
X47697619Y-86905842D02*
X47750000Y-87010604D01*
X47750000Y-87010604D02*
X47750000Y-87115366D01*
X47750000Y-87115366D02*
X47697619Y-87220128D01*
X47697619Y-87220128D02*
X47645238Y-87272509D01*
X47645238Y-87272509D02*
X47540476Y-87324890D01*
X47540476Y-87324890D02*
X47173809Y-87324890D01*
X48483333Y-86801080D02*
X48692857Y-86801080D01*
X48692857Y-86801080D02*
X48797619Y-86853461D01*
X48797619Y-86853461D02*
X48902381Y-86958223D01*
X48902381Y-86958223D02*
X48954762Y-87167747D01*
X48954762Y-87167747D02*
X48954762Y-87534414D01*
X48954762Y-87534414D02*
X48902381Y-87743938D01*
X48902381Y-87743938D02*
X48797619Y-87848700D01*
X48797619Y-87848700D02*
X48692857Y-87901080D01*
X48692857Y-87901080D02*
X48483333Y-87901080D01*
X48483333Y-87901080D02*
X48378571Y-87848700D01*
X48378571Y-87848700D02*
X48273809Y-87743938D01*
X48273809Y-87743938D02*
X48221428Y-87534414D01*
X48221428Y-87534414D02*
X48221428Y-87167747D01*
X48221428Y-87167747D02*
X48273809Y-86958223D01*
X48273809Y-86958223D02*
X48378571Y-86853461D01*
X48378571Y-86853461D02*
X48483333Y-86801080D01*
X50054762Y-87901080D02*
X49688095Y-87377271D01*
X49426190Y-87901080D02*
X49426190Y-86801080D01*
X49426190Y-86801080D02*
X49845238Y-86801080D01*
X49845238Y-86801080D02*
X49950000Y-86853461D01*
X49950000Y-86853461D02*
X50002381Y-86905842D01*
X50002381Y-86905842D02*
X50054762Y-87010604D01*
X50054762Y-87010604D02*
X50054762Y-87167747D01*
X50054762Y-87167747D02*
X50002381Y-87272509D01*
X50002381Y-87272509D02*
X49950000Y-87324890D01*
X49950000Y-87324890D02*
X49845238Y-87377271D01*
X49845238Y-87377271D02*
X49426190Y-87377271D01*
X50526190Y-87324890D02*
X50892857Y-87324890D01*
X51050000Y-87901080D02*
X50526190Y-87901080D01*
X50526190Y-87901080D02*
X50526190Y-86801080D01*
X50526190Y-86801080D02*
X51050000Y-86801080D01*
X51521428Y-87901080D02*
X51521428Y-86801080D01*
X51521428Y-86801080D02*
X51783333Y-86801080D01*
X51783333Y-86801080D02*
X51940476Y-86853461D01*
X51940476Y-86853461D02*
X52045238Y-86958223D01*
X52045238Y-86958223D02*
X52097619Y-87062985D01*
X52097619Y-87062985D02*
X52150000Y-87272509D01*
X52150000Y-87272509D02*
X52150000Y-87429652D01*
X52150000Y-87429652D02*
X52097619Y-87639176D01*
X52097619Y-87639176D02*
X52045238Y-87743938D01*
X52045238Y-87743938D02*
X51940476Y-87848700D01*
X51940476Y-87848700D02*
X51783333Y-87901080D01*
X51783333Y-87901080D02*
X51521428Y-87901080D01*
%LPC*%
D11*
%TO.C,ENC1*%
X19425000Y-18925000D03*
D12*
X23925000Y-18925000D03*
D13*
X16425000Y-16425000D03*
D14*
X16425000Y-21425000D03*
X16425000Y-18925000D03*
D15*
X23925000Y-13325000D03*
X23925000Y-24525000D03*
D16*
X30925000Y-21425000D03*
X30925000Y-16425000D03*
%TD*%
D17*
%TO.C,SW10*%
X73575000Y-54525000D03*
D18*
X70975000Y-60275000D03*
X77975000Y-60275000D03*
%TD*%
D17*
%TO.C,SW7*%
X16425000Y-54525000D03*
D18*
X13825000Y-60275000D03*
X20825000Y-60275000D03*
%TD*%
D17*
%TO.C,SW2*%
X54525000Y-16425000D03*
D18*
X51925000Y-22175000D03*
X58925000Y-22175000D03*
%TD*%
D17*
%TO.C,SW4*%
X35475000Y-35475000D03*
D18*
X32875000Y-41225000D03*
X39875000Y-41225000D03*
%TD*%
D19*
%TO.C,H2*%
X84000000Y-6000000D03*
%TD*%
%TO.C,H4*%
X84000000Y-84000000D03*
%TD*%
D17*
%TO.C,SW3*%
X16425000Y-35475000D03*
D18*
X13825000Y-41225000D03*
X20825000Y-41225000D03*
%TD*%
D17*
%TO.C,SW5*%
X54525000Y-35475000D03*
D18*
X51925000Y-41225000D03*
X58925000Y-41225000D03*
%TD*%
D17*
%TO.C,SW12*%
X73575000Y-73575000D03*
D18*
X70975000Y-79325000D03*
X77975000Y-79325000D03*
%TD*%
D17*
%TO.C,SW11*%
X45000000Y-73575000D03*
D18*
X42400000Y-79325000D03*
X49400000Y-79325000D03*
%TD*%
D20*
%TO.C,HSTAB1*%
X33100000Y-73575000D03*
%TD*%
D17*
%TO.C,SW6*%
X73575000Y-35475000D03*
D18*
X70975000Y-41225000D03*
X77975000Y-41225000D03*
%TD*%
%TO.C,JOY1*%
X65325000Y-9625000D03*
X65575000Y-23225000D03*
X81575000Y-23225000D03*
X81825000Y-9625000D03*
%TD*%
D17*
%TO.C,SW9*%
X54525000Y-54525000D03*
D18*
X51925000Y-60275000D03*
X58925000Y-60275000D03*
%TD*%
D19*
%TO.C,H1*%
X6000000Y-6000000D03*
%TD*%
D21*
%TO.C,J1*%
X42110000Y-2500000D03*
X47890000Y-2500000D03*
D22*
X41750000Y-1055000D03*
X42550000Y-1055000D03*
D23*
X43750000Y-1055000D03*
X44750000Y-1055000D03*
X45250000Y-1055000D03*
X46250000Y-1055000D03*
D22*
X47450000Y-1055000D03*
X48250000Y-1055000D03*
X48250000Y-1055000D03*
X47450000Y-1055000D03*
D23*
X46750000Y-1055000D03*
X45750000Y-1055000D03*
X44250000Y-1055000D03*
X43250000Y-1055000D03*
D22*
X42550000Y-1055000D03*
X41750000Y-1055000D03*
D24*
X40680000Y-1970000D03*
D25*
X40680000Y-6150000D03*
D24*
X49320000Y-1970000D03*
D25*
X49320000Y-6150000D03*
%TD*%
D20*
%TO.C,HSTAB2*%
X56900000Y-73575000D03*
%TD*%
D17*
%TO.C,SW8*%
X35475000Y-54525000D03*
D18*
X32875000Y-60275000D03*
X39875000Y-60275000D03*
%TD*%
D19*
%TO.C,H3*%
X6000000Y-84000000D03*
%TD*%
D17*
%TO.C,SW1*%
X35475000Y-16425000D03*
D18*
X32875000Y-22175000D03*
X39875000Y-22175000D03*
%TD*%
%LPD*%
M02*
