%TF.GenerationSoftware,KiCad,Pcbnew,10.0.4*%
%TF.CreationDate,2026-07-17T12:11:25-07:00*%
%TF.ProjectId,codex_micro_wired_revA,636f6465-785f-46d6-9963-726f5f776972,rev?*%
%TF.SameCoordinates,Original*%
%TF.FileFunction,Copper,L3,Inr*%
%TF.FilePolarity,Positive*%
%FSLAX46Y46*%
G04 Gerber Fmt 4.6, Leading zero omitted, Abs format (unit mm)*
G04 Created by KiCad (PCBNEW 10.0.4) date 2026-07-17 12:11:25*
%MOMM*%
%LPD*%
G01*
G04 APERTURE LIST*
%TA.AperFunction,ComponentPad*%
%ADD10R,2.000000X2.000000*%
%TD*%
%TA.AperFunction,ComponentPad*%
%ADD11C,2.000000*%
%TD*%
%TA.AperFunction,ComponentPad*%
%ADD12R,3.200000X2.000000*%
%TD*%
%TA.AperFunction,ComponentPad*%
%ADD13C,1.600000*%
%TD*%
%TA.AperFunction,ComponentPad*%
%ADD14C,1.900000*%
%TD*%
%TA.AperFunction,ComponentPad*%
%ADD15O,1.000000X2.100000*%
%TD*%
%TA.AperFunction,ComponentPad*%
%ADD16O,1.000000X1.600000*%
%TD*%
%TA.AperFunction,ViaPad*%
%ADD17C,0.450000*%
%TD*%
%TA.AperFunction,ViaPad*%
%ADD18C,0.650000*%
%TD*%
%TA.AperFunction,ViaPad*%
%ADD19C,0.400000*%
%TD*%
%TA.AperFunction,Conductor*%
%ADD20C,0.150000*%
%TD*%
G04 APERTURE END LIST*
D10*
%TO.N,ENC_A*%
%TO.C,ENC1*%
X16425000Y-16425000D03*
D11*
%TO.N,ENC_B*%
X16425000Y-21425000D03*
%TO.N,GND*%
X16425000Y-18925000D03*
D12*
%TO.N,N/C*%
X23925000Y-13325000D03*
X23925000Y-24525000D03*
D13*
%TO.N,ENC_SW*%
X30925000Y-21425000D03*
%TO.N,GND*%
X30925000Y-16425000D03*
%TD*%
D14*
%TO.N,ROW2*%
%TO.C,SW10*%
X70975000Y-60275000D03*
%TO.N,SW10_D*%
X77975000Y-60275000D03*
%TD*%
%TO.N,ROW2*%
%TO.C,SW7*%
X13825000Y-60275000D03*
%TO.N,SW7_D*%
X20825000Y-60275000D03*
%TD*%
%TO.N,ROW0*%
%TO.C,SW2*%
X51925000Y-22175000D03*
%TO.N,SW2_D*%
X58925000Y-22175000D03*
%TD*%
%TO.N,ROW1*%
%TO.C,SW4*%
X32875000Y-41225000D03*
%TO.N,SW4_D*%
X39875000Y-41225000D03*
%TD*%
%TO.N,ROW1*%
%TO.C,SW3*%
X13825000Y-41225000D03*
%TO.N,SW3_D*%
X20825000Y-41225000D03*
%TD*%
%TO.N,ROW1*%
%TO.C,SW5*%
X51925000Y-41225000D03*
%TO.N,SW5_D*%
X58925000Y-41225000D03*
%TD*%
%TO.N,ROW3*%
%TO.C,SW12*%
X70975000Y-79325000D03*
%TO.N,SW12_D*%
X77975000Y-79325000D03*
%TD*%
%TO.N,ROW3*%
%TO.C,SW11*%
X42400000Y-79325000D03*
%TO.N,SW11_D*%
X49400000Y-79325000D03*
%TD*%
%TO.N,ROW1*%
%TO.C,SW6*%
X70975000Y-41225000D03*
%TO.N,SW6_D*%
X77975000Y-41225000D03*
%TD*%
%TO.N,ROW2*%
%TO.C,SW9*%
X51925000Y-60275000D03*
%TO.N,SW9_D*%
X58925000Y-60275000D03*
%TD*%
D15*
%TO.N,GND*%
%TO.C,J1*%
X40680000Y-1970000D03*
D16*
X40680000Y-6150000D03*
D15*
X49320000Y-1970000D03*
D16*
X49320000Y-6150000D03*
%TD*%
D14*
%TO.N,ROW2*%
%TO.C,SW8*%
X32875000Y-60275000D03*
%TO.N,SW8_D*%
X39875000Y-60275000D03*
%TD*%
%TO.N,ROW0*%
%TO.C,SW1*%
X32875000Y-22175000D03*
%TO.N,SW1_D*%
X39875000Y-22175000D03*
%TD*%
D17*
%TO.N,ENC_A*%
X44221599Y-27283700D03*
%TO.N,ENC_B*%
X43596700Y-30010300D03*
D18*
%TO.N,GND*%
X65000000Y-5000000D03*
D19*
X49100500Y-14170199D03*
D18*
X85000000Y-25000000D03*
D19*
X73258623Y-15448899D03*
X62626819Y-20248900D03*
X39900000Y-24750000D03*
X35143500Y-26443222D03*
X46303664Y-25984172D03*
D18*
X25000000Y-5000000D03*
D19*
X67778010Y-30000200D03*
D18*
X5000000Y-58000000D03*
X85000000Y-58000000D03*
X25000000Y-85000000D03*
X5000000Y-25000000D03*
D19*
X37327422Y-22078900D03*
D18*
X65000000Y-85000000D03*
D17*
%TO.N,ENC_SW*%
X38908400Y-33367400D03*
%TO.N,ROW2*%
X49405400Y-30313500D03*
%TO.N,SWCLK*%
X62088400Y-86190199D03*
X42253200Y-23977300D03*
%TO.N,TOUCH_ELECTRODE*%
X27542200Y-68621200D03*
%TO.N,ROW0*%
X48009800Y-29750000D03*
%TO.N,ROW3*%
X46750000Y-32843500D03*
%TO.N,+3V3*%
X27287100Y-61174300D03*
X70932600Y-16157599D03*
X26543599Y-40900000D03*
X61167300Y-16224200D03*
%TO.N,SWD*%
X55170400Y-88146800D03*
X42529800Y-25103600D03*
%TO.N,+5V*%
X60797500Y-35085200D03*
X61267199Y-50275000D03*
X48454100Y-70136500D03*
X40127400Y-31715500D03*
X8510300Y-65564499D03*
X17590799Y-39159099D03*
X39288300Y-49901500D03*
X63877199Y-30292500D03*
X42561800Y-11127900D03*
X47833600Y-83580400D03*
X20346500Y-50275000D03*
%TO.N,USB_CC1*%
X43548300Y-5104500D03*
D19*
%TO.N,USB_DP_CONN*%
X45750000Y-3000000D03*
X44750000Y-2200000D03*
X47000000Y-9250000D03*
%TO.N,USB_DM_CONN*%
X45250000Y-2200000D03*
X44250000Y-2200000D03*
X47550000Y-11100000D03*
D17*
%TO.N,USB_CC2*%
X46184100Y-2371600D03*
%TO.N,COL1*%
X42445400Y-15631600D03*
X47725300Y-75813000D03*
X45750000Y-27556099D03*
X42575000Y-57762400D03*
%TO.N,LED_D21*%
X61508600Y-79968600D03*
X3275000Y-65572700D03*
%TO.N,COL3*%
X79916800Y-76916800D03*
X44750000Y-32325900D03*
X79669400Y-58584600D03*
X78059500Y-39091000D03*
%TO.N,LED_D1*%
X50719600Y-12175000D03*
X38118100Y-9860299D03*
%TO.N,RGB_5V*%
X61862500Y-36242900D03*
X34251200Y-19689800D03*
%TO.N,LED_D4*%
X48965900Y-31453200D03*
X39034099Y-30454800D03*
%TO.N,COL2*%
X63069700Y-39180200D03*
X60009000Y-16350000D03*
X62225400Y-55542500D03*
X45250000Y-35041000D03*
%TO.N,NRST*%
X50336800Y-18877200D03*
X47574800Y-27250000D03*
X31454400Y-27209500D03*
%TO.N,LED_D18*%
X66693300Y-81500700D03*
X84725000Y-43413800D03*
X27019099Y-85578000D03*
%TO.N,COL0*%
X24548400Y-58518400D03*
X24505100Y-39062700D03*
X46212800Y-36681900D03*
%TO.N,USB_DM_PROT*%
X44307000Y-12655800D03*
X42522200Y-26527099D03*
%TO.N,USB_DP_PROT*%
X42795900Y-10423600D03*
X42588900Y-25808799D03*
%TO.N,LED_D10*%
X76454700Y-47961700D03*
X47373300Y-58656099D03*
%TO.N,LED_D17*%
X11806600Y-44250000D03*
X78477200Y-44999600D03*
%TO.N,LED_D16*%
X5391300Y-46568700D03*
X79577500Y-9440299D03*
X77653800Y-44937300D03*
%TO.N,LED_D6*%
X71187699Y-46894400D03*
X12847500Y-48080600D03*
X76511600Y-28892000D03*
%TO.N,TOUCH*%
X28137500Y-64327800D03*
X41164600Y-30312700D03*
%TO.N,RGB_3V3*%
X51914000Y-38145900D03*
X42287200Y-28731300D03*
%TO.N,BOOT0*%
X34185300Y-23801100D03*
X30964599Y-36196600D03*
%TO.N,LED_D12*%
X10151900Y-63627800D03*
X75076800Y-66601800D03*
X10151900Y-8722600D03*
%TD*%
%TO.N,ROW2*%
D20*
X49442600Y-30350700D02*
X49405400Y-30313500D01*
X49442600Y-57792600D02*
X49442600Y-30350700D01*
X51925000Y-60275000D02*
X49442600Y-57792600D01*
%TO.N,ROW0*%
X51925000Y-22175000D02*
X51925000Y-25834799D01*
X51925000Y-25834799D02*
X48009800Y-29750000D01*
X51925000Y-25834799D02*
X48009800Y-29750000D01*
%TO.N,ROW3*%
X41822300Y-78747300D02*
X41822300Y-37771200D01*
X42400000Y-79325000D02*
X41822300Y-78747300D01*
X41822300Y-37771200D02*
X46750000Y-32843500D01*
X42400000Y-79325000D02*
X41822300Y-78747300D01*
X41822300Y-78747300D02*
X41822300Y-37771200D01*
%TO.N,SWD*%
X44698300Y-27086200D02*
X42715700Y-25103600D01*
X44698300Y-27203500D02*
X44698300Y-27086200D01*
X48489200Y-30994400D02*
X44698300Y-27203500D01*
X44698300Y-27203500D02*
X44698300Y-27086200D01*
X42715700Y-25103600D02*
X42529800Y-25103600D01*
X53729500Y-86705900D02*
X53729500Y-69768100D01*
X55170400Y-88146800D02*
X53729500Y-86705900D01*
X48489200Y-30994400D02*
X44698300Y-27203500D01*
X53729500Y-86705900D02*
X53729500Y-69768100D01*
X44698300Y-27086200D02*
X42715700Y-25103600D01*
X53729500Y-69768100D02*
X48489200Y-64527800D01*
X48489200Y-64527800D02*
X48489200Y-30994400D01*
X55170400Y-88146800D02*
X53729500Y-86705900D01*
X42715700Y-25103600D02*
X42529800Y-25103600D01*
%TO.N,+5V*%
X38674800Y-39088100D02*
X38674800Y-49288000D01*
X61267199Y-35554900D02*
X61267199Y-50275000D01*
X42561800Y-11127900D02*
X41097500Y-12592200D01*
X38674800Y-49288000D02*
X39288300Y-49901500D01*
X40127400Y-37635500D02*
X38674800Y-39088100D01*
X40127400Y-30387300D02*
X40127400Y-31715500D01*
X40127400Y-31715500D02*
X40127400Y-37635500D01*
X60797500Y-35085200D02*
X61267199Y-35554900D01*
X41097500Y-29417200D02*
X40127400Y-30387300D01*
X41097500Y-12592200D02*
X41097500Y-29417200D01*
%TO.N,USB_DP_CONN*%
X44750000Y-3000000D02*
X47000000Y-5250000D01*
X44750000Y-3000000D02*
X45750000Y-3000000D01*
X47000000Y-5050000D02*
X47000000Y-9250000D01*
X44750000Y-2200000D02*
X44750000Y-3000000D01*
%TO.N,COL1*%
X47848500Y-71344200D02*
X48164900Y-71660600D01*
X48164900Y-75178600D02*
X47725300Y-75618200D01*
X47848500Y-63035900D02*
X47848500Y-71344200D01*
X47848500Y-63035900D02*
X47848500Y-71344200D01*
X42445400Y-15631600D02*
X45750000Y-18936200D01*
X45750000Y-18936200D02*
X45750000Y-27556099D01*
X48164900Y-71660600D02*
X48164900Y-75178600D01*
X47725300Y-75618200D02*
X47725300Y-75813000D01*
X42575000Y-57762400D02*
X47848500Y-63035900D01*
X42575000Y-57762400D02*
X47848500Y-63035900D01*
X47725300Y-75618200D02*
X47725300Y-75813000D01*
X48164900Y-75178600D02*
X47725300Y-75618200D01*
X45750000Y-18936200D02*
X45750000Y-27556099D01*
X48164900Y-71660600D02*
X48164900Y-75178600D01*
%TO.N,COL3*%
X79669400Y-47644400D02*
X79669400Y-58584600D01*
X76792200Y-40358300D02*
X76792200Y-44767199D01*
X76792200Y-44767199D02*
X79669400Y-47644400D01*
X76792200Y-44767199D02*
X79669400Y-47644400D01*
X78059500Y-39091000D02*
X76792200Y-40358300D01*
X76792200Y-40358300D02*
X76792200Y-44767199D01*
X79916800Y-58832000D02*
X79669400Y-58584600D01*
X79916800Y-76916800D02*
X79916800Y-58832000D01*
X79916800Y-76916800D02*
X79916800Y-58832000D01*
X78059500Y-39091000D02*
X76792200Y-40358300D01*
%TO.N,COL2*%
X63069700Y-54698200D02*
X63069700Y-39180200D01*
X62225400Y-55542500D02*
X63069700Y-54698200D01*
X63069700Y-39180200D02*
X63069700Y-19410700D01*
X63069700Y-19410700D02*
X60009000Y-16350000D01*
X63069700Y-54698200D02*
X63069700Y-39180200D01*
%TO.N,NRST*%
X50336800Y-18877200D02*
X47574800Y-21639200D01*
X47574800Y-21639200D02*
X47574800Y-27250000D01*
X47574800Y-21639200D02*
X47574800Y-27250000D01*
%TO.N,LED_D16*%
X79577500Y-43013600D02*
X79577500Y-9440299D01*
X77653800Y-44937300D02*
X79577500Y-43013600D01*
%TO.N,LED_D6*%
X71187699Y-46894400D02*
X71187699Y-43827900D01*
X76708300Y-29088700D02*
X76511600Y-28892000D01*
X71187699Y-43827900D02*
X76708300Y-38307300D01*
X71187699Y-46894400D02*
X71187699Y-43827900D01*
X71187699Y-43827900D02*
X76708300Y-38307300D01*
X76708300Y-29088700D02*
X76511600Y-28892000D01*
X76708300Y-38307300D02*
X76708300Y-29088700D01*
%TD*%
M02*
