%TF.GenerationSoftware,KiCad,Pcbnew,10.0.4*%
%TF.CreationDate,2026-07-17T12:11:25-07:00*%
%TF.ProjectId,codex_micro_wired_revA,636f6465-785f-46d6-9963-726f5f776972,rev?*%
%TF.SameCoordinates,Original*%
%TF.FileFunction,Soldermask,Bot*%
%TF.FilePolarity,Negative*%
%FSLAX46Y46*%
G04 Gerber Fmt 4.6, Leading zero omitted, Abs format (unit mm)*
G04 Created by KiCad (PCBNEW 10.0.4) date 2026-07-17 12:11:25*
%MOMM*%
%LPD*%
G01*
G04 APERTURE LIST*
G04 Aperture macros list*
%AMRoundRect*
0 Rectangle with rounded corners*
0 $1 Rounding radius*
0 $2 $3 $4 $5 $6 $7 $8 $9 X,Y pos of 4 corners*
0 Add a 4 corners polygon primitive as box body*
4,1,4,$2,$3,$4,$5,$6,$7,$8,$9,$2,$3,0*
0 Add four circle primitives for the rounded corners*
1,1,$1+$1,$2,$3*
1,1,$1+$1,$4,$5*
1,1,$1+$1,$6,$7*
1,1,$1+$1,$8,$9*
0 Add four rect primitives between the rounded corners*
20,1,$1+$1,$2,$3,$4,$5,0*
20,1,$1+$1,$4,$5,$6,$7,0*
20,1,$1+$1,$6,$7,$8,$9,0*
20,1,$1+$1,$8,$9,$2,$3,0*%
G04 Aperture macros list end*
%ADD10O,2.200000X1.600000*%
%ADD11C,2.100000*%
%ADD12R,2.000000X2.000000*%
%ADD13C,2.000000*%
%ADD14R,3.200000X2.000000*%
%ADD15C,1.600000*%
%ADD16C,5.300000*%
%ADD17C,1.900000*%
%ADD18C,3.200000*%
%ADD19C,3.300000*%
%ADD20C,0.650000*%
%ADD21O,1.000000X2.100000*%
%ADD22O,1.000000X1.600000*%
%ADD23RoundRect,0.225000X0.375000X-0.225000X0.375000X0.225000X-0.375000X0.225000X-0.375000X-0.225000X0*%
%ADD24RoundRect,0.205000X0.470000X0.205000X-0.470000X0.205000X-0.470000X-0.205000X0.470000X-0.205000X0*%
%ADD25R,0.400000X1.000000*%
%ADD26R,2.000000X1.300000*%
%ADD27R,1.700000X1.000000*%
%ADD28RoundRect,0.225000X0.225000X0.250000X-0.225000X0.250000X-0.225000X-0.250000X0.225000X-0.250000X0*%
%ADD29RoundRect,0.200000X0.275000X-0.200000X0.275000X0.200000X-0.275000X0.200000X-0.275000X-0.200000X0*%
%ADD30RoundRect,0.150000X0.512500X0.150000X-0.512500X0.150000X-0.512500X-0.150000X0.512500X-0.150000X0*%
%ADD31RoundRect,0.140000X0.170000X-0.140000X0.170000X0.140000X-0.170000X0.140000X-0.170000X-0.140000X0*%
%ADD32RoundRect,0.225000X0.250000X-0.225000X0.250000X0.225000X-0.250000X0.225000X-0.250000X-0.225000X0*%
%ADD33RoundRect,0.075000X0.662500X0.075000X-0.662500X0.075000X-0.662500X-0.075000X0.662500X-0.075000X0*%
%ADD34RoundRect,0.075000X0.075000X0.662500X-0.075000X0.662500X-0.075000X-0.662500X0.075000X-0.662500X0*%
%ADD35RoundRect,0.200000X0.200000X0.275000X-0.200000X0.275000X-0.200000X-0.275000X0.200000X-0.275000X0*%
%ADD36RoundRect,0.250000X0.325000X1.100000X-0.325000X1.100000X-0.325000X-1.100000X0.325000X-1.100000X0*%
G04 APERTURE END LIST*
D10*
%TO.C,ENC1*%
X19425000Y-18925000D03*
D11*
X23925000Y-18925000D03*
D12*
X16425000Y-16425000D03*
D13*
X16425000Y-21425000D03*
X16425000Y-18925000D03*
D14*
X23925000Y-13325000D03*
X23925000Y-24525000D03*
D15*
X30925000Y-21425000D03*
X30925000Y-16425000D03*
%TD*%
D16*
%TO.C,SW10*%
X73575000Y-54525000D03*
D17*
X70975000Y-60275000D03*
X77975000Y-60275000D03*
%TD*%
D16*
%TO.C,SW7*%
X16425000Y-54525000D03*
D17*
X13825000Y-60275000D03*
X20825000Y-60275000D03*
%TD*%
D16*
%TO.C,SW2*%
X54525000Y-16425000D03*
D17*
X51925000Y-22175000D03*
X58925000Y-22175000D03*
%TD*%
D16*
%TO.C,SW4*%
X35475000Y-35475000D03*
D17*
X32875000Y-41225000D03*
X39875000Y-41225000D03*
%TD*%
D18*
%TO.C,H2*%
X84000000Y-6000000D03*
%TD*%
%TO.C,H4*%
X84000000Y-84000000D03*
%TD*%
D16*
%TO.C,SW3*%
X16425000Y-35475000D03*
D17*
X13825000Y-41225000D03*
X20825000Y-41225000D03*
%TD*%
D16*
%TO.C,SW5*%
X54525000Y-35475000D03*
D17*
X51925000Y-41225000D03*
X58925000Y-41225000D03*
%TD*%
D16*
%TO.C,SW12*%
X73575000Y-73575000D03*
D17*
X70975000Y-79325000D03*
X77975000Y-79325000D03*
%TD*%
D16*
%TO.C,SW11*%
X45000000Y-73575000D03*
D17*
X42400000Y-79325000D03*
X49400000Y-79325000D03*
%TD*%
D19*
%TO.C,HSTAB1*%
X33100000Y-73575000D03*
%TD*%
D16*
%TO.C,SW6*%
X73575000Y-35475000D03*
D17*
X70975000Y-41225000D03*
X77975000Y-41225000D03*
%TD*%
%TO.C,JOY1*%
X65325000Y-9625000D03*
X65575000Y-23225000D03*
X81575000Y-23225000D03*
X81825000Y-9625000D03*
%TD*%
D16*
%TO.C,SW9*%
X54525000Y-54525000D03*
D17*
X51925000Y-60275000D03*
X58925000Y-60275000D03*
%TD*%
D18*
%TO.C,H1*%
X6000000Y-6000000D03*
%TD*%
D20*
%TO.C,J1*%
X42110000Y-2500000D03*
X47890000Y-2500000D03*
D21*
X40680000Y-1970000D03*
D22*
X40680000Y-6150000D03*
D21*
X49320000Y-1970000D03*
D22*
X49320000Y-6150000D03*
%TD*%
D19*
%TO.C,HSTAB2*%
X56900000Y-73575000D03*
%TD*%
D16*
%TO.C,SW8*%
X35475000Y-54525000D03*
D17*
X32875000Y-60275000D03*
X39875000Y-60275000D03*
%TD*%
D18*
%TO.C,H3*%
X6000000Y-84000000D03*
%TD*%
D16*
%TO.C,SW1*%
X35475000Y-16425000D03*
D17*
X32875000Y-22175000D03*
X39875000Y-22175000D03*
%TD*%
D23*
%TO.C,D4*%
X42575000Y-42875000D03*
X42575000Y-39575000D03*
%TD*%
D24*
%TO.C,LED24*%
X16725000Y-84750000D03*
X16725000Y-83250000D03*
X11275000Y-83250000D03*
X11275000Y-84750000D03*
%TD*%
%TO.C,LED22*%
X8725000Y-64750000D03*
X8725000Y-63250000D03*
X3275000Y-63250000D03*
X3275000Y-64750000D03*
%TD*%
%TO.C,LED15*%
X62725000Y-8750000D03*
X62725000Y-7250000D03*
X57275000Y-7250000D03*
X57275000Y-8750000D03*
%TD*%
D23*
%TO.C,D10*%
X80675000Y-61925000D03*
X80675000Y-58625000D03*
%TD*%
D25*
%TO.C,J2*%
X72075000Y-25910000D03*
X73075000Y-25910000D03*
X74075000Y-25910000D03*
X75075000Y-25910000D03*
D26*
X69275000Y-23210000D03*
X77875000Y-23210000D03*
%TD*%
D24*
%TO.C,LED1*%
X38200000Y-12175000D03*
X38200000Y-10675000D03*
X32750000Y-10675000D03*
X32750000Y-12175000D03*
%TD*%
%TO.C,LED4*%
X38200000Y-31225000D03*
X38200000Y-29725000D03*
X32750000Y-29725000D03*
X32750000Y-31225000D03*
%TD*%
D23*
%TO.C,D2*%
X59000000Y-19650000D03*
X59000000Y-16350000D03*
%TD*%
D27*
%TO.C,SW13*%
X30150000Y-28100000D03*
X23850000Y-28100000D03*
X30150000Y-31900000D03*
X23850000Y-31900000D03*
%TD*%
D24*
%TO.C,LED19*%
X32725000Y-84750000D03*
X32725000Y-83250000D03*
X27275000Y-83250000D03*
X27275000Y-84750000D03*
%TD*%
D23*
%TO.C,D1*%
X42575000Y-18075000D03*
X42575000Y-14775000D03*
%TD*%
%TO.C,D11*%
X52100000Y-80975000D03*
X52100000Y-77675000D03*
%TD*%
D28*
%TO.C,C10*%
X31775000Y-66000000D03*
X30225000Y-66000000D03*
%TD*%
D29*
%TO.C,R3*%
X51000000Y-19825000D03*
X51000000Y-18175000D03*
%TD*%
D24*
%TO.C,LED21*%
X62725000Y-84750000D03*
X62725000Y-83250000D03*
X57275000Y-83250000D03*
X57275000Y-84750000D03*
%TD*%
%TO.C,LED9*%
X57250000Y-50275000D03*
X57250000Y-48775000D03*
X51800000Y-48775000D03*
X51800000Y-50275000D03*
%TD*%
%TO.C,LED5*%
X57250000Y-31225000D03*
X57250000Y-29725000D03*
X51800000Y-29725000D03*
X51800000Y-31225000D03*
%TD*%
D23*
%TO.C,D12*%
X80675000Y-80975000D03*
X80675000Y-77675000D03*
%TD*%
%TO.C,D7*%
X23525000Y-61925000D03*
X23525000Y-58625000D03*
%TD*%
D30*
%TO.C,U4*%
X46137500Y-10050000D03*
X46137500Y-11000000D03*
X46137500Y-11950000D03*
X43862500Y-11950000D03*
X43862500Y-11000000D03*
X43862500Y-10050000D03*
%TD*%
D24*
%TO.C,LED11*%
X47725000Y-69325000D03*
X47725000Y-67825000D03*
X42275000Y-67825000D03*
X42275000Y-69325000D03*
%TD*%
D28*
%TO.C,C2*%
X68775000Y-19000000D03*
X67225000Y-19000000D03*
%TD*%
D24*
%TO.C,LED17*%
X10725000Y-45750000D03*
X10725000Y-44250000D03*
X5275000Y-44250000D03*
X5275000Y-45750000D03*
%TD*%
D31*
%TO.C,C3*%
X39000000Y-24280000D03*
X39000000Y-23320000D03*
%TD*%
D24*
%TO.C,LED6*%
X76300000Y-31225000D03*
X76300000Y-29725000D03*
X70850000Y-29725000D03*
X70850000Y-31225000D03*
%TD*%
%TO.C,LED20*%
X47725000Y-82750000D03*
X47725000Y-81250000D03*
X42275000Y-81250000D03*
X42275000Y-82750000D03*
%TD*%
D31*
%TO.C,C6*%
X51000000Y-24280000D03*
X51000000Y-23320000D03*
%TD*%
D32*
%TO.C,C9*%
X49000000Y-20275000D03*
X49000000Y-18725000D03*
%TD*%
D33*
%TO.C,U1*%
X49162500Y-24250000D03*
X49162500Y-24750000D03*
X49162500Y-25250000D03*
X49162500Y-25750000D03*
X49162500Y-26250000D03*
X49162500Y-26750000D03*
X49162500Y-27250000D03*
X49162500Y-27750000D03*
X49162500Y-28250000D03*
X49162500Y-28750000D03*
X49162500Y-29250000D03*
X49162500Y-29750000D03*
D34*
X47750000Y-31162500D03*
X47250000Y-31162500D03*
X46750000Y-31162500D03*
X46250000Y-31162500D03*
X45750000Y-31162500D03*
X45250000Y-31162500D03*
X44750000Y-31162500D03*
X44250000Y-31162500D03*
X43750000Y-31162500D03*
X43250000Y-31162500D03*
X42750000Y-31162500D03*
X42250000Y-31162500D03*
D33*
X40837500Y-29750000D03*
X40837500Y-29250000D03*
X40837500Y-28750000D03*
X40837500Y-28250000D03*
X40837500Y-27750000D03*
X40837500Y-27250000D03*
X40837500Y-26750000D03*
X40837500Y-26250000D03*
X40837500Y-25750000D03*
X40837500Y-25250000D03*
X40837500Y-24750000D03*
X40837500Y-24250000D03*
D34*
X42250000Y-22837500D03*
X42750000Y-22837500D03*
X43250000Y-22837500D03*
X43750000Y-22837500D03*
X44250000Y-22837500D03*
X44750000Y-22837500D03*
X45250000Y-22837500D03*
X45750000Y-22837500D03*
X46250000Y-22837500D03*
X46750000Y-22837500D03*
X47250000Y-22837500D03*
X47750000Y-22837500D03*
%TD*%
D24*
%TO.C,LED12*%
X76300000Y-69325000D03*
X76300000Y-67825000D03*
X70850000Y-67825000D03*
X70850000Y-69325000D03*
%TD*%
%TO.C,LED10*%
X76300000Y-50275000D03*
X76300000Y-48775000D03*
X70850000Y-48775000D03*
X70850000Y-50275000D03*
%TD*%
D35*
%TO.C,R1*%
X39825000Y-7500000D03*
X38175000Y-7500000D03*
%TD*%
D31*
%TO.C,C7*%
X51000000Y-26280000D03*
X51000000Y-25320000D03*
%TD*%
D30*
%TO.C,U6*%
X28137500Y-65050000D03*
X28137500Y-66000000D03*
X28137500Y-66950000D03*
X25862500Y-66950000D03*
X25862500Y-66000000D03*
X25862500Y-65050000D03*
%TD*%
D24*
%TO.C,LED2*%
X57250000Y-12175000D03*
X57250000Y-10675000D03*
X51800000Y-10675000D03*
X51800000Y-12175000D03*
%TD*%
%TO.C,LED8*%
X38200000Y-50275000D03*
X38200000Y-48775000D03*
X32750000Y-48775000D03*
X32750000Y-50275000D03*
%TD*%
D31*
%TO.C,C8*%
X51000000Y-28280000D03*
X51000000Y-27320000D03*
%TD*%
D24*
%TO.C,LED18*%
X84725000Y-45750000D03*
X84725000Y-44250000D03*
X79275000Y-44250000D03*
X79275000Y-45750000D03*
%TD*%
D30*
%TO.C,U5*%
X64137500Y-35050000D03*
X64137500Y-36000000D03*
X64137500Y-36950000D03*
X61862500Y-36950000D03*
X61862500Y-35050000D03*
%TD*%
D24*
%TO.C,LED23*%
X8725000Y-72750000D03*
X8725000Y-71250000D03*
X3275000Y-71250000D03*
X3275000Y-72750000D03*
%TD*%
%TO.C,LED14*%
X32725000Y-8750000D03*
X32725000Y-7250000D03*
X27275000Y-7250000D03*
X27275000Y-8750000D03*
%TD*%
D23*
%TO.C,D8*%
X42575000Y-61925000D03*
X42575000Y-58625000D03*
%TD*%
%TO.C,D6*%
X79075000Y-42875000D03*
X79075000Y-39575000D03*
%TD*%
D27*
%TO.C,SW14*%
X30150000Y-37100000D03*
X23850000Y-37100000D03*
X30150000Y-40900000D03*
X23850000Y-40900000D03*
%TD*%
D35*
%TO.C,R2*%
X43825000Y-7500000D03*
X42175000Y-7500000D03*
%TD*%
D23*
%TO.C,D3*%
X23525000Y-42875000D03*
X23525000Y-39575000D03*
%TD*%
D30*
%TO.C,U3*%
X65137500Y-15050000D03*
X65137500Y-16000000D03*
X65137500Y-16950000D03*
X62862500Y-16950000D03*
X62862500Y-15050000D03*
%TD*%
D24*
%TO.C,LED7*%
X19150000Y-50275000D03*
X19150000Y-48775000D03*
X13700000Y-48775000D03*
X13700000Y-50275000D03*
%TD*%
D23*
%TO.C,D5*%
X61625000Y-42875000D03*
X61625000Y-39575000D03*
%TD*%
D24*
%TO.C,LED13*%
X16725000Y-8750000D03*
X16725000Y-7250000D03*
X11275000Y-7250000D03*
X11275000Y-8750000D03*
%TD*%
D31*
%TO.C,C5*%
X39000000Y-28280000D03*
X39000000Y-27320000D03*
%TD*%
D24*
%TO.C,LED3*%
X19150000Y-31225000D03*
X19150000Y-29725000D03*
X13700000Y-29725000D03*
X13700000Y-31225000D03*
%TD*%
D31*
%TO.C,C4*%
X39000000Y-26280000D03*
X39000000Y-25320000D03*
%TD*%
D23*
%TO.C,D9*%
X61625000Y-61925000D03*
X61625000Y-58625000D03*
%TD*%
D36*
%TO.C,C19*%
X65475000Y-30000000D03*
X62525000Y-30000000D03*
%TD*%
D29*
%TO.C,R4*%
X45750000Y-20325000D03*
X45750000Y-18675000D03*
%TD*%
D28*
%TO.C,C1*%
X68775000Y-14000000D03*
X67225000Y-14000000D03*
%TD*%
D24*
%TO.C,LED16*%
X78725000Y-8750000D03*
X78725000Y-7250000D03*
X73275000Y-7250000D03*
X73275000Y-8750000D03*
%TD*%
M02*
