M48
; DRILL file KiCad 10.0.4 date 2026-07-17T12:11:25
; FORMAT={-:-/ absolute / metric / decimal}
; #@! TF.CreationDate,2026-07-17T12:11:25-07:00
; #@! TF.GenerationSoftware,Kicad,Pcbnew,10.0.4
; #@! TF.FileFunction,Plated,1,6,PTH
FMAT,2
METRIC
; #@! TA.AperFunction,Plated,PTH,ViaDrill
T1C0.200
; #@! TA.AperFunction,Plated,PTH,ViaDrill
T2C0.300
; #@! TA.AperFunction,Plated,PTH,ComponentDrill
T3C0.600
; #@! TA.AperFunction,Plated,PTH,ComponentDrill
T4C1.000
; #@! TA.AperFunction,Plated,PTH,ComponentDrill
T5C1.200
; #@! TA.AperFunction,Plated,PTH,ComponentDrill
T6C1.500
%
G90
G05
T1
X3.275Y-65.573
X5.391Y-46.569
X8.51Y-65.564
X10.152Y-8.723
X10.152Y-63.628
X11.807Y-44.25
X12.848Y-48.081
X17.591Y-39.159
X20.346Y-50.275
X24.505Y-39.063
X24.548Y-58.518
X26.544Y-40.9
X27.019Y-85.578
X27.287Y-61.174
X27.542Y-68.621
X28.137Y-64.328
X30.965Y-36.197
X31.454Y-27.209
X34.185Y-23.801
X34.251Y-19.69
X35.143Y-26.443
X37.327Y-22.079
X38.118Y-9.86
X38.908Y-33.367
X39.034Y-30.455
X39.288Y-49.901
X39.9Y-24.75
X40.127Y-31.715
X41.165Y-30.313
X42.253Y-23.977
X42.287Y-28.731
X42.445Y-15.632
X42.522Y-26.527
X42.53Y-25.104
X42.562Y-11.128
X42.575Y-57.762
X42.589Y-25.809
X42.796Y-10.424
X43.548Y-5.104
X43.597Y-30.01
X44.222Y-27.284
X44.25Y-2.2
X44.307Y-12.656
X44.75Y-2.2
X44.75Y-32.326
X45.25Y-2.2
X45.25Y-35.041
X45.75Y-3.0
X45.75Y-27.556
X46.184Y-2.372
X46.213Y-36.682
X46.304Y-25.984
X46.75Y-32.843
X47.0Y-9.25
X47.373Y-58.656
X47.55Y-11.1
X47.575Y-27.25
X47.725Y-75.813
X47.834Y-83.58
X48.01Y-29.75
X48.454Y-70.136
X48.966Y-31.453
X49.1Y-14.17
X49.405Y-30.313
X50.337Y-18.877
X50.72Y-12.175
X51.914Y-38.146
X55.17Y-88.147
X60.009Y-16.35
X60.797Y-35.085
X61.167Y-16.224
X61.267Y-50.275
X61.509Y-79.969
X61.862Y-36.243
X62.088Y-86.19
X62.225Y-55.542
X62.627Y-20.249
X63.07Y-39.18
X63.877Y-30.292
X66.693Y-81.501
X67.778Y-30.0
X70.933Y-16.158
X71.188Y-46.894
X73.259Y-15.449
X75.077Y-66.602
X76.455Y-47.962
X76.512Y-28.892
X77.654Y-44.937
X78.059Y-39.091
X78.477Y-45.0
X79.578Y-9.44
X79.669Y-58.585
X79.917Y-76.917
X84.725Y-43.414
T2
X5.0Y-25.0
X5.0Y-58.0
X25.0Y-5.0
X25.0Y-85.0
X65.0Y-5.0
X65.0Y-85.0
X85.0Y-25.0
X85.0Y-58.0
T4
X16.425Y-16.425
X16.425Y-18.925
X16.425Y-21.425
X30.925Y-16.425
X30.925Y-21.425
T5
X13.825Y-41.225
X13.825Y-60.275
X20.825Y-41.225
X20.825Y-60.275
X32.875Y-22.175
X32.875Y-41.225
X32.875Y-60.275
X39.875Y-22.175
X39.875Y-41.225
X39.875Y-60.275
X42.4Y-79.325
X49.4Y-79.325
X51.925Y-22.175
X51.925Y-41.225
X51.925Y-60.275
X58.925Y-22.175
X58.925Y-41.225
X58.925Y-60.275
X70.975Y-41.225
X70.975Y-60.275
X70.975Y-79.325
X77.975Y-41.225
X77.975Y-60.275
X77.975Y-79.325
T3
X40.68Y-1.42G85X40.68Y-2.52
G05
X40.68Y-5.85G85X40.68Y-6.45
G05
X49.32Y-1.42G85X49.32Y-2.52
G05
X49.32Y-5.85G85X49.32Y-6.45
G05
T6
X23.275Y-13.325G85X24.575Y-13.325
G05
X23.275Y-24.525G85X24.575Y-24.525
G05
M30
