%TF.GenerationSoftware,KiCad,Pcbnew,10.0.4*%
%TF.CreationDate,2026-07-17T12:11:25-07:00*%
%TF.ProjectId,codex_micro_wired_revA,636f6465-785f-46d6-9963-726f5f776972,rev?*%
%TF.SameCoordinates,Original*%
%TF.FileFunction,Soldermask,Top*%
%TF.FilePolarity,Negative*%
%FSLAX46Y46*%
G04 Gerber Fmt 4.6, Leading zero omitted, Abs format (unit mm)*
G04 Created by KiCad (PCBNEW 10.0.4) date 2026-07-17 12:11:25*
%MOMM*%
%LPD*%
G01*
G04 APERTURE LIST*
G04 Aperture macros list*
%AMRoundRect*
0 Rectangle with rounded corners*
0 $1 Rounding radius*
0 $2 $3 $4 $5 $6 $7 $8 $9 X,Y pos of 4 corners*
0 Add a 4 corners polygon primitive as box body*
4,1,4,$2,$3,$4,$5,$6,$7,$8,$9,$2,$3,0*
0 Add four circle primitives for the rounded corners*
1,1,$1+$1,$2,$3*
1,1,$1+$1,$4,$5*
1,1,$1+$1,$6,$7*
1,1,$1+$1,$8,$9*
0 Add four rect primitives between the rounded corners*
20,1,$1+$1,$2,$3,$4,$5,0*
20,1,$1+$1,$4,$5,$6,$7,0*
20,1,$1+$1,$6,$7,$8,$9,0*
20,1,$1+$1,$8,$9,$2,$3,0*%
G04 Aperture macros list end*
%ADD10O,2.200000X1.600000*%
%ADD11C,2.100000*%
%ADD12R,2.000000X2.000000*%
%ADD13C,2.000000*%
%ADD14R,3.200000X2.000000*%
%ADD15C,1.600000*%
%ADD16C,5.300000*%
%ADD17C,1.900000*%
%ADD18C,3.200000*%
%ADD19C,3.300000*%
%ADD20C,0.650000*%
%ADD21RoundRect,0.150000X-0.150000X-0.575000X0.150000X-0.575000X0.150000X0.575000X-0.150000X0.575000X0*%
%ADD22RoundRect,0.075000X-0.075000X-0.650000X0.075000X-0.650000X0.075000X0.650000X-0.075000X0.650000X0*%
%ADD23O,1.000000X2.100000*%
%ADD24O,1.000000X1.600000*%
G04 APERTURE END LIST*
D10*
%TO.C,ENC1*%
X19425000Y-18925000D03*
D11*
X23925000Y-18925000D03*
D12*
X16425000Y-16425000D03*
D13*
X16425000Y-21425000D03*
X16425000Y-18925000D03*
D14*
X23925000Y-13325000D03*
X23925000Y-24525000D03*
D15*
X30925000Y-21425000D03*
X30925000Y-16425000D03*
%TD*%
D16*
%TO.C,SW10*%
X73575000Y-54525000D03*
D17*
X70975000Y-60275000D03*
X77975000Y-60275000D03*
%TD*%
D16*
%TO.C,SW7*%
X16425000Y-54525000D03*
D17*
X13825000Y-60275000D03*
X20825000Y-60275000D03*
%TD*%
D16*
%TO.C,SW2*%
X54525000Y-16425000D03*
D17*
X51925000Y-22175000D03*
X58925000Y-22175000D03*
%TD*%
D16*
%TO.C,SW4*%
X35475000Y-35475000D03*
D17*
X32875000Y-41225000D03*
X39875000Y-41225000D03*
%TD*%
D18*
%TO.C,H2*%
X84000000Y-6000000D03*
%TD*%
%TO.C,H4*%
X84000000Y-84000000D03*
%TD*%
D16*
%TO.C,SW3*%
X16425000Y-35475000D03*
D17*
X13825000Y-41225000D03*
X20825000Y-41225000D03*
%TD*%
D16*
%TO.C,SW5*%
X54525000Y-35475000D03*
D17*
X51925000Y-41225000D03*
X58925000Y-41225000D03*
%TD*%
D16*
%TO.C,SW12*%
X73575000Y-73575000D03*
D17*
X70975000Y-79325000D03*
X77975000Y-79325000D03*
%TD*%
D16*
%TO.C,SW11*%
X45000000Y-73575000D03*
D17*
X42400000Y-79325000D03*
X49400000Y-79325000D03*
%TD*%
D19*
%TO.C,HSTAB1*%
X33100000Y-73575000D03*
%TD*%
D16*
%TO.C,SW6*%
X73575000Y-35475000D03*
D17*
X70975000Y-41225000D03*
X77975000Y-41225000D03*
%TD*%
%TO.C,JOY1*%
X65325000Y-9625000D03*
X65575000Y-23225000D03*
X81575000Y-23225000D03*
X81825000Y-9625000D03*
%TD*%
D16*
%TO.C,SW9*%
X54525000Y-54525000D03*
D17*
X51925000Y-60275000D03*
X58925000Y-60275000D03*
%TD*%
D18*
%TO.C,H1*%
X6000000Y-6000000D03*
%TD*%
D20*
%TO.C,J1*%
X42110000Y-2500000D03*
X47890000Y-2500000D03*
D21*
X41750000Y-1055000D03*
X42550000Y-1055000D03*
D22*
X43750000Y-1055000D03*
X44750000Y-1055000D03*
X45250000Y-1055000D03*
X46250000Y-1055000D03*
D21*
X47450000Y-1055000D03*
X48250000Y-1055000D03*
X48250000Y-1055000D03*
X47450000Y-1055000D03*
D22*
X46750000Y-1055000D03*
X45750000Y-1055000D03*
X44250000Y-1055000D03*
X43250000Y-1055000D03*
D21*
X42550000Y-1055000D03*
X41750000Y-1055000D03*
D23*
X40680000Y-1970000D03*
D24*
X40680000Y-6150000D03*
D23*
X49320000Y-1970000D03*
D24*
X49320000Y-6150000D03*
%TD*%
D19*
%TO.C,HSTAB2*%
X56900000Y-73575000D03*
%TD*%
D16*
%TO.C,SW8*%
X35475000Y-54525000D03*
D17*
X32875000Y-60275000D03*
X39875000Y-60275000D03*
%TD*%
D18*
%TO.C,H3*%
X6000000Y-84000000D03*
%TD*%
D16*
%TO.C,SW1*%
X35475000Y-16425000D03*
D17*
X32875000Y-22175000D03*
X39875000Y-22175000D03*
%TD*%
M02*
