%TF.GenerationSoftware,KiCad,Pcbnew,10.0.4*%
%TF.CreationDate,2026-07-17T12:11:25-07:00*%
%TF.ProjectId,codex_micro_wired_revA,636f6465-785f-46d6-9963-726f5f776972,rev?*%
%TF.SameCoordinates,Original*%
%TF.FileFunction,Profile,NP*%
%FSLAX46Y46*%
G04 Gerber Fmt 4.6, Leading zero omitted, Abs format (unit mm)*
G04 Created by KiCad (PCBNEW 10.0.4) date 2026-07-17 12:11:25*
%MOMM*%
%LPD*%
G01*
G04 APERTURE LIST*
%TA.AperFunction,Profile*%
%ADD10C,0.150000*%
%TD*%
%TA.AperFunction,Profile*%
%ADD11C,0.120000*%
%TD*%
G04 APERTURE END LIST*
D10*
X0Y-4000000D02*
G75*
G02*
X4000000Y0I4001460J-1460D01*
G01*
X0Y-86000000D02*
X0Y-4000000D01*
X4000000Y0D02*
X86000000Y0D01*
X4000000Y-90000000D02*
G75*
G02*
X0Y-86000000I1460J4001460D01*
G01*
X86000000Y0D02*
G75*
G02*
X90000000Y-4000000I-1500J-4001500D01*
G01*
X86000000Y-90000000D02*
X4000000Y-90000000D01*
X90000000Y-4000000D02*
X90000000Y-86000000D01*
X90000000Y-86000000D02*
G75*
G02*
X86000000Y-90000000I-4001460J1460D01*
G01*
%TO.C,LED24*%
D11*
X12352575Y-84000000D02*
X12352575Y-83324112D01*
X12352575Y-84000000D02*
X12352575Y-84675887D01*
X14000000Y-82552399D02*
X13127491Y-82552399D01*
X14000000Y-82552399D02*
X14872508Y-82552399D01*
X14000000Y-85447600D02*
X13127491Y-85447600D01*
X14000000Y-85447600D02*
X14872508Y-85447600D01*
X15647424Y-84000000D02*
X15647424Y-83324112D01*
X15647424Y-84000000D02*
X15647424Y-84675887D01*
X12310000Y-83173270D02*
G75*
G02*
X12352558Y-83324112I-246000J-150830D01*
G01*
X12310000Y-83173270D02*
G75*
G02*
X12976023Y-82509999I413242J251072D01*
G01*
X12352575Y-84675887D02*
G75*
G02*
X12310000Y-84826729I-288315J-53D01*
G01*
X12976023Y-85490000D02*
G75*
G02*
X12309996Y-84826727I-252783J412200D01*
G01*
X12976023Y-85490000D02*
G75*
G02*
X13127491Y-85447598I151427J-249190D01*
G01*
X13127491Y-82552399D02*
G75*
G02*
X12976030Y-82509989I9J291699D01*
G01*
X14872508Y-85447600D02*
G75*
G02*
X15023976Y-85490000I39J-291610D01*
G01*
X15023976Y-82510000D02*
G75*
G02*
X14872508Y-82552399I-151431J249223D01*
G01*
X15023976Y-82510000D02*
G75*
G02*
X15690000Y-83173270I252779J-412201D01*
G01*
X15647424Y-83324112D02*
G75*
G02*
X15690000Y-83173270I288613J-33D01*
G01*
X15690000Y-84826729D02*
G75*
G02*
X15023976Y-85489999I-413246J-251068D01*
G01*
X15690000Y-84826729D02*
G75*
G02*
X15647424Y-84675887I246037J150875D01*
G01*
%TO.C,LED22*%
X4352575Y-64000000D02*
X4352575Y-63324112D01*
X4352575Y-64000000D02*
X4352575Y-64675887D01*
X6000000Y-62552399D02*
X5127491Y-62552399D01*
X6000000Y-62552399D02*
X6872508Y-62552399D01*
X6000000Y-65447600D02*
X5127491Y-65447600D01*
X6000000Y-65447600D02*
X6872508Y-65447600D01*
X7647424Y-64000000D02*
X7647424Y-63324112D01*
X7647424Y-64000000D02*
X7647424Y-64675887D01*
X4310000Y-63173270D02*
G75*
G02*
X4352558Y-63324112I-246000J-150830D01*
G01*
X4310000Y-63173270D02*
G75*
G02*
X4976023Y-62509999I413242J251072D01*
G01*
X4352575Y-64675887D02*
G75*
G02*
X4310000Y-64826729I-288315J-53D01*
G01*
X4976023Y-65489999D02*
G75*
G02*
X4309997Y-64826727I-252783J412199D01*
G01*
X4976023Y-65489999D02*
G75*
G02*
X5127491Y-65447599I151427J-249201D01*
G01*
X5127491Y-62552399D02*
G75*
G02*
X4976030Y-62509989I9J291699D01*
G01*
X6872508Y-65447600D02*
G75*
G02*
X7023976Y-65489999I37J-291622D01*
G01*
X7023976Y-62510000D02*
G75*
G02*
X6872508Y-62552399I-151431J249223D01*
G01*
X7023976Y-62510000D02*
G75*
G02*
X7690000Y-63173270I252779J-412201D01*
G01*
X7647424Y-63324112D02*
G75*
G02*
X7690000Y-63173270I288613J-33D01*
G01*
X7690000Y-64826729D02*
G75*
G02*
X7023976Y-65489999I-413245J-251069D01*
G01*
X7690000Y-64826729D02*
G75*
G02*
X7647424Y-64675887I246037J150875D01*
G01*
%TO.C,LED15*%
X58352575Y-8000000D02*
X58352575Y-7324112D01*
X58352575Y-8000000D02*
X58352575Y-8675887D01*
X60000000Y-6552399D02*
X59127491Y-6552399D01*
X60000000Y-6552399D02*
X60872508Y-6552399D01*
X60000000Y-9447600D02*
X59127491Y-9447600D01*
X60000000Y-9447600D02*
X60872508Y-9447600D01*
X61647424Y-8000000D02*
X61647424Y-7324112D01*
X61647424Y-8000000D02*
X61647424Y-8675887D01*
X58309999Y-7173270D02*
G75*
G02*
X58352557Y-7324112I-245999J-150830D01*
G01*
X58309999Y-7173270D02*
G75*
G02*
X58976021Y-6510003I413241J251070D01*
G01*
X58352575Y-8675887D02*
G75*
G02*
X58309999Y-8826729I-288305J-53D01*
G01*
X58976023Y-9490000D02*
G75*
G02*
X58310008Y-8826734I-252773J412200D01*
G01*
X58976023Y-9490000D02*
G75*
G02*
X59127491Y-9447598I151427J-249190D01*
G01*
X59127491Y-6552399D02*
G75*
G02*
X58976030Y-6509989I9J291699D01*
G01*
X60872508Y-9447600D02*
G75*
G02*
X61023976Y-9490000I39J-291610D01*
G01*
X61023976Y-6510000D02*
G75*
G02*
X60872508Y-6552399I-151431J249223D01*
G01*
X61023976Y-6510000D02*
G75*
G02*
X61690000Y-7173270I252779J-412201D01*
G01*
X61647424Y-7324112D02*
G75*
G02*
X61690000Y-7173270I288613J-33D01*
G01*
X61690000Y-8826729D02*
G75*
G02*
X61023976Y-9489999I-413246J-251068D01*
G01*
X61690000Y-8826729D02*
G75*
G02*
X61647424Y-8675887I246037J150875D01*
G01*
%TO.C,LED1*%
X33827575Y-11425000D02*
X33827575Y-10749112D01*
X33827575Y-11425000D02*
X33827575Y-12100887D01*
X35475000Y-9977399D02*
X34602491Y-9977399D01*
X35475000Y-9977399D02*
X36347508Y-9977399D01*
X35475000Y-12872600D02*
X34602491Y-12872600D01*
X35475000Y-12872600D02*
X36347508Y-12872600D01*
X37122424Y-11425000D02*
X37122424Y-10749112D01*
X37122424Y-11425000D02*
X37122424Y-12100887D01*
X33785000Y-10598270D02*
G75*
G02*
X33827558Y-10749112I-246000J-150830D01*
G01*
X33785000Y-10598270D02*
G75*
G02*
X34451023Y-9934999I413242J251072D01*
G01*
X33827575Y-12100887D02*
G75*
G02*
X33785000Y-12251729I-288315J-53D01*
G01*
X34451023Y-12915000D02*
G75*
G02*
X33784996Y-12251727I-252783J412200D01*
G01*
X34451023Y-12915000D02*
G75*
G02*
X34602491Y-12872598I151427J-249190D01*
G01*
X34602491Y-9977399D02*
G75*
G02*
X34451030Y-9934989I9J291699D01*
G01*
X36347508Y-12872600D02*
G75*
G02*
X36498976Y-12915000I39J-291610D01*
G01*
X36498976Y-9935000D02*
G75*
G02*
X36347508Y-9977399I-151431J249223D01*
G01*
X36498976Y-9935000D02*
G75*
G02*
X37165000Y-10598270I252779J-412201D01*
G01*
X37122424Y-10749112D02*
G75*
G02*
X37165000Y-10598270I288613J-33D01*
G01*
X37165000Y-12251729D02*
G75*
G02*
X36498976Y-12914999I-413246J-251068D01*
G01*
X37165000Y-12251729D02*
G75*
G02*
X37122424Y-12100887I246037J150875D01*
G01*
%TO.C,LED4*%
X33827575Y-30475000D02*
X33827575Y-29799112D01*
X33827575Y-30475000D02*
X33827575Y-31150887D01*
X35475000Y-29027399D02*
X34602491Y-29027399D01*
X35475000Y-29027399D02*
X36347508Y-29027399D01*
X35475000Y-31922600D02*
X34602491Y-31922600D01*
X35475000Y-31922600D02*
X36347508Y-31922600D01*
X37122424Y-30475000D02*
X37122424Y-29799112D01*
X37122424Y-30475000D02*
X37122424Y-31150887D01*
X33785000Y-29648270D02*
G75*
G02*
X33827558Y-29799112I-246000J-150830D01*
G01*
X33785000Y-29648270D02*
G75*
G02*
X34451023Y-28984999I413242J251072D01*
G01*
X33827575Y-31150887D02*
G75*
G02*
X33785000Y-31301729I-288315J-53D01*
G01*
X34451023Y-31965000D02*
G75*
G02*
X33784996Y-31301727I-252783J412200D01*
G01*
X34451023Y-31965000D02*
G75*
G02*
X34602491Y-31922598I151427J-249190D01*
G01*
X34602491Y-29027399D02*
G75*
G02*
X34451030Y-28984989I9J291699D01*
G01*
X36347508Y-31922600D02*
G75*
G02*
X36498976Y-31965000I39J-291610D01*
G01*
X36498976Y-28985000D02*
G75*
G02*
X36347508Y-29027399I-151431J249223D01*
G01*
X36498976Y-28985000D02*
G75*
G02*
X37165000Y-29648270I252779J-412201D01*
G01*
X37122424Y-29799112D02*
G75*
G02*
X37165000Y-29648270I288613J-33D01*
G01*
X37165000Y-31301729D02*
G75*
G02*
X36498976Y-31964999I-413246J-251068D01*
G01*
X37165000Y-31301729D02*
G75*
G02*
X37122424Y-31150887I246037J150875D01*
G01*
%TO.C,LED19*%
X28352575Y-84000000D02*
X28352575Y-83324112D01*
X28352575Y-84000000D02*
X28352575Y-84675887D01*
X30000000Y-82552399D02*
X29127491Y-82552399D01*
X30000000Y-82552399D02*
X30872508Y-82552399D01*
X30000000Y-85447600D02*
X29127491Y-85447600D01*
X30000000Y-85447600D02*
X30872508Y-85447600D01*
X31647424Y-84000000D02*
X31647424Y-83324112D01*
X31647424Y-84000000D02*
X31647424Y-84675887D01*
X28310000Y-83173270D02*
G75*
G02*
X28352558Y-83324112I-246000J-150830D01*
G01*
X28310000Y-83173270D02*
G75*
G02*
X28976023Y-82509999I413242J251072D01*
G01*
X28352575Y-84675887D02*
G75*
G02*
X28310000Y-84826729I-288315J-53D01*
G01*
X28976023Y-85490000D02*
G75*
G02*
X28309996Y-84826727I-252783J412200D01*
G01*
X28976023Y-85490000D02*
G75*
G02*
X29127491Y-85447598I151427J-249190D01*
G01*
X29127491Y-82552399D02*
G75*
G02*
X28976030Y-82509989I9J291699D01*
G01*
X30872508Y-85447600D02*
G75*
G02*
X31023976Y-85490000I39J-291610D01*
G01*
X31023976Y-82510000D02*
G75*
G02*
X30872508Y-82552399I-151431J249223D01*
G01*
X31023976Y-82510000D02*
G75*
G02*
X31690000Y-83173270I252779J-412201D01*
G01*
X31647424Y-83324112D02*
G75*
G02*
X31689999Y-83173270I288625J-35D01*
G01*
X31689999Y-84826729D02*
G75*
G02*
X31023976Y-85490000I-413245J-251069D01*
G01*
X31689999Y-84826729D02*
G75*
G02*
X31647424Y-84675887I246050J150877D01*
G01*
%TO.C,LED21*%
X58352575Y-84000000D02*
X58352575Y-83324112D01*
X58352575Y-84000000D02*
X58352575Y-84675887D01*
X60000000Y-82552399D02*
X59127491Y-82552399D01*
X60000000Y-82552399D02*
X60872508Y-82552399D01*
X60000000Y-85447600D02*
X59127491Y-85447600D01*
X60000000Y-85447600D02*
X60872508Y-85447600D01*
X61647424Y-84000000D02*
X61647424Y-83324112D01*
X61647424Y-84000000D02*
X61647424Y-84675887D01*
X58309999Y-83173270D02*
G75*
G02*
X58352557Y-83324112I-245999J-150830D01*
G01*
X58309999Y-83173270D02*
G75*
G02*
X58976021Y-82510003I413241J251070D01*
G01*
X58352575Y-84675887D02*
G75*
G02*
X58309999Y-84826729I-288305J-53D01*
G01*
X58976023Y-85490000D02*
G75*
G02*
X58310008Y-84826734I-252773J412200D01*
G01*
X58976023Y-85490000D02*
G75*
G02*
X59127491Y-85447598I151427J-249190D01*
G01*
X59127491Y-82552399D02*
G75*
G02*
X58976030Y-82509989I9J291699D01*
G01*
X60872508Y-85447600D02*
G75*
G02*
X61023976Y-85490000I39J-291610D01*
G01*
X61023976Y-82510000D02*
G75*
G02*
X60872508Y-82552399I-151431J249223D01*
G01*
X61023976Y-82510000D02*
G75*
G02*
X61690000Y-83173270I252779J-412201D01*
G01*
X61647424Y-83324112D02*
G75*
G02*
X61690000Y-83173270I288613J-33D01*
G01*
X61690000Y-84826729D02*
G75*
G02*
X61023976Y-85489999I-413246J-251068D01*
G01*
X61690000Y-84826729D02*
G75*
G02*
X61647424Y-84675887I246037J150875D01*
G01*
%TO.C,LED9*%
X52877575Y-49525000D02*
X52877575Y-48849112D01*
X52877575Y-49525000D02*
X52877575Y-50200887D01*
X54525000Y-48077399D02*
X53652491Y-48077399D01*
X54525000Y-48077399D02*
X55397508Y-48077399D01*
X54525000Y-50972600D02*
X53652491Y-50972600D01*
X54525000Y-50972600D02*
X55397508Y-50972600D01*
X56172424Y-49525000D02*
X56172424Y-48849112D01*
X56172424Y-49525000D02*
X56172424Y-50200887D01*
X52835000Y-48698270D02*
G75*
G02*
X52877558Y-48849112I-246000J-150830D01*
G01*
X52835000Y-48698270D02*
G75*
G02*
X53501023Y-48034999I413242J251072D01*
G01*
X52877575Y-50200887D02*
G75*
G02*
X52835000Y-50351729I-288315J-53D01*
G01*
X53501023Y-51015000D02*
G75*
G02*
X52834996Y-50351727I-252783J412200D01*
G01*
X53501023Y-51015000D02*
G75*
G02*
X53652491Y-50972598I151427J-249190D01*
G01*
X53652491Y-48077399D02*
G75*
G02*
X53501030Y-48034989I9J291699D01*
G01*
X55397508Y-50972600D02*
G75*
G02*
X55548976Y-51015000I39J-291610D01*
G01*
X55548976Y-48035000D02*
G75*
G02*
X55397508Y-48077399I-151431J249223D01*
G01*
X55548976Y-48035000D02*
G75*
G02*
X56215000Y-48698270I252779J-412201D01*
G01*
X56172424Y-48849112D02*
G75*
G02*
X56215000Y-48698270I288613J-33D01*
G01*
X56215000Y-50351729D02*
G75*
G02*
X55548976Y-51014999I-413246J-251068D01*
G01*
X56215000Y-50351729D02*
G75*
G02*
X56172424Y-50200887I246037J150875D01*
G01*
%TO.C,LED5*%
X52877575Y-30475000D02*
X52877575Y-29799112D01*
X52877575Y-30475000D02*
X52877575Y-31150887D01*
X54525000Y-29027399D02*
X53652491Y-29027399D01*
X54525000Y-29027399D02*
X55397508Y-29027399D01*
X54525000Y-31922600D02*
X53652491Y-31922600D01*
X54525000Y-31922600D02*
X55397508Y-31922600D01*
X56172424Y-30475000D02*
X56172424Y-29799112D01*
X56172424Y-30475000D02*
X56172424Y-31150887D01*
X52835000Y-29648270D02*
G75*
G02*
X52877558Y-29799112I-246000J-150830D01*
G01*
X52835000Y-29648270D02*
G75*
G02*
X53501023Y-28984999I413242J251072D01*
G01*
X52877575Y-31150887D02*
G75*
G02*
X52835000Y-31301729I-288315J-53D01*
G01*
X53501023Y-31965000D02*
G75*
G02*
X52834996Y-31301727I-252783J412200D01*
G01*
X53501023Y-31965000D02*
G75*
G02*
X53652491Y-31922598I151427J-249190D01*
G01*
X53652491Y-29027399D02*
G75*
G02*
X53501030Y-28984989I9J291699D01*
G01*
X55397508Y-31922600D02*
G75*
G02*
X55548976Y-31965000I39J-291610D01*
G01*
X55548976Y-28985000D02*
G75*
G02*
X55397508Y-29027399I-151431J249223D01*
G01*
X55548976Y-28985000D02*
G75*
G02*
X56215000Y-29648270I252779J-412201D01*
G01*
X56172424Y-29799112D02*
G75*
G02*
X56215000Y-29648270I288613J-33D01*
G01*
X56215000Y-31301729D02*
G75*
G02*
X55548976Y-31964999I-413246J-251068D01*
G01*
X56215000Y-31301729D02*
G75*
G02*
X56172424Y-31150887I246037J150875D01*
G01*
%TO.C,LED11*%
X43352575Y-68575000D02*
X43352575Y-67899112D01*
X43352575Y-68575000D02*
X43352575Y-69250887D01*
X45000000Y-67127399D02*
X44127491Y-67127399D01*
X45000000Y-67127399D02*
X45872508Y-67127399D01*
X45000000Y-70022600D02*
X44127491Y-70022600D01*
X45000000Y-70022600D02*
X45872508Y-70022600D01*
X46647424Y-68575000D02*
X46647424Y-67899112D01*
X46647424Y-68575000D02*
X46647424Y-69250887D01*
X43309999Y-67748270D02*
G75*
G02*
X43352557Y-67899112I-245999J-150830D01*
G01*
X43309999Y-67748270D02*
G75*
G02*
X43976020Y-67085003I413241J251070D01*
G01*
X43352575Y-69250887D02*
G75*
G02*
X43309999Y-69401729I-288305J-53D01*
G01*
X43976023Y-70065000D02*
G75*
G02*
X43310008Y-69401734I-252773J412200D01*
G01*
X43976023Y-70065000D02*
G75*
G02*
X44127491Y-70022598I151427J-249190D01*
G01*
X44127491Y-67127399D02*
G75*
G02*
X43976037Y-67084976I9J291599D01*
G01*
X45872508Y-70022600D02*
G75*
G02*
X46023976Y-70065000I39J-291610D01*
G01*
X46023976Y-67084999D02*
G75*
G02*
X45872508Y-67127399I-151429J249210D01*
G01*
X46023976Y-67084999D02*
G75*
G02*
X46690001Y-67748270I252778J-412203D01*
G01*
X46647424Y-67899112D02*
G75*
G02*
X46690000Y-67748270I288613J-33D01*
G01*
X46690000Y-69401729D02*
G75*
G02*
X46023976Y-70064999I-413246J-251068D01*
G01*
X46690000Y-69401729D02*
G75*
G02*
X46647424Y-69250887I246037J150875D01*
G01*
%TO.C,LED17*%
X6352575Y-45000000D02*
X6352575Y-44324112D01*
X6352575Y-45000000D02*
X6352575Y-45675887D01*
X8000000Y-43552399D02*
X7127491Y-43552399D01*
X8000000Y-43552399D02*
X8872508Y-43552399D01*
X8000000Y-46447600D02*
X7127491Y-46447600D01*
X8000000Y-46447600D02*
X8872508Y-46447600D01*
X9647424Y-45000000D02*
X9647424Y-44324112D01*
X9647424Y-45000000D02*
X9647424Y-45675887D01*
X6310000Y-44173270D02*
G75*
G02*
X6352558Y-44324112I-246000J-150830D01*
G01*
X6310000Y-44173270D02*
G75*
G02*
X6976023Y-43509999I413242J251072D01*
G01*
X6352575Y-45675887D02*
G75*
G02*
X6310000Y-45826729I-288315J-53D01*
G01*
X6976023Y-46490000D02*
G75*
G02*
X6309996Y-45826727I-252783J412200D01*
G01*
X6976023Y-46490000D02*
G75*
G02*
X7127491Y-46447598I151427J-249190D01*
G01*
X7127491Y-43552399D02*
G75*
G02*
X6976030Y-43509989I9J291699D01*
G01*
X8872508Y-46447600D02*
G75*
G02*
X9023976Y-46490000I39J-291610D01*
G01*
X9023976Y-43510000D02*
G75*
G02*
X8872508Y-43552399I-151431J249223D01*
G01*
X9023976Y-43510000D02*
G75*
G02*
X9690000Y-44173270I252779J-412201D01*
G01*
X9647424Y-44324112D02*
G75*
G02*
X9690000Y-44173270I288613J-33D01*
G01*
X9690000Y-45826729D02*
G75*
G02*
X9023976Y-46489999I-413246J-251068D01*
G01*
X9690000Y-45826729D02*
G75*
G02*
X9647424Y-45675887I246037J150875D01*
G01*
%TO.C,LED6*%
X71927575Y-30475000D02*
X71927575Y-29799112D01*
X71927575Y-30475000D02*
X71927575Y-31150887D01*
X73575000Y-29027399D02*
X72702491Y-29027399D01*
X73575000Y-29027399D02*
X74447508Y-29027399D01*
X73575000Y-31922600D02*
X72702491Y-31922600D01*
X73575000Y-31922600D02*
X74447508Y-31922600D01*
X75222424Y-30475000D02*
X75222424Y-29799112D01*
X75222424Y-30475000D02*
X75222424Y-31150887D01*
X71885000Y-29648270D02*
G75*
G02*
X71927558Y-29799112I-246000J-150830D01*
G01*
X71885000Y-29648270D02*
G75*
G02*
X72551023Y-28984999I413242J251072D01*
G01*
X71927575Y-31150887D02*
G75*
G02*
X71885000Y-31301729I-288315J-53D01*
G01*
X72551023Y-31965000D02*
G75*
G02*
X71884996Y-31301727I-252783J412200D01*
G01*
X72551023Y-31965000D02*
G75*
G02*
X72702491Y-31922598I151427J-249190D01*
G01*
X72702491Y-29027399D02*
G75*
G02*
X72551030Y-28984989I9J291699D01*
G01*
X74447508Y-31922600D02*
G75*
G02*
X74598976Y-31965000I39J-291610D01*
G01*
X74598976Y-28985000D02*
G75*
G02*
X74447508Y-29027399I-151431J249223D01*
G01*
X74598976Y-28985000D02*
G75*
G02*
X75265000Y-29648270I252779J-412201D01*
G01*
X75222424Y-29799112D02*
G75*
G02*
X75265000Y-29648270I288613J-33D01*
G01*
X75265000Y-31301729D02*
G75*
G02*
X74598976Y-31964999I-413246J-251068D01*
G01*
X75265000Y-31301729D02*
G75*
G02*
X75222424Y-31150887I246037J150875D01*
G01*
%TO.C,LED20*%
X43352575Y-82000000D02*
X43352575Y-81324112D01*
X43352575Y-82000000D02*
X43352575Y-82675887D01*
X45000000Y-80552399D02*
X44127491Y-80552399D01*
X45000000Y-80552399D02*
X45872508Y-80552399D01*
X45000000Y-83447600D02*
X44127491Y-83447600D01*
X45000000Y-83447600D02*
X45872508Y-83447600D01*
X46647424Y-82000000D02*
X46647424Y-81324112D01*
X46647424Y-82000000D02*
X46647424Y-82675887D01*
X43309999Y-81173270D02*
G75*
G02*
X43352557Y-81324112I-245999J-150830D01*
G01*
X43309999Y-81173270D02*
G75*
G02*
X43976021Y-80510003I413241J251070D01*
G01*
X43352575Y-82675887D02*
G75*
G02*
X43309999Y-82826729I-288305J-53D01*
G01*
X43976023Y-83490000D02*
G75*
G02*
X43310008Y-82826734I-252773J412200D01*
G01*
X43976023Y-83490000D02*
G75*
G02*
X44127491Y-83447598I151427J-249190D01*
G01*
X44127491Y-80552399D02*
G75*
G02*
X43976030Y-80509989I9J291699D01*
G01*
X45872508Y-83447600D02*
G75*
G02*
X46023976Y-83490000I39J-291610D01*
G01*
X46023976Y-80510000D02*
G75*
G02*
X45872508Y-80552399I-151431J249223D01*
G01*
X46023976Y-80510000D02*
G75*
G02*
X46690000Y-81173270I252779J-412201D01*
G01*
X46647424Y-81324112D02*
G75*
G02*
X46690000Y-81173270I288613J-33D01*
G01*
X46690000Y-82826729D02*
G75*
G02*
X46023976Y-83489999I-413246J-251068D01*
G01*
X46690000Y-82826729D02*
G75*
G02*
X46647424Y-82675887I246037J150875D01*
G01*
%TO.C,LED12*%
X71927575Y-68575000D02*
X71927575Y-67899112D01*
X71927575Y-68575000D02*
X71927575Y-69250887D01*
X73575000Y-67127399D02*
X72702491Y-67127399D01*
X73575000Y-67127399D02*
X74447508Y-67127399D01*
X73575000Y-70022600D02*
X72702491Y-70022600D01*
X73575000Y-70022600D02*
X74447508Y-70022600D01*
X75222424Y-68575000D02*
X75222424Y-67899112D01*
X75222424Y-68575000D02*
X75222424Y-69250887D01*
X71885000Y-67748270D02*
G75*
G02*
X71927558Y-67899112I-246000J-150830D01*
G01*
X71885000Y-67748270D02*
G75*
G02*
X72551023Y-67084999I413242J251072D01*
G01*
X71927575Y-69250887D02*
G75*
G02*
X71885000Y-69401729I-288315J-53D01*
G01*
X72551023Y-70065000D02*
G75*
G02*
X71884996Y-69401727I-252783J412200D01*
G01*
X72551023Y-70065000D02*
G75*
G02*
X72702491Y-70022598I151427J-249190D01*
G01*
X72702491Y-67127399D02*
G75*
G02*
X72551037Y-67084976I9J291599D01*
G01*
X74447508Y-70022600D02*
G75*
G02*
X74598976Y-70065000I39J-291610D01*
G01*
X74598976Y-67084999D02*
G75*
G02*
X74447508Y-67127399I-151429J249210D01*
G01*
X74598976Y-67084999D02*
G75*
G02*
X75265001Y-67748270I252778J-412203D01*
G01*
X75222424Y-67899112D02*
G75*
G02*
X75265000Y-67748270I288613J-33D01*
G01*
X75265000Y-69401729D02*
G75*
G02*
X74598976Y-70064999I-413246J-251068D01*
G01*
X75265000Y-69401729D02*
G75*
G02*
X75222424Y-69250887I246037J150875D01*
G01*
%TO.C,LED10*%
X71927575Y-49525000D02*
X71927575Y-48849112D01*
X71927575Y-49525000D02*
X71927575Y-50200887D01*
X73575000Y-48077399D02*
X72702491Y-48077399D01*
X73575000Y-48077399D02*
X74447508Y-48077399D01*
X73575000Y-50972600D02*
X72702491Y-50972600D01*
X73575000Y-50972600D02*
X74447508Y-50972600D01*
X75222424Y-49525000D02*
X75222424Y-48849112D01*
X75222424Y-49525000D02*
X75222424Y-50200887D01*
X71885000Y-48698270D02*
G75*
G02*
X71927558Y-48849112I-246000J-150830D01*
G01*
X71885000Y-48698270D02*
G75*
G02*
X72551023Y-48034999I413242J251072D01*
G01*
X71927575Y-50200887D02*
G75*
G02*
X71885000Y-50351729I-288315J-53D01*
G01*
X72551023Y-51015000D02*
G75*
G02*
X71884996Y-50351727I-252783J412200D01*
G01*
X72551023Y-51015000D02*
G75*
G02*
X72702491Y-50972598I151427J-249190D01*
G01*
X72702491Y-48077399D02*
G75*
G02*
X72551030Y-48034989I9J291699D01*
G01*
X74447508Y-50972600D02*
G75*
G02*
X74598976Y-51015000I39J-291610D01*
G01*
X74598976Y-48035000D02*
G75*
G02*
X74447508Y-48077399I-151431J249223D01*
G01*
X74598976Y-48035000D02*
G75*
G02*
X75265000Y-48698270I252779J-412201D01*
G01*
X75222424Y-48849112D02*
G75*
G02*
X75265000Y-48698270I288613J-33D01*
G01*
X75265000Y-50351729D02*
G75*
G02*
X74598976Y-51014999I-413246J-251068D01*
G01*
X75265000Y-50351729D02*
G75*
G02*
X75222424Y-50200887I246037J150875D01*
G01*
%TO.C,LED2*%
X52877575Y-11425000D02*
X52877575Y-10749112D01*
X52877575Y-11425000D02*
X52877575Y-12100887D01*
X54525000Y-9977399D02*
X53652491Y-9977399D01*
X54525000Y-9977399D02*
X55397508Y-9977399D01*
X54525000Y-12872600D02*
X53652491Y-12872600D01*
X54525000Y-12872600D02*
X55397508Y-12872600D01*
X56172424Y-11425000D02*
X56172424Y-10749112D01*
X56172424Y-11425000D02*
X56172424Y-12100887D01*
X52835000Y-10598270D02*
G75*
G02*
X52877558Y-10749112I-246000J-150830D01*
G01*
X52835000Y-10598270D02*
G75*
G02*
X53501023Y-9934999I413242J251072D01*
G01*
X52877575Y-12100887D02*
G75*
G02*
X52835000Y-12251729I-288315J-53D01*
G01*
X53501023Y-12915000D02*
G75*
G02*
X52834996Y-12251727I-252783J412200D01*
G01*
X53501023Y-12915000D02*
G75*
G02*
X53652491Y-12872598I151427J-249190D01*
G01*
X53652491Y-9977399D02*
G75*
G02*
X53501030Y-9934989I9J291699D01*
G01*
X55397508Y-12872600D02*
G75*
G02*
X55548976Y-12915000I39J-291610D01*
G01*
X55548976Y-9935000D02*
G75*
G02*
X55397508Y-9977399I-151431J249223D01*
G01*
X55548976Y-9935000D02*
G75*
G02*
X56215000Y-10598270I252779J-412201D01*
G01*
X56172424Y-10749112D02*
G75*
G02*
X56215000Y-10598270I288613J-33D01*
G01*
X56215000Y-12251729D02*
G75*
G02*
X55548976Y-12914999I-413246J-251068D01*
G01*
X56215000Y-12251729D02*
G75*
G02*
X56172424Y-12100887I246037J150875D01*
G01*
%TO.C,LED8*%
X33827575Y-49525000D02*
X33827575Y-48849112D01*
X33827575Y-49525000D02*
X33827575Y-50200887D01*
X35475000Y-48077399D02*
X34602491Y-48077399D01*
X35475000Y-48077399D02*
X36347508Y-48077399D01*
X35475000Y-50972600D02*
X34602491Y-50972600D01*
X35475000Y-50972600D02*
X36347508Y-50972600D01*
X37122424Y-49525000D02*
X37122424Y-48849112D01*
X37122424Y-49525000D02*
X37122424Y-50200887D01*
X33785000Y-48698270D02*
G75*
G02*
X33827558Y-48849112I-246000J-150830D01*
G01*
X33785000Y-48698270D02*
G75*
G02*
X34451023Y-48034999I413242J251072D01*
G01*
X33827575Y-50200887D02*
G75*
G02*
X33785000Y-50351729I-288315J-53D01*
G01*
X34451023Y-51015000D02*
G75*
G02*
X33784996Y-50351727I-252783J412200D01*
G01*
X34451023Y-51015000D02*
G75*
G02*
X34602491Y-50972598I151427J-249190D01*
G01*
X34602491Y-48077399D02*
G75*
G02*
X34451030Y-48034989I9J291699D01*
G01*
X36347508Y-50972600D02*
G75*
G02*
X36498976Y-51015000I39J-291610D01*
G01*
X36498976Y-48035000D02*
G75*
G02*
X36347508Y-48077399I-151431J249223D01*
G01*
X36498976Y-48035000D02*
G75*
G02*
X37165000Y-48698270I252779J-412201D01*
G01*
X37122424Y-48849112D02*
G75*
G02*
X37165000Y-48698270I288613J-33D01*
G01*
X37165000Y-50351729D02*
G75*
G02*
X36498976Y-51014999I-413246J-251068D01*
G01*
X37165000Y-50351729D02*
G75*
G02*
X37122424Y-50200887I246037J150875D01*
G01*
%TO.C,LED18*%
X80352575Y-45000000D02*
X80352575Y-44324112D01*
X80352575Y-45000000D02*
X80352575Y-45675887D01*
X82000000Y-43552399D02*
X81127491Y-43552399D01*
X82000000Y-43552399D02*
X82872508Y-43552399D01*
X82000000Y-46447600D02*
X81127491Y-46447600D01*
X82000000Y-46447600D02*
X82872508Y-46447600D01*
X83647424Y-45000000D02*
X83647424Y-44324112D01*
X83647424Y-45000000D02*
X83647424Y-45675887D01*
X80310000Y-44173270D02*
G75*
G02*
X80352558Y-44324112I-246000J-150830D01*
G01*
X80310000Y-44173270D02*
G75*
G02*
X80976023Y-43509999I413242J251072D01*
G01*
X80352575Y-45675887D02*
G75*
G02*
X80310000Y-45826729I-288315J-53D01*
G01*
X80976023Y-46490000D02*
G75*
G02*
X80309996Y-45826727I-252783J412200D01*
G01*
X80976023Y-46490000D02*
G75*
G02*
X81127491Y-46447598I151427J-249190D01*
G01*
X81127491Y-43552399D02*
G75*
G02*
X80976030Y-43509989I9J291699D01*
G01*
X82872508Y-46447600D02*
G75*
G02*
X83023976Y-46490000I39J-291610D01*
G01*
X83023976Y-43510000D02*
G75*
G02*
X82872508Y-43552399I-151431J249223D01*
G01*
X83023976Y-43510000D02*
G75*
G02*
X83690000Y-44173270I252779J-412201D01*
G01*
X83647424Y-44324112D02*
G75*
G02*
X83690000Y-44173270I288613J-33D01*
G01*
X83690000Y-45826729D02*
G75*
G02*
X83023976Y-46489999I-413246J-251068D01*
G01*
X83690000Y-45826729D02*
G75*
G02*
X83647424Y-45675887I246037J150875D01*
G01*
%TO.C,LED23*%
X4352575Y-72000000D02*
X4352575Y-71324112D01*
X4352575Y-72000000D02*
X4352575Y-72675887D01*
X6000000Y-70552399D02*
X5127491Y-70552399D01*
X6000000Y-70552399D02*
X6872508Y-70552399D01*
X6000000Y-73447600D02*
X5127491Y-73447600D01*
X6000000Y-73447600D02*
X6872508Y-73447600D01*
X7647424Y-72000000D02*
X7647424Y-71324112D01*
X7647424Y-72000000D02*
X7647424Y-72675887D01*
X4310000Y-71173270D02*
G75*
G02*
X4352558Y-71324112I-246000J-150830D01*
G01*
X4310000Y-71173270D02*
G75*
G02*
X4976023Y-70509999I413242J251072D01*
G01*
X4352575Y-72675887D02*
G75*
G02*
X4310000Y-72826729I-288315J-53D01*
G01*
X4976023Y-73490000D02*
G75*
G02*
X4309996Y-72826727I-252783J412200D01*
G01*
X4976023Y-73490000D02*
G75*
G02*
X5127491Y-73447598I151427J-249190D01*
G01*
X5127491Y-70552399D02*
G75*
G02*
X4976030Y-70509989I9J291699D01*
G01*
X6872508Y-73447600D02*
G75*
G02*
X7023976Y-73490000I39J-291610D01*
G01*
X7023976Y-70510000D02*
G75*
G02*
X6872508Y-70552399I-151431J249223D01*
G01*
X7023976Y-70510000D02*
G75*
G02*
X7690000Y-71173270I252779J-412201D01*
G01*
X7647424Y-71324112D02*
G75*
G02*
X7690000Y-71173270I288613J-33D01*
G01*
X7690000Y-72826729D02*
G75*
G02*
X7023976Y-73489999I-413246J-251068D01*
G01*
X7690000Y-72826729D02*
G75*
G02*
X7647424Y-72675887I246037J150875D01*
G01*
%TO.C,LED14*%
X28352575Y-8000000D02*
X28352575Y-7324112D01*
X28352575Y-8000000D02*
X28352575Y-8675887D01*
X30000000Y-6552399D02*
X29127491Y-6552399D01*
X30000000Y-6552399D02*
X30872508Y-6552399D01*
X30000000Y-9447600D02*
X29127491Y-9447600D01*
X30000000Y-9447600D02*
X30872508Y-9447600D01*
X31647424Y-8000000D02*
X31647424Y-7324112D01*
X31647424Y-8000000D02*
X31647424Y-8675887D01*
X28310000Y-7173270D02*
G75*
G02*
X28352558Y-7324112I-246000J-150830D01*
G01*
X28310000Y-7173270D02*
G75*
G02*
X28976023Y-6509999I413242J251072D01*
G01*
X28352575Y-8675887D02*
G75*
G02*
X28310000Y-8826729I-288315J-53D01*
G01*
X28976023Y-9490000D02*
G75*
G02*
X28309996Y-8826727I-252783J412200D01*
G01*
X28976023Y-9490000D02*
G75*
G02*
X29127491Y-9447598I151427J-249190D01*
G01*
X29127491Y-6552399D02*
G75*
G02*
X28976030Y-6509989I9J291699D01*
G01*
X30872508Y-9447600D02*
G75*
G02*
X31023976Y-9490000I39J-291610D01*
G01*
X31023976Y-6510000D02*
G75*
G02*
X30872508Y-6552399I-151431J249223D01*
G01*
X31023976Y-6510000D02*
G75*
G02*
X31690000Y-7173270I252779J-412201D01*
G01*
X31647424Y-7324112D02*
G75*
G02*
X31689999Y-7173270I288625J-35D01*
G01*
X31689999Y-8826729D02*
G75*
G02*
X31023976Y-9490000I-413245J-251069D01*
G01*
X31689999Y-8826729D02*
G75*
G02*
X31647424Y-8675887I246050J150877D01*
G01*
%TO.C,LED7*%
X14777575Y-49525000D02*
X14777575Y-48849112D01*
X14777575Y-49525000D02*
X14777575Y-50200887D01*
X16425000Y-48077399D02*
X15552491Y-48077399D01*
X16425000Y-48077399D02*
X17297508Y-48077399D01*
X16425000Y-50972600D02*
X15552491Y-50972600D01*
X16425000Y-50972600D02*
X17297508Y-50972600D01*
X18072424Y-49525000D02*
X18072424Y-48849112D01*
X18072424Y-49525000D02*
X18072424Y-50200887D01*
X14735000Y-48698270D02*
G75*
G02*
X14777558Y-48849112I-246000J-150830D01*
G01*
X14735000Y-48698270D02*
G75*
G02*
X15401023Y-48034999I413242J251072D01*
G01*
X14777575Y-50200887D02*
G75*
G02*
X14735000Y-50351729I-288315J-53D01*
G01*
X15401023Y-51015000D02*
G75*
G02*
X14734996Y-50351727I-252783J412200D01*
G01*
X15401023Y-51015000D02*
G75*
G02*
X15552491Y-50972598I151427J-249190D01*
G01*
X15552491Y-48077399D02*
G75*
G02*
X15401030Y-48034989I9J291699D01*
G01*
X17297508Y-50972600D02*
G75*
G02*
X17448976Y-51015000I39J-291610D01*
G01*
X17448976Y-48035000D02*
G75*
G02*
X17297508Y-48077399I-151431J249223D01*
G01*
X17448976Y-48035000D02*
G75*
G02*
X18115000Y-48698270I252779J-412201D01*
G01*
X18072424Y-48849112D02*
G75*
G02*
X18115000Y-48698270I288613J-33D01*
G01*
X18115000Y-50351729D02*
G75*
G02*
X17448976Y-51014999I-413246J-251068D01*
G01*
X18115000Y-50351729D02*
G75*
G02*
X18072424Y-50200887I246037J150875D01*
G01*
%TO.C,LED13*%
X12352575Y-8000000D02*
X12352575Y-7324112D01*
X12352575Y-8000000D02*
X12352575Y-8675887D01*
X14000000Y-6552399D02*
X13127491Y-6552399D01*
X14000000Y-6552399D02*
X14872508Y-6552399D01*
X14000000Y-9447600D02*
X13127491Y-9447600D01*
X14000000Y-9447600D02*
X14872508Y-9447600D01*
X15647424Y-8000000D02*
X15647424Y-7324112D01*
X15647424Y-8000000D02*
X15647424Y-8675887D01*
X12310000Y-7173270D02*
G75*
G02*
X12352558Y-7324112I-246000J-150830D01*
G01*
X12310000Y-7173270D02*
G75*
G02*
X12976023Y-6509999I413242J251072D01*
G01*
X12352575Y-8675887D02*
G75*
G02*
X12310000Y-8826729I-288315J-53D01*
G01*
X12976023Y-9490000D02*
G75*
G02*
X12309996Y-8826727I-252783J412200D01*
G01*
X12976023Y-9490000D02*
G75*
G02*
X13127491Y-9447598I151427J-249190D01*
G01*
X13127491Y-6552399D02*
G75*
G02*
X12976030Y-6509989I9J291699D01*
G01*
X14872508Y-9447600D02*
G75*
G02*
X15023976Y-9490000I39J-291610D01*
G01*
X15023976Y-6510000D02*
G75*
G02*
X14872508Y-6552399I-151431J249223D01*
G01*
X15023976Y-6510000D02*
G75*
G02*
X15690000Y-7173270I252779J-412201D01*
G01*
X15647424Y-7324112D02*
G75*
G02*
X15690000Y-7173270I288613J-33D01*
G01*
X15690000Y-8826729D02*
G75*
G02*
X15023976Y-9489999I-413246J-251068D01*
G01*
X15690000Y-8826729D02*
G75*
G02*
X15647424Y-8675887I246037J150875D01*
G01*
%TO.C,LED3*%
X14777575Y-30475000D02*
X14777575Y-29799112D01*
X14777575Y-30475000D02*
X14777575Y-31150887D01*
X16425000Y-29027399D02*
X15552491Y-29027399D01*
X16425000Y-29027399D02*
X17297508Y-29027399D01*
X16425000Y-31922600D02*
X15552491Y-31922600D01*
X16425000Y-31922600D02*
X17297508Y-31922600D01*
X18072424Y-30475000D02*
X18072424Y-29799112D01*
X18072424Y-30475000D02*
X18072424Y-31150887D01*
X14735000Y-29648270D02*
G75*
G02*
X14777558Y-29799112I-246000J-150830D01*
G01*
X14735000Y-29648270D02*
G75*
G02*
X15401023Y-28984999I413242J251072D01*
G01*
X14777575Y-31150887D02*
G75*
G02*
X14735000Y-31301729I-288315J-53D01*
G01*
X15401023Y-31965000D02*
G75*
G02*
X14734996Y-31301727I-252783J412200D01*
G01*
X15401023Y-31965000D02*
G75*
G02*
X15552491Y-31922598I151427J-249190D01*
G01*
X15552491Y-29027399D02*
G75*
G02*
X15401030Y-28984989I9J291699D01*
G01*
X17297508Y-31922600D02*
G75*
G02*
X17448976Y-31965000I39J-291610D01*
G01*
X17448976Y-28985000D02*
G75*
G02*
X17297508Y-29027399I-151431J249223D01*
G01*
X17448976Y-28985000D02*
G75*
G02*
X18115000Y-29648270I252779J-412201D01*
G01*
X18072424Y-29799112D02*
G75*
G02*
X18115000Y-29648270I288613J-33D01*
G01*
X18115000Y-31301729D02*
G75*
G02*
X17448976Y-31964999I-413246J-251068D01*
G01*
X18115000Y-31301729D02*
G75*
G02*
X18072424Y-31150887I246037J150875D01*
G01*
%TO.C,LED16*%
X74352575Y-8000000D02*
X74352575Y-7324112D01*
X74352575Y-8000000D02*
X74352575Y-8675887D01*
X76000000Y-6552399D02*
X75127491Y-6552399D01*
X76000000Y-6552399D02*
X76872508Y-6552399D01*
X76000000Y-9447600D02*
X75127491Y-9447600D01*
X76000000Y-9447600D02*
X76872508Y-9447600D01*
X77647424Y-8000000D02*
X77647424Y-7324112D01*
X77647424Y-8000000D02*
X77647424Y-8675887D01*
X74310000Y-7173270D02*
G75*
G02*
X74352558Y-7324112I-246000J-150830D01*
G01*
X74310000Y-7173270D02*
G75*
G02*
X74976023Y-6509999I413242J251072D01*
G01*
X74352575Y-8675887D02*
G75*
G02*
X74310000Y-8826729I-288315J-53D01*
G01*
X74976023Y-9490000D02*
G75*
G02*
X74309996Y-8826727I-252783J412200D01*
G01*
X74976023Y-9490000D02*
G75*
G02*
X75127491Y-9447598I151427J-249190D01*
G01*
X75127491Y-6552399D02*
G75*
G02*
X74976030Y-6509989I9J291699D01*
G01*
X76872508Y-9447600D02*
G75*
G02*
X77023976Y-9490000I39J-291610D01*
G01*
X77023976Y-6510000D02*
G75*
G02*
X76872508Y-6552399I-151431J249223D01*
G01*
X77023976Y-6510000D02*
G75*
G02*
X77690000Y-7173270I252779J-412201D01*
G01*
X77647424Y-7324112D02*
G75*
G02*
X77690000Y-7173270I288613J-33D01*
G01*
X77690000Y-8826729D02*
G75*
G02*
X77023976Y-9489999I-413246J-251068D01*
G01*
X77690000Y-8826729D02*
G75*
G02*
X77647424Y-8675887I246037J150875D01*
G01*
%TD*%
M02*
